<svg preserveAspectRatio="xMidYMid meet" width="337" height="58" overflow="visible" style="display: block;" viewBox="0 0 337 58" fill="none" xmlns="http://www.w3.org/2000/svg">
<g id="[A] Azarian Growth Agency_color_logo_horizontal_on_dark">
<g id="Logo">
<path id="Vector" fill-rule="evenodd" clip-rule="evenodd" d="M47.3393 38.8823C46.6091 38.814 45.8547 38.814 45.124 38.8823V57.3589H47.3393V38.8823Z" fill="#2997FF"/>
<path id="Vector_2" fill-rule="evenodd" clip-rule="evenodd" d="M42.3046 39.6377C42.1513 39.7035 42.0041 39.773 41.8636 39.8487C41.2103 40.1973 40.622 40.6521 40.0894 41.1839V51.721H42.3046V39.6377Z" fill="#2997FF"/>
<path id="Vector_3" fill-rule="evenodd" clip-rule="evenodd" d="M49.957 39.6377V51.721H52.1723V41.1844C51.6391 40.6525 51.0504 40.1977 50.3981 39.8491C50.2576 39.7739 50.1109 39.7039 49.957 39.6382V39.6377Z" fill="#2997FF"/>
<path id="Vector_4" fill-rule="evenodd" clip-rule="evenodd" d="M46.2431 32.4301C52.5021 32.4301 57.9436 35.905 60.7179 41.018H67.2481L64.6264 36.5098L56.7447 22.9542V22.9421L48.8629 9.38773L46.2438 4.88086L43.6234 9.38773L35.7416 22.9421V22.9542L27.8598 36.5098L25.2388 41.018H31.7683C34.5433 35.905 39.9841 32.4301 46.2431 32.4301ZM40.9773 25.9528L40.9824 25.9554L46.2438 16.9066L51.5051 25.9554L51.5103 25.9528L52.9497 28.4281C50.8544 27.8723 48.6186 27.6189 46.2438 27.668C43.8689 27.6189 41.6332 27.8723 39.5373 28.4281L40.9773 25.9528Z" fill="white"/>
<path id="[ ]" d="M22.0972 0.462891V2.19336H16.4341V46.6416H22.0972V48.373H14.4966V0.462891H22.0972ZM77.9907 0.462891V48.373H70.4409V46.6416H76.0522V2.19336H70.4409V0.462891H77.9907Z" fill="#1BFED1" stroke="#1BFED1" stroke-width="0.254326"/>
</g>
<g id="Data-Driven | Full-Funnel">
<path d="M92.3564 40.009C92.3564 39.2825 92.5035 38.6469 92.7975 38.1021C93.0915 37.5486 93.4937 37.1205 94.0039 36.8178C94.5228 36.5151 95.1022 36.3638 95.7422 36.3638C96.2957 36.3638 96.8103 36.4935 97.2859 36.7529C97.7616 37.0037 98.1248 37.3367 98.3756 37.7518V33.9898H99.569V43.5893H98.3756V42.2532C98.1421 42.677 97.7962 43.0272 97.3378 43.3039C96.8795 43.572 96.3433 43.7061 95.7292 43.7061C95.0979 43.7061 94.5228 43.5504 94.0039 43.2391C93.4937 42.9278 93.0915 42.491 92.7975 41.9289C92.5035 41.3668 92.3564 40.7268 92.3564 40.009ZM98.3756 40.022C98.3756 39.4858 98.2675 39.0188 98.0513 38.621C97.8351 38.2231 97.541 37.9204 97.1692 37.7129C96.8059 37.4967 96.4038 37.3886 95.9627 37.3886C95.5217 37.3886 95.1195 37.4924 94.7563 37.6999C94.3931 37.9075 94.1034 38.2102 93.8872 38.608C93.671 39.0058 93.5629 39.4728 93.5629 40.009C93.5629 40.5538 93.671 41.0295 93.8872 41.4359C94.1034 41.8338 94.3931 42.1408 94.7563 42.357C95.1195 42.5645 95.5217 42.6683 95.9627 42.6683C96.4038 42.6683 96.8059 42.5645 97.1692 42.357C97.541 42.1408 97.8351 41.8338 98.0513 41.4359C98.2675 41.0295 98.3756 40.5581 98.3756 40.022Z" fill="#829DB6"/>
<path d="M104.236 40.009C104.236 39.2825 104.383 38.6469 104.677 38.1021C104.971 37.5486 105.373 37.1205 105.884 36.8178C106.403 36.5151 106.978 36.3638 107.609 36.3638C108.232 36.3638 108.772 36.4978 109.231 36.7659C109.689 37.034 110.031 37.3713 110.255 37.7778V36.4805H111.449V43.5893H110.255V42.2662C110.022 42.6813 109.672 43.0272 109.205 43.3039C108.746 43.572 108.21 43.7061 107.596 43.7061C106.965 43.7061 106.394 43.5504 105.884 43.2391C105.373 42.9278 104.971 42.491 104.677 41.9289C104.383 41.3668 104.236 40.7268 104.236 40.009ZM110.255 40.022C110.255 39.4858 110.147 39.0188 109.931 38.621C109.715 38.2231 109.421 37.9204 109.049 37.7129C108.686 37.4967 108.284 37.3886 107.843 37.3886C107.401 37.3886 106.999 37.4924 106.636 37.6999C106.273 37.9075 105.983 38.2102 105.767 38.608C105.551 39.0058 105.443 39.4728 105.443 40.009C105.443 40.5538 105.551 41.0295 105.767 41.4359C105.983 41.8338 106.273 42.1408 106.636 42.357C106.999 42.5645 107.401 42.6683 107.843 42.6683C108.284 42.6683 108.686 42.5645 109.049 42.357C109.421 42.1408 109.715 41.8338 109.931 41.4359C110.147 41.0295 110.255 40.5581 110.255 40.022Z" fill="#829DB6"/>
<path d="M117.997 37.4534V41.6435C117.997 41.9894 118.07 42.2359 118.218 42.3829C118.365 42.5213 118.62 42.5905 118.983 42.5905H119.852V43.5893H118.788C118.131 43.5893 117.638 43.438 117.309 43.1353C116.981 42.8326 116.817 42.3353 116.817 41.6435V37.4534H115.895V36.4805H116.817V34.6903H117.997V36.4805H119.852V37.4534H117.997Z" fill="#829DB6"/>
<path d="M123.955 40.009C123.955 39.2825 124.102 38.6469 124.396 38.1021C124.69 37.5486 125.092 37.1205 125.602 36.8178C126.121 36.5151 126.696 36.3638 127.327 36.3638C127.95 36.3638 128.491 36.4978 128.949 36.7659C129.407 37.034 129.749 37.3713 129.974 37.7778V36.4805H131.167V43.5893H129.974V42.2662C129.74 42.6813 129.39 43.0272 128.923 43.3039C128.465 43.572 127.928 43.7061 127.314 43.7061C126.683 43.7061 126.112 43.5504 125.602 43.2391C125.092 42.9278 124.69 42.491 124.396 41.9289C124.102 41.3668 123.955 40.7268 123.955 40.009ZM129.974 40.022C129.974 39.4858 129.866 39.0188 129.649 38.621C129.433 38.2231 129.139 37.9204 128.767 37.7129C128.404 37.4967 128.002 37.3886 127.561 37.3886C127.12 37.3886 126.718 37.4924 126.354 37.6999C125.991 37.9075 125.702 38.2102 125.485 38.608C125.269 39.0058 125.161 39.4728 125.161 40.009C125.161 40.5538 125.269 41.0295 125.485 41.4359C125.702 41.8338 125.991 42.1408 126.354 42.357C126.718 42.5645 127.12 42.6683 127.561 42.6683C128.002 42.6683 128.404 42.5645 128.767 42.357C129.139 42.1408 129.433 41.8338 129.649 41.4359C129.866 41.0295 129.974 40.5581 129.974 40.022Z" fill="#829DB6"/>
<path d="M141.205 38.3356V39.3344H136.029V38.3356H141.205Z" fill="#829DB6"/>
<path d="M146.093 40.009C146.093 39.2825 146.24 38.6469 146.534 38.1021C146.828 37.5486 147.23 37.1205 147.74 36.8178C148.259 36.5151 148.838 36.3638 149.478 36.3638C150.032 36.3638 150.546 36.4935 151.022 36.7529C151.498 37.0037 151.861 37.3367 152.112 37.7518V33.9898H153.305V43.5893H152.112V42.2532C151.878 42.677 151.532 43.0272 151.074 43.3039C150.616 43.572 150.079 43.7061 149.465 43.7061C148.834 43.7061 148.259 43.5504 147.74 43.2391C147.23 42.9278 146.828 42.491 146.534 41.9289C146.24 41.3668 146.093 40.7268 146.093 40.009ZM152.112 40.022C152.112 39.4858 152.004 39.0188 151.787 38.621C151.571 38.2231 151.277 37.9204 150.905 37.7129C150.542 37.4967 150.14 37.3886 149.699 37.3886C149.258 37.3886 148.856 37.4924 148.493 37.6999C148.129 37.9075 147.84 38.2102 147.623 38.608C147.407 39.0058 147.299 39.4728 147.299 40.009C147.299 40.5538 147.407 41.0295 147.623 41.4359C147.84 41.8338 148.129 42.1408 148.493 42.357C148.856 42.5645 149.258 42.6683 149.699 42.6683C150.14 42.6683 150.542 42.5645 150.905 42.357C151.277 42.1408 151.571 41.8338 151.787 41.4359C152.004 41.0295 152.112 40.5581 152.112 40.022Z" fill="#829DB6"/>
<path d="M159.594 37.6351C159.802 37.2286 160.096 36.9129 160.476 36.6881C160.865 36.4632 161.337 36.3508 161.89 36.3508V37.5702H161.579C160.256 37.5702 159.594 38.288 159.594 39.7236V43.5893H158.413V36.4805H159.594V37.6351Z" fill="#829DB6"/>
<path d="M166.976 35.326C166.751 35.326 166.561 35.2482 166.405 35.0925C166.249 34.9368 166.172 34.7466 166.172 34.5217C166.172 34.2969 166.249 34.1066 166.405 33.9509C166.561 33.7953 166.751 33.7174 166.976 33.7174C167.192 33.7174 167.374 33.7953 167.521 33.9509C167.676 34.1066 167.754 34.2969 167.754 34.5217C167.754 34.7466 167.676 34.9368 167.521 35.0925C167.374 35.2482 167.192 35.326 166.976 35.326ZM167.547 36.4805V43.5893H166.366V36.4805H167.547Z" fill="#829DB6"/>
<path d="M175.318 42.4997L177.523 36.4805H178.782L175.993 43.5893H174.618L171.829 36.4805H173.1L175.318 42.4997Z" fill="#829DB6"/>
<path d="M189.543 39.7625C189.543 39.9874 189.53 40.2252 189.504 40.476H183.822C183.865 41.1765 184.103 41.7257 184.536 42.1235C184.977 42.5126 185.509 42.7072 186.131 42.7072C186.641 42.7072 187.065 42.5905 187.402 42.357C187.748 42.1148 187.991 41.7948 188.129 41.397H189.4C189.21 42.0802 188.829 42.638 188.259 43.0704C187.688 43.4942 186.979 43.7061 186.131 43.7061C185.457 43.7061 184.851 43.5547 184.315 43.2521C183.788 42.9494 183.372 42.5213 183.07 41.9678C182.767 41.4057 182.616 40.7571 182.616 40.022C182.616 39.2869 182.763 38.6426 183.057 38.0891C183.351 37.5356 183.762 37.1118 184.289 36.8178C184.825 36.5151 185.439 36.3638 186.131 36.3638C186.806 36.3638 187.402 36.5108 187.921 36.8048C188.44 37.0989 188.838 37.5053 189.115 38.0242C189.4 38.5345 189.543 39.1139 189.543 39.7625ZM188.324 39.516C188.324 39.0663 188.224 38.6815 188.025 38.3615C187.826 38.0329 187.554 37.7864 187.208 37.6221C186.871 37.4491 186.494 37.3626 186.079 37.3626C185.483 37.3626 184.972 37.5529 184.549 37.9334C184.133 38.3139 183.896 38.8415 183.835 39.516H188.324Z" fill="#829DB6"/>
<path d="M197.678 36.3508C198.543 36.3508 199.243 36.6146 199.78 37.1421C200.316 37.661 200.584 38.4134 200.584 39.3993V43.5893H199.416V39.5679C199.416 38.8588 199.239 38.3183 198.884 37.9464C198.53 37.5659 198.046 37.3756 197.432 37.3756C196.809 37.3756 196.312 37.5702 195.94 37.9594C195.577 38.3485 195.395 38.915 195.395 39.6587V43.5893H194.214V36.4805H195.395V37.4924C195.628 37.1291 195.944 36.8481 196.342 36.6492C196.748 36.4503 197.194 36.3508 197.678 36.3508Z" fill="#829DB6"/>
<path d="M213.676 44.9644H212.496V33.2764H213.676V44.9644Z" fill="#829DB6"/>
<path d="M228.55 37.4534H227.059V43.5893H225.878V37.4534H224.957V36.4805H225.878V35.9746C225.878 35.179 226.081 34.5995 226.488 34.2363C226.903 33.8644 227.564 33.6785 228.473 33.6785V34.6644C227.954 34.6644 227.586 34.7682 227.37 34.9757C227.162 35.1746 227.059 35.5076 227.059 35.9746V36.4805H228.55V37.4534Z" fill="#829DB6"/>
<path d="M239.345 36.4805V43.5893H238.164V42.5386C237.939 42.9018 237.624 43.1872 237.217 43.3948C236.819 43.5937 236.378 43.6931 235.894 43.6931C235.341 43.6931 234.843 43.5807 234.402 43.3558C233.961 43.1223 233.611 42.7764 233.351 42.3181C233.101 41.8597 232.975 41.3019 232.975 40.6446V36.4805H234.143V40.489C234.143 41.1895 234.32 41.73 234.675 42.1105C235.029 42.4824 235.514 42.6683 236.128 42.6683C236.759 42.6683 237.256 42.4737 237.619 42.0846C237.983 41.6954 238.164 41.1289 238.164 40.3852V36.4805H239.345Z" fill="#829DB6"/>
<path d="M245.632 33.9898V43.5893H244.451V33.9898H245.632Z" fill="#829DB6"/>
<path d="M251.937 33.9898V43.5893H250.757V33.9898H251.937Z" fill="#829DB6"/>
<path d="M261.992 38.3356V39.3344H256.816V38.3356H261.992Z" fill="#829DB6"/>
<path d="M270.214 37.4534H268.722V43.5893H267.541V37.4534H266.62V36.4805H267.541V35.9746C267.541 35.179 267.745 34.5995 268.151 34.2363C268.566 33.8644 269.228 33.6785 270.136 33.6785V34.6644C269.617 34.6644 269.249 34.7682 269.033 34.9757C268.826 35.1746 268.722 35.5076 268.722 35.9746V36.4805H270.214V37.4534Z" fill="#829DB6"/>
<path d="M281.008 36.4805V43.5893H279.828V42.5386C279.603 42.9018 279.287 43.1872 278.881 43.3948C278.483 43.5937 278.042 43.6931 277.557 43.6931C277.004 43.6931 276.507 43.5807 276.066 43.3558C275.624 43.1223 275.274 42.7764 275.015 42.3181C274.764 41.8597 274.639 41.3019 274.639 40.6446V36.4805H275.806V40.489C275.806 41.1895 275.983 41.73 276.338 42.1105C276.693 42.4824 277.177 42.6683 277.791 42.6683C278.422 42.6683 278.919 42.4737 279.283 42.0846C279.646 41.6954 279.828 41.1289 279.828 40.3852V36.4805H281.008Z" fill="#829DB6"/>
<path d="M289.578 36.3508C290.443 36.3508 291.143 36.6146 291.68 37.1421C292.216 37.661 292.484 38.4134 292.484 39.3993V43.5893H291.316V39.5679C291.316 38.8588 291.139 38.3183 290.785 37.9464C290.43 37.5659 289.946 37.3756 289.332 37.3756C288.709 37.3756 288.212 37.5702 287.84 37.9594C287.477 38.3485 287.295 38.915 287.295 39.6587V43.5893H286.115V36.4805H287.295V37.4924C287.528 37.1291 287.844 36.8481 288.242 36.6492C288.648 36.4503 289.094 36.3508 289.578 36.3508Z" fill="#829DB6"/>
<path d="M300.989 36.3508C301.854 36.3508 302.554 36.6146 303.091 37.1421C303.627 37.661 303.895 38.4134 303.895 39.3993V43.5893H302.727V39.5679C302.727 38.8588 302.55 38.3183 302.196 37.9464C301.841 37.5659 301.357 37.3756 300.743 37.3756C300.12 37.3756 299.623 37.5702 299.251 37.9594C298.888 38.3485 298.706 38.915 298.706 39.6587V43.5893H297.526V36.4805H298.706V37.4924C298.94 37.1291 299.255 36.8481 299.653 36.6492C300.059 36.4503 300.505 36.3508 300.989 36.3508Z" fill="#829DB6"/>
<path d="M315.423 39.7625C315.423 39.9874 315.41 40.2252 315.384 40.476H309.702C309.745 41.1765 309.983 41.7257 310.415 42.1235C310.857 42.5126 311.388 42.7072 312.011 42.7072C312.521 42.7072 312.945 42.5905 313.282 42.357C313.628 42.1148 313.87 41.7948 314.009 41.397H315.28C315.09 42.0802 314.709 42.638 314.139 43.0704C313.568 43.4942 312.859 43.7061 312.011 43.7061C311.336 43.7061 310.731 43.5547 310.195 43.2521C309.667 42.9494 309.252 42.5213 308.95 41.9678C308.647 41.4057 308.496 40.7571 308.496 40.022C308.496 39.2869 308.643 38.6426 308.937 38.0891C309.231 37.5356 309.641 37.1118 310.169 36.8178C310.705 36.5151 311.319 36.3638 312.011 36.3638C312.686 36.3638 313.282 36.5108 313.801 36.8048C314.32 37.0989 314.718 37.5053 314.995 38.0242C315.28 38.5345 315.423 39.1139 315.423 39.7625ZM314.203 39.516C314.203 39.0663 314.104 38.6815 313.905 38.3615C313.706 38.0329 313.434 37.7864 313.088 37.6221C312.75 37.4491 312.374 37.3626 311.959 37.3626C311.362 37.3626 310.852 37.5529 310.428 37.9334C310.013 38.3139 309.775 38.8415 309.715 39.516H314.203Z" fill="#829DB6"/>
<path d="M321.275 33.9898V43.5893H320.094V33.9898H321.275Z" fill="#829DB6"/>
</g>
<g id="azarianGrowthAgency">
<path d="M101.744 22.955H95.6303L94.6187 25.88H91.3857L96.9059 10.5071H100.491L106.011 25.88H102.756L101.744 22.955ZM100.909 20.4918L98.6873 14.0699L96.4661 20.4918H100.909Z" fill="white"/>
<path d="M109.79 23.3509H115.222V25.88H106.293V23.3948L111.615 16.2252H106.315V13.696H115.156V16.1812L109.79 23.3509Z" fill="white"/>
<path d="M115.715 19.744C115.715 18.5124 115.956 17.4201 116.44 16.4671C116.939 15.5141 117.606 14.781 118.442 14.2678C119.292 13.7547 120.238 13.4981 121.279 13.4981C122.188 13.4981 122.979 13.6814 123.654 14.0479C124.343 14.4145 124.893 14.8763 125.303 15.4335V13.696H128.404V25.88H125.303V24.0986C124.908 24.6704 124.358 25.1469 123.654 25.5281C122.965 25.8947 122.166 26.078 121.257 26.078C120.23 26.078 119.292 25.814 118.442 25.2862C117.606 24.7584 116.939 24.018 116.44 23.0649C115.956 22.0973 115.715 20.9903 115.715 19.744ZM125.303 19.788C125.303 19.0403 125.157 18.4025 124.864 17.8747C124.57 17.3322 124.174 16.9216 123.676 16.6431C123.177 16.3498 122.642 16.2032 122.07 16.2032C121.499 16.2032 120.971 16.3425 120.487 16.6211C120.003 16.8996 119.607 17.3102 119.299 17.8527C119.006 18.3805 118.86 19.0109 118.86 19.744C118.86 20.4771 119.006 21.1223 119.299 21.6794C119.607 22.2219 120.003 22.6398 120.487 22.933C120.985 23.2262 121.513 23.3728 122.07 23.3728C122.642 23.3728 123.177 23.2336 123.676 22.955C124.174 22.6617 124.57 22.2512 124.864 21.7234C125.157 21.1809 125.303 20.5358 125.303 19.788Z" fill="white"/>
<path d="M133.391 15.5874C133.787 14.9423 134.3 14.4365 134.93 14.0699C135.575 13.7034 136.309 13.5201 137.13 13.5201V16.753H136.316C135.348 16.753 134.615 16.9803 134.117 17.4348C133.633 17.8893 133.391 18.6811 133.391 19.81V25.88H130.312V13.696H133.391V15.5874Z" fill="white"/>
<path d="M139.665 12.2445C139.123 12.2445 138.668 12.0759 138.302 11.7387C137.95 11.3868 137.774 10.9543 137.774 10.4411C137.774 9.92794 137.95 9.50274 138.302 9.16552C138.668 8.81364 139.123 8.6377 139.665 8.6377C140.208 8.6377 140.655 8.81364 141.007 9.16552C141.373 9.50274 141.557 9.92794 141.557 10.4411C141.557 10.9543 141.373 11.3868 141.007 11.7387C140.655 12.0759 140.208 12.2445 139.665 12.2445ZM141.183 13.696V25.88H138.104V13.696H141.183Z" fill="white"/>
<path d="M142.334 19.744C142.334 18.5124 142.575 17.4201 143.059 16.4671C143.558 15.5141 144.225 14.781 145.061 14.2678C145.911 13.7547 146.857 13.4981 147.898 13.4981C148.807 13.4981 149.598 13.6814 150.273 14.0479C150.962 14.4145 151.512 14.8763 151.922 15.4335V13.696H155.023V25.88H151.922V24.0986C151.526 24.6704 150.977 25.1469 150.273 25.5281C149.584 25.8947 148.785 26.078 147.876 26.078C146.849 26.078 145.911 25.814 145.061 25.2862C144.225 24.7584 143.558 24.018 143.059 23.0649C142.575 22.0973 142.334 20.9903 142.334 19.744ZM151.922 19.788C151.922 19.0403 151.776 18.4025 151.482 17.8747C151.189 17.3322 150.793 16.9216 150.295 16.6431C149.796 16.3498 149.261 16.2032 148.689 16.2032C148.118 16.2032 147.59 16.3425 147.106 16.6211C146.622 16.8996 146.226 17.3102 145.918 17.8527C145.625 18.3805 145.478 19.0109 145.478 19.744C145.478 20.4771 145.625 21.1223 145.918 21.6794C146.226 22.2219 146.622 22.6398 147.106 22.933C147.604 23.2262 148.132 23.3728 148.689 23.3728C149.261 23.3728 149.796 23.2336 150.295 22.955C150.793 22.6617 151.189 22.2512 151.482 21.7234C151.776 21.1809 151.922 20.5358 151.922 19.788Z" fill="white"/>
<path d="M163.683 13.5201C165.134 13.5201 166.307 13.9819 167.201 14.9056C168.096 15.8147 168.543 17.0902 168.543 18.7324V25.88H165.464V19.1502C165.464 18.1826 165.222 17.4421 164.738 16.929C164.254 16.4011 163.595 16.1372 162.759 16.1372C161.909 16.1372 161.234 16.4011 160.736 16.929C160.252 17.4421 160.01 18.1826 160.01 19.1502V25.88H156.931V13.696H160.01V15.2135C160.42 14.6857 160.941 14.2752 161.571 13.9819C162.216 13.674 162.92 13.5201 163.683 13.5201Z" fill="white"/>
<path d="M181.06 15.1476C180.708 14.5024 180.224 14.0113 179.608 13.674C178.993 13.3368 178.274 13.1682 177.453 13.1682C176.544 13.1682 175.738 13.3735 175.034 13.784C174.33 14.1945 173.78 14.781 173.384 15.5434C172.988 16.3058 172.791 17.1855 172.791 18.1826C172.791 19.2089 172.988 20.1033 173.384 20.8657C173.795 21.6281 174.359 22.2146 175.078 22.6251C175.796 23.0356 176.632 23.2409 177.585 23.2409C178.758 23.2409 179.718 22.933 180.466 22.3172C181.214 21.6867 181.705 20.8144 181.94 19.7001H176.661V17.3468H184.975V20.0299C184.769 21.1003 184.329 22.0899 183.655 22.999C182.981 23.908 182.108 24.6411 181.038 25.1982C179.982 25.7407 178.795 26.012 177.475 26.012C175.994 26.012 174.653 25.6821 173.45 25.0223C172.263 24.3479 171.324 23.4168 170.635 22.2292C169.961 21.0416 169.624 19.6927 169.624 18.1826C169.624 16.6724 169.961 15.3235 170.635 14.1359C171.324 12.9336 172.263 12.0026 173.45 11.3428C174.653 10.6684 175.987 10.3311 177.453 10.3311C179.183 10.3311 180.686 10.7563 181.962 11.6067C183.237 12.4424 184.117 13.6227 184.601 15.1476H181.06Z" fill="#1BFED1"/>
<path d="M189.232 15.5874C189.628 14.9423 190.141 14.4365 190.771 14.0699C191.416 13.7034 192.15 13.5201 192.971 13.5201V16.753H192.157C191.189 16.753 190.456 16.9803 189.958 17.4348C189.474 17.8893 189.232 18.6811 189.232 19.81V25.88H186.153V13.696H189.232V15.5874Z" fill="#1BFED1"/>
<path d="M199.355 26.078C198.182 26.078 197.126 25.8214 196.188 25.3082C195.25 24.7804 194.509 24.04 193.967 23.0869C193.439 22.1339 193.175 21.0343 193.175 19.788C193.175 18.5418 193.446 17.4421 193.989 16.4891C194.546 15.5361 195.301 14.803 196.254 14.2898C197.207 13.762 198.27 13.4981 199.443 13.4981C200.616 13.4981 201.679 13.762 202.632 14.2898C203.585 14.803 204.333 15.5361 204.875 16.4891C205.432 17.4421 205.711 18.5418 205.711 19.788C205.711 21.0343 205.425 22.1339 204.853 23.0869C204.296 24.04 203.534 24.7804 202.566 25.3082C201.613 25.8214 200.543 26.078 199.355 26.078ZM199.355 23.3948C199.912 23.3948 200.433 23.2629 200.917 22.999C201.415 22.7204 201.811 22.3099 202.104 21.7674C202.397 21.2249 202.544 20.5651 202.544 19.788C202.544 18.6297 202.236 17.7427 201.62 17.1269C201.019 16.4964 200.279 16.1812 199.399 16.1812C198.519 16.1812 197.779 16.4964 197.178 17.1269C196.591 17.7427 196.298 18.6297 196.298 19.788C196.298 20.9463 196.584 21.8407 197.156 22.4711C197.742 23.0869 198.475 23.3948 199.355 23.3948Z" fill="#1BFED1"/>
<path d="M223.76 13.696L220.197 25.88H216.877L214.655 17.3688L212.434 25.88H209.091L205.506 13.696H208.629L210.785 22.977L213.116 13.696H216.371L218.658 22.955L220.813 13.696H223.76Z" fill="#1BFED1"/>
<path d="M227.911 16.2252V22.1193C227.911 22.5298 228.007 22.8304 228.197 23.021C228.403 23.1969 228.74 23.2849 229.209 23.2849H230.639V25.88H228.703C226.108 25.88 224.81 24.6191 224.81 22.0973V16.2252H223.359V13.696H224.81V10.683H227.911V13.696H230.639V16.2252H227.911Z" fill="#1BFED1"/>
<path d="M238.615 13.5201C239.539 13.5201 240.36 13.7254 241.078 14.1359C241.797 14.5318 242.354 15.1256 242.75 15.9173C243.16 16.6944 243.366 17.6327 243.366 18.7324V25.88H240.287V19.1502C240.287 18.1826 240.045 17.4421 239.561 16.929C239.077 16.4011 238.417 16.1372 237.582 16.1372C236.731 16.1372 236.057 16.4011 235.558 16.929C235.074 17.4421 234.832 18.1826 234.832 19.1502V25.88H231.753V9.60538H234.832V15.2135C235.228 14.6857 235.756 14.2752 236.416 13.9819C237.076 13.674 237.809 13.5201 238.615 13.5201Z" fill="#1BFED1"/>
<path d="M254.607 22.955H248.493L247.481 25.88H244.248L249.768 10.5071H253.353L258.873 25.88H255.619L254.607 22.955ZM253.771 20.4918L251.55 14.0699L249.329 20.4918H253.771Z" fill="white"/>
<path d="M264.61 13.4981C265.519 13.4981 266.318 13.6814 267.007 14.0479C267.696 14.3998 268.238 14.8616 268.634 15.4335V13.696H271.735V25.968C271.735 27.097 271.508 28.1013 271.054 28.981C270.599 29.8754 269.917 30.5791 269.008 31.0923C268.099 31.6201 267 31.884 265.709 31.884C263.979 31.884 262.557 31.4808 261.443 30.6744C260.343 29.868 259.72 28.7684 259.573 27.3755H262.63C262.792 27.9327 263.136 28.3725 263.664 28.6951C264.206 29.0323 264.859 29.2009 265.621 29.2009C266.516 29.2009 267.241 28.9297 267.799 28.3872C268.356 27.8594 268.634 27.053 268.634 25.968V24.0766C268.238 24.6484 267.689 25.1249 266.985 25.5061C266.296 25.8873 265.504 26.078 264.61 26.078C263.583 26.078 262.645 25.814 261.795 25.2862C260.944 24.7584 260.27 24.018 259.771 23.0649C259.287 22.0973 259.045 20.9903 259.045 19.744C259.045 18.5124 259.287 17.4201 259.771 16.4671C260.27 15.5141 260.937 14.781 261.773 14.2678C262.623 13.7547 263.569 13.4981 264.61 13.4981ZM268.634 19.788C268.634 19.0403 268.488 18.4025 268.194 17.8747C267.901 17.3322 267.505 16.9216 267.007 16.6431C266.508 16.3498 265.973 16.2032 265.401 16.2032C264.83 16.2032 264.302 16.3425 263.818 16.6211C263.334 16.8996 262.938 17.3102 262.63 17.8527C262.337 18.3805 262.19 19.0109 262.19 19.744C262.19 20.4771 262.337 21.1223 262.63 21.6794C262.938 22.2219 263.334 22.6398 263.818 22.933C264.316 23.2262 264.844 23.3728 265.401 23.3728C265.973 23.3728 266.508 23.2336 267.007 22.955C267.505 22.6617 267.901 22.2512 268.194 21.7234C268.488 21.1809 268.634 20.5358 268.634 19.788Z" fill="white"/>
<path d="M284.969 19.5241C284.969 19.964 284.94 20.3598 284.881 20.7117H275.974C276.047 21.5914 276.355 22.2805 276.898 22.779C277.44 23.2775 278.107 23.5268 278.899 23.5268C280.043 23.5268 280.856 23.0356 281.34 22.0533H284.661C284.309 23.2262 283.635 24.1939 282.638 24.9563C281.641 25.7041 280.417 26.078 278.965 26.078C277.792 26.078 276.736 25.8214 275.798 25.3082C274.874 24.7804 274.149 24.04 273.621 23.0869C273.108 22.1339 272.851 21.0343 272.851 19.788C272.851 18.5271 273.108 17.4201 273.621 16.4671C274.134 15.5141 274.852 14.781 275.776 14.2678C276.7 13.7547 277.763 13.4981 278.965 13.4981C280.123 13.4981 281.157 13.7473 282.066 14.2458C282.99 14.7444 283.701 15.4555 284.199 16.3791C284.713 17.2882 284.969 18.3365 284.969 19.5241ZM281.78 18.6444C281.765 17.8527 281.48 17.2222 280.922 16.753C280.365 16.2692 279.683 16.0273 278.877 16.0273C278.115 16.0273 277.47 16.2619 276.942 16.731C276.429 17.1855 276.113 17.8233 275.996 18.6444H281.78Z" fill="white"/>
<path d="M292.869 13.5201C294.32 13.5201 295.493 13.9819 296.387 14.9056C297.282 15.8147 297.729 17.0902 297.729 18.7324V25.88H294.65V19.1502C294.65 18.1826 294.408 17.4421 293.924 16.929C293.44 16.4011 292.781 16.1372 291.945 16.1372C291.095 16.1372 290.42 16.4011 289.922 16.929C289.438 17.4421 289.196 18.1826 289.196 19.1502V25.88H286.117V13.696H289.196V15.2135C289.606 14.6857 290.127 14.2752 290.757 13.9819C291.402 13.674 292.106 13.5201 292.869 13.5201Z" fill="white"/>
<path d="M298.766 19.788C298.766 18.5271 299.022 17.4275 299.535 16.4891C300.049 15.5361 300.76 14.803 301.669 14.2898C302.578 13.762 303.619 13.4981 304.792 13.4981C306.302 13.4981 307.548 13.8793 308.53 14.6417C309.527 15.3895 310.195 16.4451 310.532 17.8087H307.211C307.035 17.2808 306.734 16.8703 306.309 16.5771C305.899 16.2692 305.385 16.1152 304.77 16.1152C303.89 16.1152 303.193 16.4378 302.68 17.0829C302.167 17.7134 301.911 18.6151 301.911 19.788C301.911 20.9463 302.167 21.848 302.68 22.4931C303.193 23.1236 303.89 23.4388 304.77 23.4388C306.016 23.4388 306.83 22.8817 307.211 21.7674H310.532C310.195 23.0869 309.527 24.1353 308.53 24.9123C307.533 25.6894 306.287 26.078 304.792 26.078C303.619 26.078 302.578 25.8214 301.669 25.3082C300.76 24.7804 300.049 24.0473 299.535 23.1089C299.022 22.1559 298.766 21.0489 298.766 19.788Z" fill="white"/>
<path d="M323.344 13.696L315.8 31.6421H312.523L315.163 25.5721L310.28 13.696H313.733L316.878 22.2072L320.067 13.696H323.344Z" fill="white"/>
</g>
</g>
</svg>
