<svg preserveAspectRatio="xMidYMid meet" width="24" height="24" overflow="visible" style="display: block;" viewBox="0 0 24 24" fill="none" xmlns="http://www.w3.org/2000/svg">
<g id="Media / Social icon">
<path id="bg" d="M0 12C0 18.6274 5.37258 24 12 24C18.6274 24 24 18.6274 24 12C24 5.37258 18.6274 0 12 0C5.37258 0 0 5.37258 0 12Z" fill="#063B6D"/>
<path id="youtube" d="M17.7 9.075C17.55 8.55 17.175 8.175 16.65 8.025C15.75 7.8 11.925 7.8 11.925 7.8C11.925 7.8 8.175 7.8 7.2 8.025C6.675 8.175 6.3 8.55 6.15 9.075C6 10.05 6 12 6 12C6 12 6 13.95 6.225 14.925C6.375 15.45 6.75 15.825 7.275 15.975C8.175 16.2 12 16.2 12 16.2C12 16.2 15.75 16.2 16.725 15.975C17.25 15.825 17.625 15.45 17.775 14.925C18 13.95 18 12 18 12C18 12 18 10.05 17.7 9.075ZM10.8 13.8V10.2L13.95 12L10.8 13.8Z" fill="#E6EBF0"/>
</g>
</svg>
