<svg preserveAspectRatio="xMidYMid meet" width="24" height="24" overflow="visible" style="display: block;" viewBox="0 0 24 24" fill="none" xmlns="http://www.w3.org/2000/svg">
<g id="Media / Social icon">
<path id="bg" d="M0 12C0 18.6274 5.37258 24 12 24C18.6274 24 24 18.6274 24 12C24 5.37258 18.6274 0 12 0C5.37258 0 0 5.37258 0 12Z" fill="#063B6D"/>
<g id="instagram">
<path d="M12 6.90039C13.65 6.90039 13.875 6.90039 14.55 6.90039C15.15 6.90039 15.45 7.05039 15.675 7.12539C15.975 7.27539 16.2 7.35039 16.425 7.57539C16.65 7.80039 16.8 8.02539 16.875 8.32539C16.95 8.55039 17.025 8.85039 17.1 9.45039C17.1 10.1254 17.1 10.2754 17.1 12.0004C17.1 13.7254 17.1 13.8754 17.1 14.5504C17.1 15.1504 16.95 15.4504 16.875 15.6754C16.725 15.9754 16.65 16.2004 16.425 16.4254C16.2 16.6504 15.975 16.8004 15.675 16.8754C15.45 16.9504 15.15 17.0254 14.55 17.1004C13.875 17.1004 13.725 17.1004 12 17.1004C10.275 17.1004 10.125 17.1004 9.45002 17.1004C8.85002 17.1004 8.55002 16.9504 8.32502 16.8754C8.02502 16.7254 7.80002 16.6504 7.57502 16.4254C7.35002 16.2004 7.20002 15.9754 7.12502 15.6754C7.05002 15.4504 6.97502 15.1504 6.90002 14.5504C6.90002 13.8754 6.90002 13.7254 6.90002 12.0004C6.90002 10.2754 6.90002 10.1254 6.90002 9.45039C6.90002 8.85039 7.05002 8.55039 7.12502 8.32539C7.27502 8.02539 7.35002 7.80039 7.57502 7.57539C7.80002 7.35039 8.02502 7.20039 8.32502 7.12539C8.55002 7.05039 8.85002 6.97539 9.45002 6.90039C10.125 6.90039 10.35 6.90039 12 6.90039ZM12 5.77539C10.275 5.77539 10.125 5.77539 9.45002 5.77539C8.77502 5.77539 8.32502 5.92539 7.95002 6.07539C7.57502 6.22539 7.20002 6.45039 6.82502 6.82539C6.45002 7.20039 6.30002 7.50039 6.07502 7.95039C5.92502 8.32539 5.85002 8.77539 5.77502 9.45039C5.77502 10.1254 5.77502 10.3504 5.77502 12.0004C5.77502 13.7254 5.77502 13.8754 5.77502 14.5504C5.77502 15.2254 5.92502 15.6754 6.07502 16.0504C6.22502 16.4254 6.45002 16.8004 6.82502 17.1754C7.20002 17.5504 7.50002 17.7004 7.95002 17.9254C8.32502 18.0754 8.77502 18.1504 9.45002 18.2254C10.125 18.2254 10.35 18.2254 12 18.2254C13.65 18.2254 13.875 18.2254 14.55 18.2254C15.225 18.2254 15.675 18.0754 16.05 17.9254C16.425 17.7754 16.8 17.5504 17.175 17.1754C17.55 16.8004 17.7 16.5004 17.925 16.0504C18.075 15.6754 18.15 15.2254 18.225 14.5504C18.225 13.8754 18.225 13.6504 18.225 12.0004C18.225 10.3504 18.225 10.1254 18.225 9.45039C18.225 8.77539 18.075 8.32539 17.925 7.95039C17.775 7.57539 17.55 7.20039 17.175 6.82539C16.8 6.45039 16.5 6.30039 16.05 6.07539C15.675 5.92539 15.225 5.85039 14.55 5.77539C13.875 5.77539 13.725 5.77539 12 5.77539Z" fill="#E6EBF0"/>
<path d="M12 8.77539C10.2 8.77539 8.77502 10.2004 8.77502 12.0004C8.77502 13.8004 10.2 15.2254 12 15.2254C13.8 15.2254 15.225 13.8004 15.225 12.0004C15.225 10.2004 13.8 8.77539 12 8.77539ZM12 14.1004C10.875 14.1004 9.90002 13.2004 9.90002 12.0004C9.90002 10.8754 10.8 9.90039 12 9.90039C13.125 9.90039 14.1 10.8004 14.1 12.0004C14.1 13.1254 13.125 14.1004 12 14.1004Z" fill="#E6EBF0"/>
<path d="M15.3 9.45039C15.7142 9.45039 16.05 9.1146 16.05 8.70039C16.05 8.28618 15.7142 7.95039 15.3 7.95039C14.8858 7.95039 14.55 8.28618 14.55 8.70039C14.55 9.1146 14.8858 9.45039 15.3 9.45039Z" fill="#E6EBF0"/>
</g>
</g>
</svg>
