<svg preserveAspectRatio="xMidYMid meet"  overflow="visible" style="display: block;" viewBox="0 0 478.381 24.5449" fill="none" xmlns="http://www.w3.org/2000/svg">
<g id="Data-Driven | Full-Funnel">
<path d="M0 14.1385C0 12.613 0.307233 11.2781 0.921698 10.134C1.53616 8.97164 2.37654 8.07266 3.44281 7.43701C4.52717 6.80137 5.73802 6.48355 7.07539 6.48355C8.23203 6.48355 9.30735 6.75597 10.3013 7.3008C11.2953 7.82748 12.0544 8.52669 12.5785 9.39842V1.4983H15.0725V21.6572H12.5785V18.8513C12.0905 19.7412 11.3676 20.4768 10.4098 21.0579C9.45193 21.6209 8.33143 21.9024 7.04828 21.9024C5.72899 21.9024 4.52717 21.5755 3.44281 20.9217C2.37654 20.2679 1.53616 19.3508 0.921698 18.1703C0.307233 16.9898 0 15.6459 0 14.1385ZM12.5785 14.1657C12.5785 13.0397 12.3526 12.059 11.9008 11.2236C11.4489 10.3882 10.8345 9.75257 10.0574 9.3167C9.29831 8.86267 8.45794 8.63565 7.53624 8.63565C6.61454 8.63565 5.77417 8.85359 5.01512 9.28946C4.25608 9.72533 3.65065 10.361 3.19884 11.1964C2.74702 12.0318 2.52112 13.0125 2.52112 14.1385C2.52112 15.2827 2.74702 16.2815 3.19884 17.1351C3.65065 17.9705 4.25608 18.6152 5.01512 19.0693C5.77417 19.5051 6.61454 19.7231 7.53624 19.7231C8.45794 19.7231 9.29831 19.5051 10.0574 19.0693C10.8345 18.6152 11.4489 17.9705 11.9008 17.1351C12.3526 16.2815 12.5785 15.2917 12.5785 14.1657Z" fill="#829DB6"/>
<path d="M24.8257 14.1385C24.8257 12.613 25.1329 11.2781 25.7474 10.134C26.3619 8.97164 27.2022 8.07266 28.2685 7.43701C29.3529 6.80137 30.5547 6.48355 31.874 6.48355C33.1752 6.48355 34.3047 6.76505 35.2626 7.32805C36.2204 7.89104 36.9343 8.59933 37.4042 9.45291V6.72873H39.8982V21.6572H37.4042V18.8786C36.9162 19.7503 36.1843 20.4768 35.2084 21.0579C34.2505 21.6209 33.13 21.9024 31.8469 21.9024C30.5276 21.9024 29.3348 21.5755 28.2685 20.9217C27.2022 20.2679 26.3619 19.3508 25.7474 18.1703C25.1329 16.9898 24.8257 15.6459 24.8257 14.1385ZM37.4042 14.1657C37.4042 13.0397 37.1783 12.059 36.7265 11.2236C36.2746 10.3882 35.6602 9.75257 34.8831 9.3167C34.124 8.86267 33.2836 8.63565 32.3619 8.63565C31.4402 8.63565 30.5999 8.85359 29.8408 9.28946C29.0818 9.72533 28.4764 10.361 28.0245 11.1964C27.5727 12.0318 27.3468 13.0125 27.3468 14.1385C27.3468 15.2827 27.5727 16.2815 28.0245 17.1351C28.4764 17.9705 29.0818 18.6152 29.8408 19.0693C30.5999 19.5051 31.4402 19.7231 32.3619 19.7231C33.2836 19.7231 34.124 19.5051 34.8831 19.0693C35.6602 18.6152 36.2746 17.9705 36.7265 17.1351C37.1783 16.2815 37.4042 15.2917 37.4042 14.1657Z" fill="#829DB6"/>
<path d="M53.5822 8.77186V17.571C53.5822 18.2974 53.7358 18.815 54.043 19.1238C54.3503 19.4143 54.8834 19.5596 55.6425 19.5596H57.4587V21.6572H55.2358C53.8623 21.6572 52.8322 21.3394 52.1454 20.7038C51.4587 20.0681 51.1153 19.0239 51.1153 17.571V8.77186H49.1906V6.72873H51.1153V2.96936H53.5822V6.72873H57.4587V8.77186H53.5822Z" fill="#829DB6"/>
<path d="M66.0321 14.1385C66.0321 12.613 66.3393 11.2781 66.9538 10.134C67.5683 8.97164 68.4086 8.07266 69.4749 7.43701C70.5593 6.80137 71.7611 6.48355 73.0804 6.48355C74.3816 6.48355 75.5111 6.76505 76.469 7.32805C77.4268 7.89104 78.1407 8.59933 78.6106 9.45291V6.72873H81.1046V21.6572H78.6106V18.8786C78.1226 19.7503 77.3907 20.4768 76.4148 21.0579C75.4569 21.6209 74.3364 21.9024 73.0533 21.9024C71.734 21.9024 70.5412 21.5755 69.4749 20.9217C68.4086 20.2679 67.5683 19.3508 66.9538 18.1703C66.3393 16.9898 66.0321 15.6459 66.0321 14.1385ZM78.6106 14.1657C78.6106 13.0397 78.3847 12.059 77.9329 11.2236C77.481 10.3882 76.8666 9.75257 76.0895 9.3167C75.3304 8.86267 74.49 8.63565 73.5683 8.63565C72.6466 8.63565 71.8063 8.85359 71.0472 9.28946C70.2882 9.72533 69.6827 10.361 69.2309 11.1964C68.7791 12.0318 68.5532 13.0125 68.5532 14.1385C68.5532 15.2827 68.7791 16.2815 69.2309 17.1351C69.6827 17.9705 70.2882 18.6152 71.0472 19.0693C71.8063 19.5051 72.6466 19.7231 73.5683 19.7231C74.49 19.7231 75.3304 19.5051 76.0895 19.0693C76.8666 18.6152 77.481 17.9705 77.9329 17.1351C78.3847 16.2815 78.6106 15.2917 78.6106 14.1657Z" fill="#829DB6"/>
<path d="M102.081 10.6243V12.7219H91.2644V10.6243H102.081Z" fill="#829DB6"/>
<path d="M112.295 14.1385C112.295 12.613 112.602 11.2781 113.217 10.134C113.831 8.97164 114.671 8.07266 115.738 7.43701C116.822 6.80137 118.033 6.48355 119.37 6.48355C120.527 6.48355 121.602 6.75597 122.596 7.3008C123.59 7.82748 124.349 8.52669 124.873 9.39842V1.4983H127.367V21.6572H124.873V18.8513C124.385 19.7412 123.663 20.4768 122.705 21.0579C121.747 21.6209 120.626 21.9024 119.343 21.9024C118.024 21.9024 116.822 21.5755 115.738 20.9217C114.671 20.2679 113.831 19.3508 113.217 18.1703C112.602 16.9898 112.295 15.6459 112.295 14.1385ZM124.873 14.1657C124.873 13.0397 124.647 12.059 124.196 11.2236C123.744 10.3882 123.129 9.75257 122.352 9.3167C121.593 8.86267 120.753 8.63565 119.831 8.63565C118.909 8.63565 118.069 8.85359 117.31 9.28946C116.551 9.72533 115.946 10.361 115.494 11.1964C115.042 12.0318 114.816 13.0125 114.816 14.1385C114.816 15.2827 115.042 16.2815 115.494 17.1351C115.946 17.9705 116.551 18.6152 117.31 19.0693C118.069 19.5051 118.909 19.7231 119.831 19.7231C120.753 19.7231 121.593 19.5051 122.352 19.0693C123.129 18.6152 123.744 17.9705 124.196 17.1351C124.647 16.2815 124.873 15.2917 124.873 14.1657Z" fill="#829DB6"/>
<path d="M140.509 9.15325C140.943 8.29967 141.557 7.63679 142.353 7.1646C143.166 6.6924 144.151 6.45631 145.307 6.45631V9.01704H144.657C141.892 9.01704 140.509 10.5244 140.509 13.5392V21.6572H138.042V6.72873H140.509V9.15325Z" fill="#829DB6"/>
<path d="M155.935 4.30421C155.466 4.30421 155.068 4.14075 154.743 3.81385C154.417 3.48695 154.255 3.0874 154.255 2.61521C154.255 2.14302 154.417 1.74348 154.743 1.41657C155.068 1.08967 155.466 0.926221 155.935 0.926221C156.387 0.926221 156.767 1.08967 157.074 1.41657C157.399 1.74348 157.562 2.14302 157.562 2.61521C157.562 3.0874 157.399 3.48695 157.074 3.81385C156.767 4.14075 156.387 4.30421 155.935 4.30421ZM157.128 6.72873V21.6572H154.661V6.72873H157.128Z" fill="#829DB6"/>
<path d="M173.369 19.3689L177.977 6.72873H180.607L174.779 21.6572H171.905L166.077 6.72873H168.733L173.369 19.3689Z" fill="#829DB6"/>
<path d="M203.095 13.6209C203.095 14.0931 203.068 14.5925 203.014 15.1192H191.14C191.23 16.5903 191.727 17.7435 192.631 18.5789C193.553 19.3962 194.664 19.8048 195.965 19.8048C197.032 19.8048 197.917 19.5596 198.622 19.0693C199.345 18.5608 199.851 17.8888 200.14 17.0534H202.797C202.399 18.4881 201.604 19.6595 200.411 20.5676C199.218 21.4575 197.736 21.9024 195.965 21.9024C194.556 21.9024 193.291 21.5846 192.17 20.949C191.068 20.3133 190.2 19.4143 189.568 18.252C188.935 17.0715 188.619 15.7094 188.619 14.1657C188.619 12.622 188.926 11.269 189.541 10.1067C190.155 8.94439 191.013 8.05449 192.116 7.43701C193.236 6.80137 194.519 6.48355 195.965 6.48355C197.375 6.48355 198.622 6.79229 199.706 7.40977C200.791 8.02725 201.622 8.88083 202.2 9.9705C202.797 11.042 203.095 12.2588 203.095 13.6209ZM200.547 13.1033C200.547 12.1589 200.339 11.3508 199.923 10.6788C199.508 9.98866 198.938 9.47107 198.215 9.12601C197.511 8.76278 196.724 8.58117 195.857 8.58117C194.61 8.58117 193.544 8.98072 192.658 9.77981C191.791 10.5789 191.294 11.6867 191.167 13.1033H200.547Z" fill="#829DB6"/>
<path d="M220.095 6.45631C221.903 6.45631 223.366 7.01023 224.487 8.11806C225.607 9.20773 226.168 10.7878 226.168 12.8581V21.6572H223.728V13.2123C223.728 11.7231 223.357 10.588 222.616 9.80705C221.875 9.00796 220.863 8.60841 219.58 8.60841C218.279 8.60841 217.24 9.01704 216.463 9.83429C215.704 10.6515 215.324 11.8411 215.324 13.403V21.6572H212.857V6.72873H215.324V8.85359C215.812 8.09082 216.472 7.50058 217.303 7.08287C218.152 6.66516 219.083 6.45631 220.095 6.45631Z" fill="#829DB6"/>
<path d="M253.527 24.5449H251.06V0H253.527V24.5449Z" fill="#829DB6"/>
<path d="M284.611 8.77186H281.493V21.6572H279.026V8.77186H277.101V6.72873H279.026V5.6663C279.026 3.99547 279.451 2.77866 280.3 2.01589C281.168 1.23496 282.55 0.844495 284.448 0.844495V2.91487C283.364 2.91487 282.595 3.13281 282.144 3.56868C281.71 3.98638 281.493 4.68559 281.493 5.6663V6.72873H284.611V8.77186Z" fill="#829DB6"/>
<path d="M307.168 6.72873V21.6572H304.701V19.4507C304.231 20.2134 303.571 20.8127 302.722 21.2486C301.891 21.6663 300.969 21.8752 299.957 21.8752C298.8 21.8752 297.761 21.6391 296.839 21.1669C295.918 20.6765 295.186 19.9501 294.644 18.9875C294.119 18.025 293.857 16.8536 293.857 15.4733V6.72873H296.297V15.1464C296.297 16.6175 296.668 17.7526 297.409 18.5517C298.15 19.3326 299.162 19.7231 300.445 19.7231C301.764 19.7231 302.803 19.3144 303.562 18.4972C304.321 17.6799 304.701 16.4904 304.701 14.9285V6.72873H307.168Z" fill="#829DB6"/>
<path d="M320.306 1.4983V21.6572H317.839V1.4983H320.306Z" fill="#829DB6"/>
<path d="M333.483 1.4983V21.6572H331.017V1.4983H333.483Z" fill="#829DB6"/>
<path d="M354.495 10.6243V12.7219H343.679V10.6243H354.495Z" fill="#829DB6"/>
<path d="M371.676 8.77186H368.559V21.6572H366.092V8.77186H364.167V6.72873H366.092V5.6663C366.092 3.99547 366.517 2.77866 367.366 2.01589C368.234 1.23496 369.616 0.844495 371.514 0.844495V2.91487C370.429 2.91487 369.661 3.13281 369.209 3.56868C368.776 3.98638 368.559 4.68559 368.559 5.6663V6.72873H371.676V8.77186Z" fill="#829DB6"/>
<path d="M394.234 6.72873V21.6572H391.767V19.4507C391.297 20.2134 390.637 20.8127 389.788 21.2486C388.956 21.6663 388.035 21.8752 387.023 21.8752C385.866 21.8752 384.827 21.6391 383.905 21.1669C382.983 20.6765 382.251 19.9501 381.709 18.9875C381.185 18.025 380.923 16.8536 380.923 15.4733V6.72873H383.363V15.1464C383.363 16.6175 383.733 17.7526 384.474 18.5517C385.215 19.3326 386.227 19.7231 387.511 19.7231C388.83 19.7231 389.869 19.3144 390.628 18.4972C391.387 17.6799 391.767 16.4904 391.767 14.9285V6.72873H394.234Z" fill="#829DB6"/>
<path d="M412.143 6.45631C413.95 6.45631 415.414 7.01023 416.535 8.11806C417.655 9.20773 418.215 10.7878 418.215 12.8581V21.6572H415.776V13.2123C415.776 11.7231 415.405 10.588 414.664 9.80705C413.923 9.00796 412.911 8.60841 411.628 8.60841C410.327 8.60841 409.287 9.01704 408.51 9.83429C407.751 10.6515 407.372 11.8411 407.372 13.403V21.6572H404.905V6.72873H407.372V8.85359C407.86 8.09082 408.519 7.50058 409.351 7.08287C410.2 6.66516 411.131 6.45631 412.143 6.45631Z" fill="#829DB6"/>
<path d="M435.989 6.45631C437.796 6.45631 439.26 7.01023 440.381 8.11806C441.501 9.20773 442.062 10.7878 442.062 12.8581V21.6572H439.622V13.2123C439.622 11.7231 439.251 10.588 438.51 9.80705C437.769 9.00796 436.757 8.60841 435.474 8.60841C434.173 8.60841 433.134 9.01704 432.357 9.83429C431.598 10.6515 431.218 11.8411 431.218 13.403V21.6572H428.751V6.72873H431.218V8.85359C431.706 8.09082 432.366 7.50058 433.197 7.08287C434.046 6.66516 434.977 6.45631 435.989 6.45631Z" fill="#829DB6"/>
<path d="M466.152 13.6209C466.152 14.0931 466.125 14.5925 466.07 15.1192H454.197C454.287 16.5903 454.784 17.7435 455.688 18.5789C456.609 19.3962 457.721 19.8048 459.022 19.8048C460.088 19.8048 460.974 19.5596 461.679 19.0693C462.402 18.5608 462.908 17.8888 463.197 17.0534H465.853C465.456 18.4881 464.661 19.6595 463.468 20.5676C462.275 21.4575 460.793 21.9024 459.022 21.9024C457.612 21.9024 456.347 21.5846 455.227 20.949C454.124 20.3133 453.257 19.4143 452.624 18.252C451.992 17.0715 451.676 15.7094 451.676 14.1657C451.676 12.622 451.983 11.269 452.597 10.1067C453.212 8.94439 454.07 8.05449 455.173 7.43701C456.293 6.80137 457.576 6.48355 459.022 6.48355C460.432 6.48355 461.679 6.79229 462.763 7.40977C463.847 8.02725 464.679 8.88083 465.257 9.9705C465.853 11.042 466.152 12.2588 466.152 13.6209ZM463.603 13.1033C463.603 12.1589 463.396 11.3508 462.98 10.6788C462.564 9.98866 461.995 9.47107 461.272 9.12601C460.567 8.76278 459.781 8.58117 458.914 8.58117C457.667 8.58117 456.6 8.98072 455.715 9.77981C454.847 10.5789 454.35 11.6867 454.224 13.1033H463.603Z" fill="#829DB6"/>
<path d="M478.381 1.4983V21.6572H475.914V1.4983H478.381Z" fill="#829DB6"/>
</g>
</svg>
