<svg preserveAspectRatio="xMidYMid meet"  overflow="visible" style="display: block;" viewBox="0 0 96.606 86.8412" fill="none" xmlns="http://www.w3.org/2000/svg">
<g id="Group 8625">
<path id="Vector" fill-rule="evenodd" clip-rule="evenodd" d="M49.9643 58.7039C48.8577 58.5999 47.7144 58.5999 46.6072 58.7039V86.8412H49.9643V58.7039Z" fill="#2394FF"/>
<path id="Vector_2" fill-rule="evenodd" clip-rule="evenodd" d="M42.334 59.852C42.1016 59.9522 41.8785 60.0581 41.6656 60.1733C40.6755 60.7042 39.7841 61.3968 38.9769 62.2068V78.2533H42.334V59.852Z" fill="#2997FF"/>
<path id="Vector_3" fill-rule="evenodd" clip-rule="evenodd" d="M53.9293 59.852V78.2533H57.2864V62.2074C56.4784 61.3975 55.5863 60.7049 54.5977 60.174C54.3847 60.0595 54.1624 59.9529 53.9293 59.8528V59.852Z" fill="#2997FF"/>
<path id="Vector_4" fill-rule="evenodd" clip-rule="evenodd" d="M48.3037 48.8998C57.7887 48.8998 66.0349 54.1915 70.2392 61.9779H80.1352L76.1622 55.1126L64.218 34.4692V34.4508L52.2737 13.8093L48.3046 6.94599L44.3336 13.8093L32.3893 34.4508V34.4692L20.4451 55.1126L16.4731 61.9779H26.3681C30.5734 54.1915 38.8186 48.8998 48.3037 48.8998ZM40.3237 39.0357L40.3314 39.0396L48.3046 25.2596L56.2778 39.0396L56.2856 39.0357L58.4669 42.8053C55.2916 41.9589 51.9036 41.573 48.3046 41.6477C44.7057 41.573 41.3176 41.9589 38.1414 42.8053L40.3237 39.0357Z" fill="white"/>
<g id="Vector_5">
<path d="M0.385874 72.9609V0.387598H11.5192V2.63613H2.93727V70.7124H11.5192V72.9609H0.385874Z" fill="#1BFED1"/>
<path d="M96.2214 72.9609H85.1654V70.7124H93.67V2.63613H85.1654V0.387598H96.2214V72.9609Z" fill="#1BFED1"/>
<path d="M11.5183 70.713L2.93727 70.7124V2.63613L11.5183 2.63525L11.5192 0.387598H0.385874V72.9609L11.5183 72.9606V70.713ZM96.2214 0.387598H85.1654V2.63613L93.6693 2.63525L93.67 70.7124H85.1654V72.9609H96.2214V0.387598ZM11.904 3.02285H3.32254V70.3254H11.904V73.3482H0.000168562V0H11.904V3.02285ZM96.606 73.3482H84.7797V70.3254H93.2836V3.02285H84.7797V0H96.606V73.3482Z" fill="#1BFED1"/>
</g>
</g>
</svg>
