<svg preserveAspectRatio="xMidYMid meet"  overflow="visible" style="display: block;" viewBox="0 0 484.733 48.8173" fill="none" xmlns="http://www.w3.org/2000/svg">
<g id="azarianGrowthAgency">
<path d="M23.7609 36.2089L21.6468 30.0663H8.87014L6.75601 36.2089H0L11.5358 3.92571H19.0271L30.5629 36.2089H23.7609ZM19.9004 24.8936L15.2585 11.4076L10.6166 24.8936H19.9004Z" fill="white"/>
<path d="M49.6737 10.6225V15.8414L38.4596 30.8976H49.8116V36.2089H31.1521V30.99L42.2743 15.9338H31.1981V10.6225H49.6737Z" fill="white"/>
<path d="M50.841 23.3233C50.841 15.3334 55.9884 10.2068 62.4687 10.2068C66.5591 10.2068 69.3626 12.1466 70.8792 14.2711V10.6225H77.3595V36.2089H70.8792V32.4679C69.3626 34.6848 66.4671 36.6245 62.4227 36.6245C55.9884 36.6245 50.841 31.3133 50.841 23.3233ZM70.8792 23.4157C70.8792 18.5663 67.6621 15.8876 64.1232 15.8876C60.6763 15.8876 57.4132 18.4739 57.4132 23.3233C57.4132 28.1727 60.6763 30.9438 64.1232 30.9438C67.6621 30.9438 70.8792 28.2651 70.8792 23.4157Z" fill="white"/>
<path d="M87.78 23.4619V36.2089H81.3457V10.6225H87.78V14.5944C89.3886 11.9619 92.0542 10.253 95.5931 10.253V17.0422H93.8926C90.078 17.0422 87.78 18.5201 87.78 23.4619Z" fill="white"/>
<path d="M97.6289 36.2089V10.6225H104.063V36.2089H97.6289ZM100.892 7.57431C98.5941 7.57431 96.9396 5.91165 96.9396 3.78715C96.9396 1.66265 98.5941 0 100.892 0C103.144 0 104.845 1.66265 104.845 3.78715C104.845 5.91165 103.144 7.57431 100.892 7.57431Z" fill="white"/>
<path d="M106.468 23.3233C106.468 15.3334 111.615 10.2068 118.096 10.2068C122.186 10.2068 124.989 12.1466 126.506 14.2711V10.6225H132.986V36.2089H126.506V32.4679C124.989 34.6848 122.094 36.6245 118.05 36.6245C111.615 36.6245 106.468 31.3133 106.468 23.3233ZM126.506 23.4157C126.506 18.5663 123.289 15.8876 119.75 15.8876C116.303 15.8876 113.04 18.4739 113.04 23.3233C113.04 28.1727 116.303 30.9438 119.75 30.9438C123.289 30.9438 126.506 28.2651 126.506 23.4157Z" fill="white"/>
<path d="M154.805 36.2089V22.0763C154.805 17.9659 152.553 15.749 149.152 15.749C145.659 15.749 143.407 17.9659 143.407 22.0763V36.2089H136.973V10.6225H143.407V13.8093C145.061 11.6386 147.819 10.253 151.082 10.253C157.011 10.253 161.239 14.1325 161.239 21.1988V36.2089H154.805Z" fill="white"/>
<path d="M179.859 3.55623C187.028 3.55623 192.727 7.20483 194.795 13.6707H187.396C185.925 10.9458 183.26 9.51407 179.859 9.51407C174.114 9.51407 170.115 13.6245 170.115 20.0442C170.115 26.6024 174.16 30.6667 180.134 30.6667C185.098 30.6667 188.269 27.8032 189.234 23.231H178.204V18.2892H195.577V23.9237C194.29 30.482 188.453 36.486 179.905 36.486C170.575 36.486 163.497 29.6968 163.497 20.0442C163.497 10.3916 170.575 3.55623 179.859 3.55623Z" fill="#1BFED1"/>
<path d="M204.473 23.4619V36.2089H198.039V10.6225H204.473V14.5944C206.082 11.9619 208.748 10.253 212.287 10.253V17.0422H210.586C206.771 17.0422 204.473 18.5201 204.473 23.4619Z" fill="#1BFED1"/>
<path d="M238.911 23.4157C238.911 31.4518 233.028 36.6245 225.628 36.6245C218.275 36.6245 212.714 31.4518 212.714 23.4157C212.714 15.3334 218.459 10.2068 225.812 10.2068C233.166 10.2068 238.911 15.3334 238.911 23.4157ZM219.24 23.4157C219.24 28.496 222.181 30.99 225.628 30.99C229.029 30.99 232.292 28.496 232.292 23.4157C232.292 18.2892 229.121 15.8414 225.72 15.8414C222.319 15.8414 219.24 18.2892 219.24 23.4157Z" fill="#1BFED1"/>
<path d="M245.974 36.2089L238.483 10.6225H245.009L249.513 30.1125L254.385 10.6225H261.187L265.967 30.0663L270.471 10.6225H276.629L269.184 36.2089H262.244L257.602 18.3354L252.96 36.2089H245.974Z" fill="#1BFED1"/>
<path d="M278.824 28.2651V15.9338H275.79V10.6225H278.824V4.29519H285.304V10.6225H291.003V15.9338H285.304V28.3113C285.304 30.0201 285.993 30.7591 288.016 30.7591H291.003V36.2089H286.958C282.087 36.2089 278.824 34.1306 278.824 28.2651Z" fill="#1BFED1"/>
<path d="M293.333 36.2089V2.03213H299.767V13.8093C301.422 11.6386 304.271 10.253 307.672 10.253C313.417 10.253 317.599 14.1325 317.599 21.1988V36.2089H311.165V22.0763C311.165 17.9659 308.913 15.749 305.512 15.749C302.019 15.749 299.767 17.9659 299.767 22.0763V36.2089H293.333Z" fill="#1BFED1"/>
<path d="M343.205 36.2089L341.091 30.0663H328.314L326.2 36.2089H319.444L330.98 3.92571H338.471L350.007 36.2089H343.205ZM339.344 24.8936L334.702 11.4076L330.06 24.8936H339.344Z" fill="white"/>
<path d="M350.366 23.3233C350.366 15.3334 355.514 10.2068 361.994 10.2068C365.992 10.2068 368.888 12.0542 370.404 14.2711V10.6225H376.885V36.3936C376.885 43.3213 372.656 48.8173 364.292 48.8173C357.122 48.8173 352.113 45.2149 351.469 39.3494H357.857C358.501 41.6587 360.891 43.1828 364.108 43.1828C367.647 43.1828 370.404 41.1506 370.404 36.3936V32.4217C368.888 34.6386 365.992 36.6245 361.994 36.6245C355.514 36.6245 350.366 31.3133 350.366 23.3233ZM370.404 23.4157C370.404 18.5663 367.187 15.8876 363.648 15.8876C360.201 15.8876 356.938 18.4739 356.938 23.3233C356.938 28.1727 360.201 30.9438 363.648 30.9438C367.187 30.9438 370.404 28.2651 370.404 23.4157Z" fill="white"/>
<path d="M391.809 15.5181C388.73 15.5181 386.294 17.504 385.788 21.0141H397.876C397.784 17.6426 395.118 15.5181 391.809 15.5181ZM403.896 28.1727C402.518 32.8836 398.289 36.6245 391.993 36.6245C384.593 36.6245 379.216 31.4518 379.216 23.4157C379.216 15.3334 384.456 10.2068 391.993 10.2068C399.346 10.2068 404.54 15.241 404.54 22.8615C404.54 23.6928 404.494 24.5241 404.356 25.3554H385.742C386.064 29.1426 388.638 31.2671 391.855 31.2671C394.613 31.2671 396.129 29.8816 396.957 28.1727H403.896Z" fill="white"/>
<path d="M424.77 36.2089V22.0763C424.77 17.9659 422.518 15.749 419.117 15.749C415.625 15.749 413.373 17.9659 413.373 22.0763V36.2089H406.938V10.6225H413.373V13.8093C415.027 11.6386 417.785 10.253 421.048 10.253C426.977 10.253 431.205 14.1325 431.205 21.1988V36.2089H424.77Z" fill="white"/>
<path d="M433.371 23.4157C433.371 15.3795 438.61 10.2068 445.964 10.2068C452.306 10.2068 456.58 13.5321 457.959 19.2591H451.019C450.284 17.0884 448.583 15.7028 445.918 15.7028C442.333 15.7028 439.943 18.4277 439.943 23.4157C439.943 28.4036 442.333 31.0824 445.918 31.0824C448.583 31.0824 450.238 29.8816 451.019 27.5723H457.959C456.58 33.0221 452.306 36.6245 445.964 36.6245C438.61 36.6245 433.371 31.4518 433.371 23.4157Z" fill="white"/>
<path d="M471.221 28.496L477.885 10.6225H484.733L468.969 48.3093H462.121L467.636 35.5623L457.433 10.6225H464.649L471.221 28.496Z" fill="white"/>
</g>
</svg>
