<svg width="84" height="18" viewBox="0 0 84 18" fill="none" xmlns="http://www.w3.org/2000/svg">
<g clip-path="url(#clip0_22603_2268)">
<path d="M5.89024 0H0V5.88214H5.89024V0Z" fill="url(#paint0_linear_22603_2268)"/>
<path d="M12.8688 7.10352H6.97852V12.9857H12.8688V7.10352Z" fill="url(#paint1_linear_22603_2268)"/>
<path d="M12.8688 0H6.97852V5.88214H17.9267V5.04643C17.9267 3.69643 17.3825 2.44286 16.4541 1.47857C15.4938 0.546429 14.2133 0 12.8688 0Z" fill="url(#paint2_linear_22603_2268)"/>
<path d="M0 7.10352V12.9857C0 14.3357 0.544207 15.5892 1.47256 16.5535C2.43293 17.4857 3.71341 18.0321 5.05793 18.0321H5.89024V7.10352H0Z" fill="url(#paint3_linear_22603_2268)"/>
<path opacity="0.18" d="M0 0L5.89024 5.88214H0V0Z" fill="url(#paint4_linear_22603_2268)"/>
<path opacity="0.18" d="M6.97852 7.10352L12.8688 12.9857H6.97852V7.10352Z" fill="url(#paint5_linear_22603_2268)"/>
<path opacity="0.18" d="M0 12.9535C0 14.3035 0.544207 15.5571 1.47256 16.5214C2.43293 17.4535 3.71341 17.9999 5.05793 17.9999H5.89024V7.10352L0 12.9535Z" fill="url(#paint6_linear_22603_2268)"/>
<path opacity="0.18" d="M12.8688 0C14.2133 0 15.4938 0.546429 16.4541 1.47857C17.4145 2.41071 17.9267 3.69643 17.9267 5.04643V5.88214H6.97852L12.8688 0Z" fill="url(#paint7_linear_22603_2268)"/>
<path d="M27.6905 7.97146H26.314V14.1429H24.7774V7.97146H23.9131V6.71789H24.7774V6.2036C24.7774 5.36788 25.0015 4.72503 25.4497 4.33931C25.8978 3.9536 26.6021 3.76074 27.5945 3.76074V5.04646C27.1143 5.04646 26.7942 5.14289 26.6021 5.3036C26.41 5.46431 26.314 5.78574 26.314 6.2036V6.71789H27.6905V7.97146Z" fill="white"/>
<path d="M29.5471 5.7536C29.259 5.7536 29.0349 5.65717 28.8428 5.46431C28.6507 5.27146 28.5547 5.04646 28.5547 4.75717C28.5547 4.46789 28.6507 4.24289 28.8428 4.05003C29.0349 3.85717 29.259 3.76074 29.5471 3.76074C29.8032 3.76074 30.0273 3.85717 30.2193 4.05003C30.4114 4.24289 30.5074 4.46789 30.5074 4.75717C30.5074 5.04646 30.4114 5.27146 30.2193 5.46431C30.0273 5.65717 29.8032 5.7536 29.5471 5.7536ZM30.2833 6.71789V14.1107H28.7468V6.71789H30.2833Z" fill="white"/>
<path d="M33.5483 7.81038C33.7724 7.42466 34.0605 7.13538 34.4446 6.94252C34.8288 6.71752 35.277 6.62109 35.7571 6.62109V8.19609H35.373C34.7648 8.19609 34.3166 8.35681 33.9965 8.64609C33.7084 8.93538 33.5483 9.48181 33.5483 10.2211V14.1425H32.0117V6.74967H33.5483V7.81038Z" fill="white"/>
<path d="M43.6648 10.254C43.6648 10.5433 43.6328 10.7683 43.6008 10.9933H37.9666C37.9986 11.5719 38.2227 12.054 38.6068 12.4076C38.991 12.7612 39.4712 12.954 40.0474 12.954C40.8797 12.954 41.4559 12.6005 41.7761 11.9255H43.4087C43.1846 12.6005 42.7684 13.179 42.1922 13.5969C41.616 14.0148 40.8797 14.2398 40.0154 14.2398C39.3111 14.2398 38.6709 14.079 38.1267 13.7576C37.5825 13.4362 37.1343 12.9862 36.8142 12.4076C36.494 11.829 36.334 11.154 36.334 10.3826C36.334 9.61119 36.494 8.96833 36.7822 8.38976C37.1023 7.81119 37.5184 7.36119 38.0947 7.03976C38.6709 6.71833 39.3111 6.55762 40.0154 6.55762C40.7197 6.55762 41.3279 6.71833 41.8721 7.00762C42.4163 7.2969 42.8325 7.7469 43.1526 8.29333C43.5047 8.90405 43.6648 9.51476 43.6648 10.254ZM42.0642 9.7719C42.0642 9.19333 41.8401 8.74333 41.4559 8.4219C41.0718 8.06833 40.5916 7.90762 39.9834 7.90762C39.4712 7.90762 38.991 8.06833 38.6389 8.4219C38.2547 8.74333 38.0306 9.19333 37.9666 9.7719H42.0642Z" fill="white"/>
<path d="M47.9864 7.97146H46.6099V14.1429H45.0733V7.97146H44.209V6.71789H45.0733V6.2036C45.0733 5.36788 45.2974 4.72503 45.7456 4.33931C46.1937 3.9536 46.898 3.76074 47.8904 3.76074V5.04646C47.4102 5.04646 47.0901 5.14289 46.898 5.3036C46.7059 5.46431 46.6099 5.78574 46.6099 6.2036V6.71789H47.9864V7.97146Z" fill="white"/>
<path d="M50.6108 4.17871V14.143H49.0742V4.17871H50.6108Z" fill="white"/>
<path d="M53.1086 5.7536C52.8205 5.7536 52.5964 5.65717 52.4043 5.46431C52.2122 5.27146 52.1162 5.04646 52.1162 4.75717C52.1162 4.46789 52.2122 4.24289 52.4043 4.05003C52.5964 3.85717 52.8205 3.76074 53.1086 3.76074C53.3647 3.76074 53.5888 3.85717 53.7808 4.05003C53.9729 4.24289 54.069 4.46789 54.069 4.75717C54.069 5.04646 53.9729 5.27146 53.7808 5.46431C53.6208 5.65717 53.3647 5.7536 53.1086 5.7536ZM53.8449 6.71789V14.1107H52.3083V6.71789H53.8449Z" fill="white"/>
<path d="M62.3601 10.254C62.3601 10.5433 62.3281 10.7683 62.2961 10.9933H56.6619C56.6939 11.5719 56.918 12.054 57.3022 12.4076C57.6863 12.7612 58.1665 12.954 58.7427 12.954C59.575 12.954 60.1512 12.6005 60.4714 11.9255H62.104C61.8799 12.6005 61.4637 13.179 60.8875 13.5969C60.3113 14.0148 59.575 14.2398 58.7107 14.2398C58.0064 14.2398 57.3662 14.079 56.822 13.7576C56.2778 13.4362 55.8296 12.9862 55.5095 12.4076C55.1894 11.829 55.0293 11.154 55.0293 10.3826C55.0293 9.61119 55.1894 8.96833 55.4775 8.38976C55.7976 7.81119 56.2137 7.36119 56.79 7.03976C57.3662 6.71833 58.0064 6.55762 58.7107 6.55762C59.415 6.55762 60.0232 6.71833 60.5674 7.00762C61.1116 7.2969 61.5278 7.7469 61.8479 8.29333C62.2 8.90405 62.3601 9.51476 62.3601 10.254ZM60.7595 9.7719C60.7595 9.19333 60.5354 8.74333 60.1512 8.4219C59.7671 8.06833 59.2869 7.90762 58.6787 7.90762C58.1665 7.90762 57.6863 8.06833 57.3342 8.4219C56.95 8.74333 56.7259 9.19333 56.6619 9.7719H60.7595Z" fill="white"/>
<path d="M66.2656 14.239C65.6893 14.239 65.1771 14.1425 64.697 13.9175C64.2488 13.6925 63.8646 13.4032 63.6085 13.0497C63.3524 12.6961 63.1924 12.2782 63.1924 11.8282H64.761C64.793 12.1497 64.921 12.4068 65.2092 12.6318C65.4973 12.8247 65.8174 12.9532 66.2335 12.9532C66.6497 12.9532 67.0018 12.8568 67.2259 12.6961C67.482 12.5354 67.5781 12.3104 67.5781 12.0532C67.5781 11.764 67.45 11.5711 67.1619 11.4425C66.9058 11.314 66.4896 11.1532 65.9134 10.9925C65.3692 10.8318 64.921 10.7032 64.5689 10.5425C64.2168 10.414 63.9287 10.189 63.6726 9.89966C63.4165 9.61038 63.2884 9.22467 63.2884 8.74252C63.2884 8.35681 63.4165 8.00324 63.6406 7.68181C63.8646 7.36038 64.2168 7.10324 64.6329 6.91038C65.0811 6.71752 65.5613 6.62109 66.1375 6.62109C66.9698 6.62109 67.6421 6.84609 68.1543 7.26395C68.6665 7.68181 68.9546 8.26038 68.9866 8.99967H67.45C67.418 8.67824 67.2899 8.38895 67.0338 8.19609C66.7777 8.00324 66.4576 7.90681 66.0415 7.90681C65.6253 7.90681 65.3372 7.97109 65.1131 8.13181C64.889 8.29252 64.793 8.48538 64.793 8.74252C64.793 8.93538 64.857 9.09609 65.0171 9.22467C65.1451 9.35324 65.3372 9.48181 65.5293 9.54609C65.7213 9.61038 66.0415 9.70681 66.4256 9.83538C66.9698 9.96395 67.386 10.1247 67.7381 10.2854C68.0903 10.414 68.3784 10.639 68.6345 10.9282C68.8906 11.2175 69.0186 11.6032 69.0186 12.0854C69.0186 12.5032 68.8906 12.889 68.6665 13.2104C68.4424 13.5318 68.0902 13.789 67.6741 13.9818C67.322 14.1425 66.8418 14.239 66.2656 14.239Z" fill="white"/>
<path d="M71.0988 14.2067C70.8107 14.2067 70.5866 14.1103 70.3946 13.9174C70.2025 13.7246 70.1064 13.4996 70.1064 13.2103C70.1064 12.921 70.2025 12.696 70.3946 12.5032C70.5866 12.3103 70.8107 12.2139 71.0988 12.2139C71.3549 12.2139 71.579 12.3103 71.7711 12.5032C71.9632 12.696 72.0592 12.921 72.0592 13.2103C72.0592 13.4996 71.9632 13.7246 71.7711 13.9174C71.579 14.1424 71.3549 14.2067 71.0988 14.2067Z" fill="white"/>
<path d="M72.9238 10.3818C72.9238 9.64252 73.0839 8.96752 73.372 8.42109C73.6921 7.84252 74.1083 7.39252 74.6205 7.10324C75.1647 6.78181 75.7409 6.62109 76.3811 6.62109C76.9574 6.62109 77.4696 6.74967 77.8857 6.97467C78.3339 7.19967 78.686 7.48895 78.9421 7.81038V6.74967H80.4787V14.1425H78.9421V13.0497C78.686 13.4032 78.3339 13.6925 77.8857 13.9175C77.4375 14.1425 76.9254 14.2711 76.3491 14.2711C75.7089 14.2711 75.1327 14.1104 74.6205 13.789C74.1083 13.4675 73.6601 12.9854 73.372 12.4068C73.0839 11.7961 72.9238 11.1211 72.9238 10.3818ZM78.9741 10.414C78.9741 9.89967 78.8781 9.44967 78.654 9.09609C78.4619 8.71038 78.1738 8.42109 77.8217 8.22824C77.4696 8.03538 77.1174 7.93895 76.7333 7.93895C76.3491 7.93895 75.965 8.03538 75.6449 8.22824C75.2927 8.42109 75.0366 8.71038 74.8125 9.06395C74.6205 9.41752 74.4924 9.86752 74.4924 10.3818C74.4924 10.8961 74.5885 11.3461 74.8125 11.7318C75.0366 12.1175 75.2927 12.4068 75.6449 12.6318C75.997 12.8247 76.3491 12.9211 76.7333 12.9211C77.1174 12.9211 77.5016 12.8247 77.8217 12.6318C78.1738 12.439 78.4299 12.1497 78.654 11.764C78.8781 11.3782 78.9741 10.9282 78.9741 10.414Z" fill="white"/>
<path d="M83.008 5.7536C82.7199 5.7536 82.4958 5.65717 82.3037 5.46431C82.1117 5.27146 82.0156 5.04646 82.0156 4.75717C82.0156 4.46789 82.1117 4.24289 82.3037 4.05003C82.4958 3.85717 82.7199 3.76074 83.008 3.76074C83.2641 3.76074 83.4882 3.85717 83.6803 4.05003C83.8723 4.24289 83.9684 4.46789 83.9684 4.75717C83.9684 5.04646 83.8723 5.27146 83.6803 5.46431C83.5202 5.65717 83.2961 5.7536 83.008 5.7536ZM83.7763 6.71789V14.1107H82.2397V6.71789H83.7763Z" fill="white"/>
</g>
<defs>
<linearGradient id="paint0_linear_22603_2268" x1="14.3264" y1="14.9413" x2="-10.5511" y2="-11.0907" gradientUnits="userSpaceOnUse">
<stop stop-color="#E82A73"/>
<stop offset="0.113" stop-color="#DE2D7A"/>
<stop offset="0.3" stop-color="#C5388F"/>
<stop offset="0.54" stop-color="#9B4AB0"/>
<stop offset="0.818" stop-color="#6262DE"/>
<stop offset="0.994" stop-color="#3B73FF"/>
</linearGradient>
<linearGradient id="paint1_linear_22603_2268" x1="14.464" y1="14.8119" x2="-10.4135" y2="-11.2201" gradientUnits="userSpaceOnUse">
<stop stop-color="#FF3C82"/>
<stop offset="0.103" stop-color="#F53E88"/>
<stop offset="0.274" stop-color="#DC4598"/>
<stop offset="0.492" stop-color="#B251B2"/>
<stop offset="0.745" stop-color="#7961D7"/>
<stop offset="0.994" stop-color="#3B73FF"/>
</linearGradient>
<linearGradient id="paint2_linear_22603_2268" x1="14.3532" y1="12.0274" x2="5.89583" y2="-18.4967" gradientUnits="userSpaceOnUse">
<stop stop-color="#E82A73"/>
<stop offset="0.113" stop-color="#DE2D7A"/>
<stop offset="0.3" stop-color="#C5388F"/>
<stop offset="0.54" stop-color="#9B4AB0"/>
<stop offset="0.818" stop-color="#6262DE"/>
<stop offset="0.994" stop-color="#3B73FF"/>
</linearGradient>
<linearGradient id="paint3_linear_22603_2268" x1="11.6263" y1="14.5415" x2="-18.4424" y2="5.41829" gradientUnits="userSpaceOnUse">
<stop stop-color="#E82A73"/>
<stop offset="0.113" stop-color="#DE2D7A"/>
<stop offset="0.3" stop-color="#C5388F"/>
<stop offset="0.54" stop-color="#9B4AB0"/>
<stop offset="0.818" stop-color="#6262DE"/>
<stop offset="0.994" stop-color="#3B73FF"/>
</linearGradient>
<linearGradient id="paint4_linear_22603_2268" x1="-2.81022" y1="-7.37038" x2="5.66426" y2="11.9689" gradientUnits="userSpaceOnUse">
<stop stop-color="#E82A73"/>
<stop offset="0.114" stop-color="#DE286E"/>
<stop offset="0.303" stop-color="#C52361"/>
<stop offset="0.544" stop-color="#9B1A4D"/>
<stop offset="0.825" stop-color="#620F30"/>
<stop offset="0.994" stop-color="#3D081E"/>
</linearGradient>
<linearGradient id="paint5_linear_22603_2268" x1="4.17153" y1="-0.279491" x2="12.646" y2="19.0598" gradientUnits="userSpaceOnUse">
<stop stop-color="#E82A73"/>
<stop offset="0.114" stop-color="#DE286E"/>
<stop offset="0.303" stop-color="#C52361"/>
<stop offset="0.544" stop-color="#9B1A4D"/>
<stop offset="0.825" stop-color="#620F30"/>
<stop offset="0.994" stop-color="#3D081E"/>
</linearGradient>
<linearGradient id="paint6_linear_22603_2268" x1="-5.93172" y1="5.44844" x2="13.1777" y2="18.0917" gradientUnits="userSpaceOnUse">
<stop stop-color="#E82A73"/>
<stop offset="0.114" stop-color="#DE286E"/>
<stop offset="0.303" stop-color="#C52361"/>
<stop offset="0.544" stop-color="#9B1A4D"/>
<stop offset="0.825" stop-color="#620F30"/>
<stop offset="0.994" stop-color="#3D081E"/>
</linearGradient>
<linearGradient id="paint7_linear_22603_2268" x1="56.313" y1="353.005" x2="59.6055" y2="378.896" gradientUnits="userSpaceOnUse">
<stop stop-color="#E82A73"/>
<stop offset="0.114" stop-color="#DE286E"/>
<stop offset="0.303" stop-color="#C52361"/>
<stop offset="0.544" stop-color="#9B1A4D"/>
<stop offset="0.825" stop-color="#620F30"/>
<stop offset="0.994" stop-color="#3D081E"/>
</linearGradient>
<clipPath id="clip0_22603_2268">
<rect width="84" height="18" fill="white"/>
</clipPath>
</defs>
</svg>
