<svg preserveAspectRatio="xMidYMid meet" width="32" height="23" overflow="visible" style="display:block" viewBox="0 0 31.9302 22.9993" fill="none" xmlns="http://www.w3.org/2000/svg">
<g id="Logo">
<path id="Vector" fill-rule="evenodd" clip-rule="evenodd" d="M10.1704 3.96914C11.5739 3.96914 11.5739 6.87809 10.1704 6.87809C8.78318 6.87809 8.78318 3.96914 10.1704 3.96914ZM5.489 6.89843L8.18326 10.6069L3.35049 16.6607C4.52128 16.3103 5.80915 16.0079 7.19085 15.7615L9.74682 12.721L11.5376 15.2046C12.512 15.1244 13.5148 15.071 14.5389 15.0448L11.2927 10.6066L15.5923 4.6995C15.6221 4.65971 15.6381 4.6113 15.6379 4.5616C15.6377 4.51191 15.6213 4.46363 15.5912 4.42409L14.3196 2.708C14.2983 2.67801 14.2701 2.65365 14.2372 2.63704C14.2044 2.62044 14.1681 2.61209 14.1313 2.61271C14.0948 2.6126 14.0588 2.62135 14.0264 2.6382C13.9941 2.65505 13.9662 2.6795 13.9454 2.70946L9.74711 8.46752L9.01646 7.49283C8.18849 6.35342 4.93149 6.13321 5.48929 6.89814" fill="var(--fill-0, #429FD8)"/>
<path id="Vector_2" fill-rule="evenodd" clip-rule="evenodd" d="M21.7589 3.96936C20.3551 3.96936 20.3551 6.87831 21.7589 6.87831C23.1461 6.87831 23.1461 3.96936 21.7589 3.96936ZM26.4391 6.89865L23.746 10.6071L28.5773 16.6606C27.4065 16.3106 26.1189 16.0078 24.7372 15.7618L22.1824 12.7212L20.3917 15.2051C19.3925 15.1235 18.3913 15.0701 17.3892 15.0448L20.6366 10.6071L16.336 4.70001C16.3066 4.66008 16.2908 4.61173 16.291 4.56211C16.2912 4.5125 16.3074 4.46428 16.3372 4.4246L17.6085 2.70851C17.6297 2.6786 17.6578 2.65429 17.6904 2.63769C17.7231 2.62109 17.7593 2.61269 17.7959 2.61322C17.872 2.61322 17.9377 2.64808 17.983 2.70996L22.1824 8.46803L22.9116 7.49334C23.565 6.59796 26.9681 6.16277 26.4391 6.89865Z" fill="var(--fill-0, #F9A11B)"/>
<path id="Vector_3" fill-rule="evenodd" clip-rule="evenodd" d="M3.97335 21.3642L4.42017 21.6972C4.21477 22.087 3.93181 22.388 3.57534 22.5978C3.21713 22.8069 2.8107 22.9127 2.35575 22.9127C1.68262 22.9127 1.12918 22.6907 0.690791 22.248C0.253561 21.8055 0.0342205 21.2434 0.0342205 20.5621C0.0342205 19.8794 0.253561 19.3164 0.693696 18.8736C1.1318 18.4309 1.68698 18.2089 2.35546 18.2089C2.77061 18.2089 3.1477 18.299 3.48906 18.4811C3.83025 18.6626 4.11778 18.9304 4.32284 19.258L3.8554 19.5909C3.71772 19.3264 3.50618 19.1076 3.24648 18.9611C2.98007 18.81 2.68287 18.7336 2.35575 18.7336C1.85199 18.7336 1.43423 18.907 1.10274 19.2525C0.772426 19.5979 0.607412 20.0348 0.607412 20.5621C0.607412 21.0908 0.772426 21.5278 1.10274 21.8721C1.43423 22.216 1.85199 22.388 2.35575 22.388C2.70815 22.388 3.02016 22.3009 3.29499 22.1274C3.56808 21.9537 3.79468 21.7001 3.97335 21.3642ZM4.90214 22.8761V18.977H8.55946V19.5476H5.51455V20.5214H7.51389V21.0824H5.51455V22.3151H8.72913V22.8761H4.90214ZM9.60504 22.8761V18.977H9.92432L12.4036 21.7166V18.977H13.0021V22.8761H12.6825L10.2079 20.1458V22.8761H9.60504ZM15.2614 22.8761V19.5212H13.6177V18.977H17.5179V19.5212H15.8692V22.8761H15.2614ZM18.1288 18.9866H18.7412V21.4845C18.7412 21.8584 18.8298 22.1109 19.0062 22.2419C19.1822 22.3726 19.5329 22.438 20.0564 22.438C20.5817 22.438 20.9338 22.3726 21.1098 22.2419C21.2859 22.1111 21.3748 21.8584 21.3748 21.4845V18.9866H21.9825V21.6434C21.9825 22.1219 21.8315 22.4662 21.5276 22.6797C21.2252 22.8932 20.731 22.9993 20.0471 22.9993C19.3644 22.9993 18.8752 22.8947 18.5759 22.6843C18.2784 22.474 18.1285 22.128 18.1285 21.6434V18.9866H18.1288ZM23.9412 21.1728V22.8761H23.3288V18.9863H26.0138C26.4126 18.9863 26.7244 19.0831 26.9487 19.2748C27.1747 19.4666 27.2868 19.7312 27.2868 20.0726C27.2868 20.35 27.1979 20.5897 27.0204 20.791C26.8426 20.9935 26.6105 21.1182 26.3238 21.1635L27.4053 22.8761H26.743L25.6396 21.1728H23.9412ZM23.9412 20.6025H26.0138C26.2241 20.6025 26.3848 20.5575 26.4952 20.4654C26.6058 20.3733 26.6619 20.2425 26.6619 20.0726C26.6619 19.9029 26.6058 19.7719 26.4952 19.6815C26.3848 19.5926 26.2241 19.5476 26.0138 19.5476H23.9412V20.6025ZM29.3469 22.8761V20.886L27.5704 18.977H28.3559L29.6476 20.3611L30.9177 18.977H31.7312L29.9453 20.8767V22.8761H29.3469Z" fill="var(--fill-0, white)"/>
<path id="Vector_4" fill-rule="evenodd" clip-rule="evenodd" d="M31.9302 18.1663C28.2627 16.5057 22.4762 15.4337 15.9651 15.4337C9.45403 15.4337 3.6675 16.5057 0 18.1663C4.46555 17.3154 9.98742 16.8119 15.9651 16.8119C21.9425 16.8119 27.4644 17.3154 31.9302 18.1663ZM15.7824 3.88621L14.5073 2.16198C14.4777 2.12218 14.4617 2.07389 14.4617 2.02428C14.4617 1.97466 14.4777 1.92637 14.5073 1.88657L15.7827 0.152762C15.8277 0.0908818 15.7246 0.196921 15.8477 0.0772275C15.9651 -0.0360745 15.9651 -0.0360745 16.1566 0.153924L17.4221 1.88657C17.4831 1.97024 17.4842 2.07831 17.4221 2.16198L16.1566 3.88504C16.1356 3.91501 16.1076 3.93931 16.0749 3.95574C16.0422 3.97217 16.006 3.98022 15.9695 3.97917C15.9331 3.9799 15.8971 3.97182 15.8645 3.95564C15.8319 3.93945 15.8038 3.91563 15.7824 3.88621Z" fill="var(--fill-0, #00B7B0)"/>
</g>
</svg>
