<svg width="64" height="64" viewBox="0 0 64 64" fill="none" xmlns="http://www.w3.org/2000/svg">
<path fill-rule="evenodd" clip-rule="evenodd" d="M33.0761 41.5463C32.3459 41.478 31.5915 41.478 30.8608 41.5463V60.0229H33.0761V41.5463Z" fill="#2997FF"></path>
<path fill-rule="evenodd" clip-rule="evenodd" d="M28.0415 42.3013C27.8881 42.367 27.7409 42.4366 27.6004 42.5122C26.9471 42.8608 26.3589 43.3157 25.8262 43.8475V54.3846H28.0415V42.3013Z" fill="#2997FF"></path>
<path fill-rule="evenodd" clip-rule="evenodd" d="M35.6938 42.3013V54.3846H37.9091V43.8479C37.376 43.3161 36.7872 42.8613 36.1349 42.5127C35.9944 42.4375 35.8477 42.3675 35.6938 42.3017V42.3013Z" fill="#2997FF"></path>
<path fill-rule="evenodd" clip-rule="evenodd" d="M31.98 35.0947C38.2389 35.0947 43.6805 38.5695 46.4548 43.6825H52.985L50.3633 39.1744L42.4815 25.6187V25.6066L34.5997 12.0523L31.9806 7.54541L29.3602 12.0523L21.4784 25.6066V25.6187L13.5966 39.1744L10.9756 43.6825H17.5051C20.2801 38.5695 25.721 35.0947 31.98 35.0947ZM26.7141 28.6174L26.7192 28.6199L31.9806 19.5712L37.2419 28.6199L37.2471 28.6174L38.6865 31.0927C36.5912 30.5369 34.3554 30.2835 31.9806 30.3325C29.6057 30.2835 27.37 30.5369 25.2741 31.0927L26.7141 28.6174Z" fill="white"></path>
<path d="M0.360352 50.9097V3.25391H7.70703V4.73042H2.04397V49.4332H7.70703V50.9097H0.360352Z" fill="#1BFED1"></path>
<path d="M63.6003 50.9097H56.3046V49.4332H61.9167V4.73042H56.3046V3.25391H63.6003V50.9097Z" fill="#1BFED1"></path>
<path d="M7.70703 49.4336H2.04395V4.73047H7.70703V3.25391H0.360352V50.9102H7.70703V49.4336ZM63.6006 3.25391H56.3047V4.73047H61.917V49.4336H56.3047V50.9102H63.6006V3.25391ZM7.96094 4.98438H2.29785V49.1787H7.96094V51.1641H0.106445V3H7.96094V4.98438ZM63.8545 51.1641H56.0508V49.1787H61.6621V4.98438H56.0508V3H63.8545V51.1641Z" fill="#1BFED1"></path>
</svg>