<svg preserveAspectRatio="none" overflow="visible" style="display: block;" viewBox="0 0 209 209" fill="none" xmlns="http://www.w3.org/2000/svg">
<g id="fluent:arrow-growth-24-filled">
<path id="Vector" d="M148.042 34.8333C145.732 34.8333 143.517 33.9159 141.884 32.2827C140.251 30.6496 139.333 28.4346 139.333 26.125C139.333 23.8154 140.251 21.6004 141.884 19.9673C143.517 18.3341 145.732 17.4167 148.042 17.4167H182.875C185.185 17.4167 187.4 18.3341 189.033 19.9673C190.666 21.6004 191.583 23.8154 191.583 26.125V60.9583C191.583 63.2679 190.666 65.4829 189.033 67.1161C187.4 68.7492 185.185 69.6667 182.875 69.6667C180.565 69.6667 178.35 68.7492 176.717 67.1161C175.084 65.4829 174.167 63.2679 174.167 60.9583V47.1469L123.719 97.5943C122.086 99.2269 119.872 100.144 117.562 100.144C115.253 100.144 113.039 99.2269 111.406 97.5943L87.0833 73.2719L40.9901 119.365C39.3477 120.951 37.148 121.829 34.8647 121.809C32.5814 121.789 30.3972 120.874 28.7826 119.259C27.168 117.644 26.2522 115.46 26.2323 113.177C26.2125 110.894 27.0902 108.694 28.6765 107.052L80.9265 54.8015C82.5596 53.169 84.7742 52.2519 87.0833 52.2519C89.3925 52.2519 91.6071 53.169 93.2401 54.8015L117.562 79.1239L161.853 34.8333H148.042ZM43.5417 156.75V182.875C43.5417 185.185 42.6242 187.4 40.9911 189.033C39.3579 190.666 37.1429 191.583 34.8333 191.583C32.5237 191.583 30.3087 190.666 28.6756 189.033C27.0425 187.4 26.125 185.185 26.125 182.875V156.75C26.125 154.44 27.0425 152.225 28.6756 150.592C30.3087 148.959 32.5237 148.042 34.8333 148.042C37.1429 148.042 39.3579 148.959 40.9911 150.592C42.6242 152.225 43.5417 154.44 43.5417 156.75ZM87.0833 121.917C87.0833 119.607 86.1658 117.392 84.5327 115.759C82.8996 114.126 80.6846 113.208 78.375 113.208C76.0654 113.208 73.8504 114.126 72.2173 115.759C70.5841 117.392 69.6667 119.607 69.6667 121.917V182.875C69.6667 185.185 70.5841 187.4 72.2173 189.033C73.8504 190.666 76.0654 191.583 78.375 191.583C80.6846 191.583 82.8996 190.666 84.5327 189.033C86.1658 187.4 87.0833 185.185 87.0833 182.875V121.917ZM121.917 130.625C124.226 130.625 126.441 131.542 128.074 133.176C129.708 134.809 130.625 137.024 130.625 139.333V182.875C130.625 185.185 129.708 187.4 128.074 189.033C126.441 190.666 124.226 191.583 121.917 191.583C119.607 191.583 117.392 190.666 115.759 189.033C114.126 187.4 113.208 185.185 113.208 182.875V139.333C113.208 137.024 114.126 134.809 115.759 133.176C117.392 131.542 119.607 130.625 121.917 130.625ZM174.167 95.7917C174.167 93.4821 173.249 91.2671 171.616 89.634C169.983 88.0008 167.768 87.0833 165.458 87.0833C163.149 87.0833 160.934 88.0008 159.301 89.634C157.667 91.2671 156.75 93.4821 156.75 95.7917V182.875C156.75 185.185 157.667 187.4 159.301 189.033C160.934 190.666 163.149 191.583 165.458 191.583C167.768 191.583 169.983 190.666 171.616 189.033C173.249 187.4 174.167 185.185 174.167 182.875V95.7917Z" fill="white"/>
</g>
</svg>
