<svg preserveAspectRatio="none" width="100%" height="100%" overflow="visible" style="display: block;" viewBox="0 0 147 62" fill="none" xmlns="http://www.w3.org/2000/svg">
<g id="image 3 [Vectorized]" clip-path="url(#clip0_0_68)">
<path id="Vector" d="M0 0H3.59114H147V0.0527204C146.264 1.08772 145.411 2.55493 144.717 3.66822L140.544 10.3546L127.655 31.0048L140.802 52.0545L144.835 58.5232C145.454 59.5168 146.35 61.0583 147 61.9453V62H3.59121H0V0Z" fill="white" fill-opacity="0.05"/>
<path id="Vector_2" d="M0 0H3.59114L3.59121 62H0V0Z" fill="#F06253" fill-opacity="0.5"/>
<path id="Vector_3" d="M21.6487 12.6009C21.7019 12.5923 21.7776 12.6131 21.835 12.6237C21.9735 12.9866 21.886 23.3186 21.8866 24.5125C22.9624 23.326 24.1497 21.9808 25.0841 20.6872C25.9712 19.4591 25.4509 19.0052 24.4406 18.3737C25.1445 18.2981 28.2132 18.3084 28.8602 18.3795L28.9217 18.4719C28.7622 18.6473 27.201 19.4805 26.7838 19.8304C25.3839 21.0044 24.2803 22.3321 23.0638 23.6898C27.4239 23.0877 26.966 28.186 29.5745 28.997C29.9531 29.1146 30.5156 29.1453 30.874 28.9477C31.2333 28.7496 31.5095 28.3153 31.6187 27.9276C31.8217 27.2063 31.8107 15.2435 31.6116 14.5702C31.3272 13.6084 30.7478 13.9043 30.5024 13.478L30.5619 13.3696C31.1597 13.1498 32.6727 12.8654 33.3604 12.7192L34.1126 12.542L34.1073 22.1853C34.1069 23.8425 34.0788 25.5088 34.1266 27.1651C34.1811 29.0528 34.8743 28.8623 36.2589 29.3104C35.3157 29.4344 27.573 29.4602 26.9185 29.3067C26.5316 29.2158 26.2072 28.9643 25.9408 28.6769C25.0805 27.7485 23.6529 25.083 22.9197 23.865L21.8852 24.9993C21.8945 25.9024 21.7515 27.3086 22.0129 28.1237C22.2531 28.8725 22.857 29.0297 23.4591 29.2991C22.869 29.3704 18.8876 29.3986 18.3207 29.3013C18.3945 28.9139 19.2704 28.6387 19.3952 27.9543C19.5766 26.96 19.561 15.2601 19.3771 14.6348C19.1067 13.7154 18.6066 13.9807 18.2607 13.4821L18.3322 13.3617C18.9713 13.1266 20.8957 12.7618 21.6487 12.6009Z" fill="#FEFEFE" fill-opacity="0.6"/>
<g id="Vector_4">
<path fill-rule="evenodd" clip-rule="evenodd" d="M83.7678 23.2803C83.444 20.1478 80.6469 17.8719 77.521 18.1974C74.3965 18.5227 72.1262 21.3241 72.4499 24.4552C72.7736 27.5863 75.5686 29.8619 78.6931 29.5385C81.8197 29.2149 84.0915 26.4127 83.7678 23.2803ZM77.7535 18.4269C81.6489 18.207 82.2475 27.9055 78.4512 29.2785C74.5731 29.5616 73.9264 19.8414 77.7535 18.4269Z" fill="#FEFEFE" fill-opacity="0.6"/>
</g>
<g id="Vector_5">
<path fill-rule="evenodd" clip-rule="evenodd" d="M45.2985 23.8809C45.3065 20.171 44.6131 17.7601 40.2908 18.0729C39.0805 18.2776 38.0604 18.7931 37.3112 19.793C36.7082 20.5977 36.6139 21.6684 37.4575 22.3426C37.8662 22.6692 38.9901 22.4624 39.1759 22.0234C39.376 21.5436 39.2778 21.0205 39.1836 20.5188C39.0252 19.6751 38.8781 18.8916 40.1795 18.4754C40.637 18.3289 41.4054 18.4505 41.798 18.7172C42.9825 19.5218 42.9567 21.2283 42.9367 22.556C42.9347 22.6935 42.9326 22.827 42.932 22.955C42.7624 22.9926 42.582 23.0313 42.3932 23.0717C40.4722 23.4835 37.6928 24.0792 36.7056 25.6584C36.2895 26.324 36.2844 26.7726 36.3229 27.5194C37.1116 30.6912 41.3839 30.1114 42.9138 27.5558L42.9277 27.6351C43.0595 28.3888 43.1209 28.7398 43.772 29.3128C44.2494 29.733 46.1233 29.8593 46.4624 29.2817L46.4213 29.1725C46.3431 29.148 46.2707 29.1283 46.2032 29.11C45.9077 29.03 45.7062 28.9754 45.523 28.6446C45.2725 28.1924 45.2811 27.5258 45.2884 26.9661C45.2894 26.8821 45.2905 26.8004 45.2906 26.7223L45.2985 23.8809ZM42.8224 26.8722C42.9431 26.3866 43.0355 23.5558 42.8537 23.3161C42.7163 23.3665 42.5703 23.4182 42.4185 23.472C40.6371 24.1035 38.0456 25.0221 38.9303 27.4116C39.024 27.6647 39.1499 27.8618 39.3242 28.0651C39.8427 28.4427 40.257 28.5716 40.9208 28.4627C41.5832 28.3497 42.1728 27.9757 42.5581 27.4241C42.6645 27.2731 42.7792 27.0457 42.8224 26.8722Z" fill="#FEFEFE" fill-opacity="0.6"/>
</g>
<path id="Vector_6" d="M45.3584 18.3644C45.7421 18.3086 47.0193 18.3255 47.438 18.3285C48.5259 18.3363 49.7291 18.307 50.8085 18.3689C49.8701 18.9908 49.2742 18.6919 49.649 20.3702C49.9018 21.5025 50.3598 22.594 50.7528 23.6858C51.2192 24.9672 51.6474 26.2621 52.0369 27.5689C52.5531 26.0546 53.0931 24.5485 53.6569 23.0514C53.9523 22.2474 54.269 21.456 54.5089 20.6332C54.9933 18.9721 54.1465 18.9258 53.0194 18.368C53.8756 18.3002 55.1165 18.3331 55.9893 18.333L61.1583 18.3346L61.1512 24.3043C61.1505 25.4818 61.0771 26.7543 61.2673 27.9145C61.4508 29.034 62.2269 28.8974 62.3192 29.2715C62.176 29.3802 62.0003 29.3549 61.8185 29.3522C60.3569 29.354 58.6196 29.3931 57.1811 29.3207C58.2147 28.6626 58.7194 28.7391 58.7513 27.1661C58.8005 24.7392 58.7061 22.3033 58.7639 19.8771C58.7896 18.7953 57.6414 18.2582 56.7585 18.7559C55.0753 19.6741 54.4814 22.1951 53.8856 23.9044L51.9974 29.3525L50.3288 29.352C49.5975 27.1067 48.8105 24.88 47.9686 22.6739C47.6355 21.7977 47.2939 20.8734 46.9186 20.0185C46.5491 19.177 45.4487 18.647 45.3584 18.3644Z" fill="#FEFEFE" fill-opacity="0.6"/>
<path id="Vector_7" d="M62.0106 18.3657C62.509 18.2935 66.8233 18.2691 67.0431 18.424C66.8637 18.7431 66.3885 18.8008 66.2613 19.1043C66.0114 19.7007 66.3911 20.9528 66.5889 21.5187C67.3045 23.5655 68.1602 25.5604 68.7796 27.6373C69.5599 25.4106 70.3829 23.0265 71.0788 20.7704C71.3281 19.9624 71.2613 18.7612 70.2348 18.6344C70.092 18.6168 69.7596 18.4699 69.6074 18.4073C70.3423 18.2809 73.1713 18.3248 74.0075 18.3654C73.7534 18.541 73.4634 18.6462 73.1885 18.7842C71.627 19.5681 69.8123 25.8909 69.1993 27.7659C68.7731 29.1022 68.3213 30.4252 67.8835 31.7558C67.3002 33.5284 66.026 35.0618 63.9744 34.2648C63.3309 34.021 62.8125 33.5278 62.5361 32.8966C61.9258 31.4705 62.8335 30.0225 64.4156 30.6386C65.808 31.1807 63.6687 33.1929 64.8358 33.6993C66.6024 34.5777 67.8623 31.8262 67.4272 30.4688C66.2656 26.8443 64.8012 23.1778 63.362 19.6457C63.1138 19.0364 62.1197 18.6373 62.0106 18.3657Z" fill="#FEFEFE" fill-opacity="0.6"/>
<path id="Vector_8" d="M83.0016 12.5493L91.4276 12.5521L89.7624 15.435L90.8763 17.3736L91.4197 18.3368L82.998 18.3362L83.0016 12.5493Z" fill="#FEFEFE" fill-opacity="0.6"/>
<g id="Vector_9">
<path fill-rule="evenodd" clip-rule="evenodd" d="M32.8526 40.0399C32.6239 40.0443 32.3961 40.0488 32.1698 40.0514L32.1705 47.0807L33.1237 47.0771L33.123 44.1279L34.4769 44.1302L36.3635 47.0733C36.7205 47.0799 37.0777 47.0804 37.4347 47.0746L35.5003 44.0867C36.1829 43.9073 36.6755 43.7234 37.0415 43.0606C37.7804 41.7225 36.9805 40.2417 35.4732 40.0916C34.6091 40.0056 33.7242 40.0229 32.8526 40.0399ZM33.5324 40.8436C33.3923 40.8479 33.2555 40.8522 33.1239 40.854L33.1205 43.3071C33.2586 43.3089 33.4057 43.3135 33.5586 43.3183C34.3675 43.3436 35.3351 43.3739 35.9567 43.0133C36.3566 42.5633 36.6845 41.7812 36.1121 41.326C35.4316 40.7845 34.4155 40.8161 33.5324 40.8436Z" fill="#FEFEFE" fill-opacity="0.6"/>
</g>
<g id="Vector_10">
<path fill-rule="evenodd" clip-rule="evenodd" d="M59.8221 40.0351C59.6114 40.0406 59.4266 40.0455 59.2803 40.0464L59.2806 47.0816L60.2173 47.0772V44.1279L61.572 44.1306C61.7692 44.4384 61.9695 44.7482 62.1705 45.059C62.6015 45.7256 63.0353 46.3966 63.4476 47.0615C63.7935 47.0972 64.0851 47.088 64.4204 47.0775L64.421 47.0775C64.4583 47.0763 64.4962 47.0751 64.5347 47.074L62.6011 44.0821C64.58 43.6053 65.0652 41.4958 63.5199 40.4119C62.868 39.9547 60.9646 40.0049 59.8221 40.0351ZM60.6516 40.8444C60.5024 40.8487 60.3568 40.8529 60.2172 40.8543L60.2165 43.3072C60.3508 43.3094 60.4939 43.3144 60.6426 43.3196C61.4905 43.3494 62.5217 43.3856 63.1443 42.943C63.5176 42.4017 63.7303 41.6017 63.0609 41.1978C62.3925 40.7946 61.4672 40.8211 60.6516 40.8444Z" fill="#FEFEFE" fill-opacity="0.6"/>
</g>
<g id="Vector_11">
<path fill-rule="evenodd" clip-rule="evenodd" d="M19.7738 40.0391C19.548 40.0429 19.3219 40.0467 19.0949 40.049L19.0957 47.0821L20.0325 47.0782L20.0324 44.1272L21.4076 44.1329C21.4645 44.1319 21.5213 44.1313 21.5778 44.1306C22.0324 44.1253 22.472 44.1201 22.8913 43.9463C25.0201 43.0642 24.5401 40.2263 22.2282 40.0687C21.3938 40.0118 20.5859 40.0254 19.7738 40.0391ZM20.4344 40.8442C20.2959 40.8484 20.1616 40.8525 20.0333 40.8543L20.0319 43.3072C20.1803 43.3091 20.3358 43.3141 20.4957 43.3193C21.3217 43.346 22.262 43.3765 22.9113 42.9882C23.3183 42.4914 23.5894 41.7134 22.9805 41.2752C22.3025 40.7872 21.2906 40.8181 20.4344 40.8442Z" fill="#FEFEFE" fill-opacity="0.6"/>
</g>
<g id="Vector_12">
<path fill-rule="evenodd" clip-rule="evenodd" d="M28.0661 40.0463L27.0026 40.0459C26.8242 40.521 26.6393 41.018 26.45 41.5268C25.7602 43.3813 25.0116 45.3937 24.2999 47.0784L25.2551 47.0822C25.3207 46.9066 25.3865 46.7283 25.4526 46.5491C25.6167 46.1045 25.7829 45.6539 25.9549 45.224L28.1008 45.2258L29.0902 45.2231L29.8095 47.0815L30.7592 47.0743L28.9727 42.4258C28.8905 42.2118 28.7966 41.9758 28.6992 41.7313C28.4718 41.1598 28.2257 40.5414 28.0661 40.0463ZM28.6411 44.0026C28.3226 43.1536 27.6433 41.3432 27.493 41.1798L26.2613 44.388L28.7857 44.3858C28.7588 44.3163 28.7079 44.1806 28.6411 44.0026Z" fill="#FEFEFE" fill-opacity="0.6"/>
</g>
<path id="Vector_13" d="M45.4072 40.0478L46.3864 40.0459C47.6018 41.7555 48.851 43.7071 50.0281 45.4631C50.0489 43.6713 50.0308 41.8425 50.0318 40.0476L50.9527 40.0471L50.9549 44.6174C50.955 45.2338 50.9907 46.4133 50.9367 46.9959L50.803 47.0844C50.6463 47.0901 50.4609 47.1119 50.3077 47.0775C49.9126 46.989 46.7723 42.1039 46.3039 41.4074L46.3018 47.0784L45.4075 47.0798L45.4072 40.0478Z" fill="#FEFEFE" fill-opacity="0.6"/>
<path id="Vector_14" d="M52.9717 40.0487L57.5633 40.0449L57.5631 40.8615L53.9038 40.8608L53.9041 43.0213C54.3119 43.0187 56.8044 42.9579 56.9676 43.0793C57.0131 43.2947 56.9825 43.4982 56.964 43.718C56.7115 44.0243 54.6249 43.8012 53.9618 43.88L53.9038 43.8873L53.9045 46.2497L57.5633 46.249C57.5655 46.4957 57.5976 46.8215 57.485 47.0291C57.0013 47.142 53.6463 47.0847 52.9724 47.0823L52.9717 40.0487Z" fill="#FEFEFE" fill-opacity="0.6"/>
<path id="Vector_15" d="M38.2812 40.0465L43.9594 40.0442C43.9853 40.1944 43.9822 40.6841 43.985 40.861L41.6029 40.8607L41.6065 44.8457L41.6049 47.0776L40.6609 47.0802L40.6652 40.8612L38.285 40.8621L38.2812 40.0465Z" fill="#FEFEFE" fill-opacity="0.6"/>
<path id="Vector_16" d="M59.6736 13.9968C60.4643 13.875 61.2073 14.4083 61.3466 15.1977C61.4858 15.9871 60.9702 16.7433 60.1858 16.9004C59.6626 17.0052 59.1237 16.818 58.7775 16.4111C58.4314 16.0042 58.3321 15.4414 58.5181 14.9403C58.7041 14.4391 59.1463 14.0781 59.6736 13.9968Z" fill="#FEFEFE" fill-opacity="0.6"/>
</g>
<defs>
<clipPath id="clip0_0_68">
<rect width="147" height="62" fill="white"/>
</clipPath>
</defs>
</svg>
