<svg preserveAspectRatio="none" width="100%" height="100%" overflow="visible" style="display: block;" viewBox="0 0 407.701 62.1555" fill="none" xmlns="http://www.w3.org/2000/svg">
<g id="Group 427320778" opacity="0.6">
<g id="Vector">
<path fill-rule="evenodd" clip-rule="evenodd" d="M61.6873 13.0947C60.511 13.1036 59.3359 13.1125 58.1632 13.1161C57.9196 24.3158 57.9054 37.5188 58.137 48.7247L67.4882 48.721L67.6325 48.7213C74.7693 48.7382 80.4255 48.7515 86.3205 43.559C90.1144 39.9563 91.3767 36.6588 91.6611 31.5579C92.265 20.7276 83.8767 13.6438 73.5384 13.2028C69.6043 13.035 65.6391 13.0649 61.6873 13.0947ZM67.7407 20.2406C67.1611 20.2593 66.6058 20.2772 66.0857 20.2859L66.0903 41.6338C66.9745 41.6478 67.8167 41.6795 68.6253 41.7098C73.1405 41.8795 76.6047 42.0098 80.4587 38.8102C80.5326 38.7164 80.6057 38.624 80.678 38.5328C81.4647 37.5394 82.1508 36.673 82.6017 35.4745C84.3378 30.8602 83.2223 25.2661 79.2299 22.1635C76.3963 19.9614 71.5444 20.1179 67.7407 20.2406Z" fill="white"/>
</g>
<g id="Vector_2">
<path fill-rule="evenodd" clip-rule="evenodd" d="M272.575 13.029C270.574 13.0436 268.574 13.0581 266.582 13.0543C266.577 16.1606 266.564 19.294 266.551 22.4402C266.516 31.2789 266.479 40.2177 266.603 48.9351L274.486 48.8492L274.482 37.0998C275.109 37.1 275.757 37.1047 276.413 37.1095C277.958 37.1208 279.547 37.1324 281.012 37.0858C282.011 38.9099 283.31 40.7812 284.588 42.6225C286.097 44.7972 287.577 46.9301 288.502 48.894C288.846 48.885 289.193 48.8746 289.542 48.8641C290.613 48.8321 291.699 48.7996 292.753 48.8048C293.246 48.8067 293.752 48.8058 294.263 48.8049C295.428 48.8027 296.618 48.8006 297.736 48.8317C297.191 47.404 294.886 44.1907 292.738 41.1973C291.343 39.2537 290.015 37.4027 289.279 36.1936L289.394 36.123L289.623 35.9827C293.134 33.8373 295.561 32.3543 296.64 27.9283C298.743 19.3059 292.452 13.3013 284.056 13.0752C280.263 12.973 276.417 13.001 272.575 13.029ZM276.414 20.2453C275.75 20.2684 275.094 20.2911 274.454 20.3047C274.39 23.7357 274.401 27.1678 274.489 30.5984C275.247 30.5985 276.026 30.6183 276.814 30.6382C280.465 30.7307 284.314 30.8281 287.234 29.0098C289.598 26.2745 289.357 23.6676 286.765 21.141C283.659 19.9942 279.909 20.1242 276.414 20.2453Z" fill="#24F4FD"/>
</g>
<path id="Vector_3" d="M250.055 13.1265L257.856 13.0937L257.865 38.8148C257.865 40.3084 257.973 47.9103 257.718 48.7183L257.334 48.821C255.315 48.7206 252.914 48.7666 250.866 48.7553C249.754 46.8 246.747 43.3285 245.274 41.3898C241.338 36.21 237.191 31.1519 233.319 25.9184C233.046 28.2297 233.154 32.0795 233.158 34.4579L233.191 48.8298C230.61 48.7365 227.888 48.7879 225.294 48.7974L225.317 13.1063L232.602 13.1284C233.749 14.18 235.53 16.6141 236.547 17.93L244.805 28.5942C246.294 30.5066 248.33 33.3653 250.051 34.8743C250.338 28.5425 250.055 19.6528 250.055 13.1265Z" fill="white"/>
<path id="Vector_4" d="M199.252 12.9365C205.773 11.7773 211.184 13.8666 216.344 17.6557C214.683 19.531 213.013 21.3613 211.524 23.3789C207.294 20.5447 202.455 18.4449 197.355 20.8322C191.867 23.4014 189.783 30.7399 192.44 36.0828C195.833 42.9034 203.555 43.4023 209.826 40.3733L209.722 34.9421L201.694 34.961C201.697 32.7232 201.203 30.7038 201.94 28.7855C202.669 28.2339 202.79 28.4191 203.854 28.4168L217.475 28.4085L217.518 43.6214C209.819 49.8576 198.282 51.7991 189.995 45.553C186.264 42.7257 183.814 38.5276 183.187 33.8882C182.5 28.7999 183.921 23.6515 187.119 19.6358C190.126 15.7996 194.444 13.517 199.252 12.9365Z" fill="white"/>
<path id="Vector_5" d="M399.706 13.0219C402.539 12.8882 404.793 12.8611 407.64 12.9141C407.711 24.9265 407.72 36.9388 407.668 48.9511L400.8 48.944L400.055 48.9182C399.208 47.9258 399.699 36.5568 399.711 34.4429L384.767 34.4422C384.693 39.2712 384.696 44.1012 384.776 48.9302L376.755 48.9203C376.805 36.9693 376.792 25.0182 376.716 13.0672C379.069 13.0569 381.421 13.0242 383.774 12.9691C384.034 12.9562 384.222 13.0251 384.489 13.0826C385.026 14.194 384.707 25.3139 384.682 27.3651C389.337 27.5331 395.001 27.3616 399.731 27.3472C399.607 22.7268 399.706 17.6751 399.706 13.0219Z" fill="#24F4FD"/>
<path id="Vector_6" d="M98.99 13.1145L126.279 13.092C126.286 15.4727 126.257 17.8535 126.192 20.233L106.862 20.2298V27.4503L124.218 27.4926L124.207 34.2262C118.97 34.1377 113.558 34.205 108.308 34.2034C107.766 34.1864 107.595 34.1361 107.112 34.3962C106.501 35.6092 106.847 40.1101 106.882 41.6924C112.524 41.9477 120.947 41.8496 126.637 41.6777C126.575 44.0366 126.592 46.3968 126.688 48.7548C117.798 48.7491 107.75 48.5211 98.9528 48.8541L98.99 13.1145Z" fill="white"/>
<path id="Vector_7" d="M327.498 12.966C330.016 13.0973 332.794 13.0612 335.335 13.0768C335.025 21.2637 335.813 30.6722 334.653 38.6035C333.033 47.4822 323.052 50.5777 315.302 48.9258C304.052 46.5276 303.547 37.8467 303.632 28.5429V13.0396L311.501 13.0888L311.474 26.6115C311.469 29.387 311.267 32.3195 311.717 35.0606C311.966 36.5664 312.441 38.0448 313.337 39.2955C314.374 40.742 315.869 41.5954 317.616 41.8744C319.998 42.2547 322.817 41.9888 324.796 40.4867C329.444 36.9624 326.551 19.0487 327.468 13.1366C327.477 13.0796 327.489 13.023 327.498 12.966Z" fill="#24F4FD"/>
<path id="Vector_8" d="M353.032 12.9243C359.442 12.5982 363.36 13.7689 368.669 17.3171C367.417 19.4149 366.098 21.1317 364.837 23.3904C361.308 21.4261 359.24 19.5756 354.771 19.7932C353.114 19.7744 349.861 20.9786 350.426 23.1539C351.354 26.7069 360.363 27.9142 363.516 29.1858C364.773 29.681 365.933 30.3956 366.942 31.296C372.941 36.7184 369.809 46.0931 362.532 48.3552C360.271 49.0575 358.838 49.0118 356.492 49.0667C350.097 48.9858 346.371 47.7407 341.192 43.6894C342.416 41.8018 344.314 39.8107 345.847 38.0992C350.373 41.8995 357.046 44.2485 362.126 40.1708L362.031 37.403C357.25 34.1311 351.517 34.6158 346.497 31.3631C341.75 28.2879 341.249 22.5929 344.257 17.9937C346.109 15.1639 349.686 13.4667 353.032 12.9243Z" fill="#24F4FD"/>
<path id="Vector_9" d="M145.049 12.9535C150.007 12.6125 155.238 14.4161 159.05 17.5819C157.405 19.7355 156.547 20.9456 155.211 23.2764C152.146 21.4668 149.6 20.0665 145.994 19.9833C143.88 19.8904 140.858 20.2579 140.893 22.9912C140.932 25.9883 144.987 26.6863 147.377 27.3256C153.222 28.8751 160.245 30.6192 160.122 38.059C159.964 47.6062 152.861 49.3366 144.843 49.1449C138.81 48.5416 136.279 47.2447 131.479 43.531C132.929 41.7745 134.408 40.0419 135.915 38.3339C140.417 40.7422 142.812 42.7648 148.472 42.339C150.23 42.2066 152.867 40.2228 152.192 38.7135C149.846 33.4701 139.982 34.8658 135.958 30.9635C133.903 28.9615 133.308 27.8604 132.989 25.1221C132.146 17.1356 137.889 13.5807 145.049 12.9535Z" fill="white"/>
<path id="Vector_10" d="M167.616 13.0997L175.459 13.1099C175.271 24.7724 175.789 37.2581 175.426 48.7572C172.759 48.7457 170.208 48.7186 167.54 48.8834C167.419 37.2912 167.372 24.6609 167.616 13.0997Z" fill="white"/>
<g id="Vector_11">
<path d="M30.4885 31.7466C29.055 31.9843 23.3254 31.7416 21.9385 31.3233L19.5997 33.1014C19.3991 33.9403 18.5531 35.2094 18.0394 35.9287C14.8169 40.4388 11.6517 44.981 8.48552 49.5245C7.008 51.6448 5.53027 53.7654 4.04643 55.8832C3.85277 56.1596 3.45654 56.7655 2.98533 57.4861L2.98498 57.4867C1.90648 59.136 0.435378 61.3858 0.100896 61.6602L3.05176e-05 61.9433L0.160866 62.1555C7.28428 56.9774 14.927 51.9921 22.0481 46.7446C24.8685 44.6661 28.6295 42.3062 31.2582 40.1599C31.5297 39.3686 32.1603 38.9504 32.8819 38.4718C33.3575 38.1564 33.8726 37.8147 34.3507 37.3228C34.762 36.396 34.5257 35.7408 34.2328 34.9284C34.036 34.3825 33.8136 33.7656 33.7448 32.9477L33.7259 32.7027C33.2898 32.4087 32.3809 32.3734 31.5802 32.3422C31.3123 32.3318 31.0565 32.3218 30.8346 32.3028L30.4885 31.7466Z" fill="#24F4FD"/>
<path d="M18.0394 35.9287C18.5531 35.2094 19.3991 33.9403 19.5997 33.1014L19.3624 33.2475C14.4754 36.2559 2.74162 43.4789 2.06447 48.5204C1.95272 49.3527 1.70454 50.8026 1.42094 52.4596C0.846817 55.8138 0.127503 60.0164 0.100896 61.6602C0.435378 61.3858 1.90648 59.136 2.98498 57.4867L2.98533 57.4861C3.45654 56.7655 3.85277 56.1596 4.04643 55.8832C5.53027 53.7654 7.008 51.6448 8.48552 49.5245C11.6517 44.981 14.8169 40.4388 18.0394 35.9287Z" fill="#24F4FD"/>
<path d="M14.6175 31.0978L12.0326 29.186C11.9754 29.2641 11.9134 29.351 11.848 29.4428C11.5467 29.8658 11.1709 30.3933 10.8319 30.6467C10.3231 30.7139 9.48175 30.7655 8.5758 30.8212C6.94278 30.9214 5.09998 31.0345 4.61763 31.2746C4.50874 32.2508 4.02862 34.2954 3.578 36.2144C3.28601 37.4579 3.00639 38.6486 2.8482 39.4617C5.48062 37.7151 12.4342 32.967 14.6175 31.0978Z" fill="#24F4FD"/>
<path d="M2.64003 23.0444C3.02305 24.5256 4.56409 30.1257 4.61763 31.2746C5.09998 31.0345 6.94278 30.9214 8.5758 30.8212C9.48175 30.7655 10.3231 30.7139 10.8319 30.6467C11.1709 30.3933 11.5467 29.8658 11.848 29.4428C11.9134 29.351 11.9754 29.2641 12.0326 29.186C11.7084 28.9646 11.2711 28.6616 10.7602 28.3077C8.28492 26.5928 4.08159 23.6807 2.64003 23.0444Z" fill="#24F4FD"/>
<path d="M1.46409 10.0296C2.01139 14.0108 2.79397 17.62 6.43713 19.9173C7.41596 20.5344 8.95917 21.6856 10.5569 22.8774C12.7429 24.5081 15.031 26.2148 16.1149 26.734C16.7099 26.3854 16.2447 26.9487 16.9563 26.4584L16.9859 25.997C16.2851 25.2916 16.0774 25.0285 15.6346 24.1205C13.4744 22.6999 11.0763 19.2292 9.55804 17.34C8.31754 15.7968 3.21536 10.5088 1.46409 10.0296Z" fill="#24F4FD"/>
<path d="M0.131224 0C-0.120599 0.96548 1.17275 8.60911 1.46409 10.0296C3.21536 10.5088 8.31754 15.7968 9.55804 17.34C11.0763 19.2292 13.4744 22.6999 15.6346 24.1205C16.3991 24.6314 17.606 25.7168 18.2423 25.9305C15.9476 22.2749 13.2936 18.6069 10.6625 14.9705C8.9594 12.6166 7.26586 10.276 5.68557 7.96056C5.22043 7.27906 4.70839 6.56229 4.1845 5.82894C2.91499 4.05187 1.57589 2.17737 0.665887 0.471131L0.131224 0Z" fill="#24F4FD"/>
<path d="M8.39037 5.49365C6.07365 3.82791 3.23765 1.51889 0.665887 0.471131C1.57589 2.17737 2.91499 4.05187 4.1845 5.82894C4.70839 6.56229 5.22043 7.27906 5.68557 7.96056C7.26586 10.276 8.9594 12.6166 10.6625 14.9705C13.2936 18.6069 15.9476 22.2749 18.2423 25.9305C19.0559 26.6299 20.8591 29.4509 21.2037 30.4491L21.9385 31.3233C23.3254 31.7416 29.055 31.9843 30.4885 31.7466C30.7571 31.617 31.2686 31.6191 31.5992 31.5933L31.7681 31.3373C31.0595 28.701 31.4188 25.4132 31.6856 22.6878C31.2465 22.2771 31.1792 22.1913 31.008 21.6161C23.6406 15.9956 15.9097 10.8997 8.39037 5.49365Z" fill="#24F4FD"/>
<path d="M31.008 21.6161C31.1792 22.1913 31.2465 22.2771 31.6856 22.6878C31.4188 25.4132 31.0595 28.701 31.7681 31.3373L31.5992 31.5933C31.2686 31.6191 30.7571 31.617 30.4885 31.7466L30.8346 32.3028C32.3257 32.2476 42.7408 31.3339 43.1879 30.8954C42.8273 30.4683 42.6407 30.3152 42.2414 29.9876L42.142 29.906L42.2498 29.513C41.1453 28.4223 32.7207 22.6731 31.008 21.6161Z" fill="#24F4FD"/>
<path d="M33.7259 32.7027L33.7448 32.9477C33.8136 33.7656 34.036 34.3825 34.2328 34.9284C34.5257 35.7408 34.762 36.396 34.3507 37.3228C33.8726 37.8147 33.3575 38.1564 32.8819 38.4718C32.1603 38.9504 31.5297 39.3686 31.2582 40.1599C31.9935 39.754 33.6968 38.5212 34.9346 37.6253C35.3354 37.3352 35.6873 37.0805 35.9418 36.9006C38.6953 34.937 41.4798 33.0171 44.2942 31.1418C43.7493 30.6285 43.175 30.2015 42.5829 29.7613C42.4724 29.6792 42.3614 29.5967 42.2498 29.513L42.142 29.906L42.2414 29.9876C42.6407 30.3152 42.8273 30.4683 43.1879 30.8954C42.7408 31.3339 32.3257 32.2476 30.8346 32.3028C31.0565 32.3218 31.3123 32.3318 31.5802 32.3422C32.3809 32.3734 33.2898 32.4087 33.7259 32.7027Z" fill="#24F4FD"/>
<path d="M18.2423 25.9305C17.606 25.7168 16.3991 24.6314 15.6346 24.1205C16.0774 25.0285 16.2851 25.2916 16.9859 25.997L16.9563 26.4584C16.2447 26.9487 16.7099 26.3854 16.1149 26.734C16.3855 26.9246 16.7059 27.1467 17.0547 27.3886C18.4371 28.347 20.265 29.6144 21.2037 30.4491C20.8591 29.4509 19.0559 26.6299 18.2423 25.9305Z" fill="#24F4FD"/>
</g>
</g>
</svg>
