<svg preserveAspectRatio="none" width="100%" height="100%" overflow="visible" style="display: block;" viewBox="0 0 132 62" fill="none" xmlns="http://www.w3.org/2000/svg">
<g id="image 4 [Vectorized]" opacity="0.6">
<g id="Vector">
<path fill-rule="evenodd" clip-rule="evenodd" d="M71.2817 41.9829L68.8466 42.001L68.8428 48.8945C68.8448 49.0993 68.8459 49.3072 68.8469 49.5162C68.8493 49.9722 68.8517 50.4333 68.864 50.8783C69.0549 50.8791 69.2558 50.8783 69.4607 50.8775C69.9414 50.8756 70.4435 50.8737 70.8859 50.891C70.9194 50.4329 70.9131 49.7184 70.9076 49.0986C70.9053 48.8477 70.9032 48.6124 70.904 48.4159C71.0738 48.4161 71.2474 48.4182 71.4237 48.4204C72.8911 48.4384 74.5375 48.4586 75.629 47.3904C76.7853 46.2591 76.7718 44.1361 75.6155 43.007C74.5371 41.9535 73.0105 41.9675 71.5962 41.9804C71.4906 41.9814 71.3857 41.9824 71.2817 41.9829ZM71.3646 43.6668C71.2017 43.6729 71.0479 43.6787 70.9085 43.6803C70.8943 44.6888 70.893 45.6976 70.9046 46.7061C71.0537 46.708 71.2082 46.7127 71.366 46.7175C72.2599 46.7449 73.2594 46.7755 73.9655 46.3041C74.3303 45.8568 74.4077 45.5818 74.3683 44.9993C74.2713 43.558 72.5685 43.6218 71.3646 43.6668Z" fill="white"/>
</g>
<g id="Vector_2">
<path fill-rule="evenodd" clip-rule="evenodd" d="M83.8698 45.0352C82.3732 43.3417 79.8441 43.7247 78.0536 44.7078C78.098 44.7933 78.1541 44.9045 78.2164 45.0278C78.4034 45.3982 78.6455 45.8778 78.7915 46.0972C79.8918 45.5102 82.109 44.8513 82.3983 46.6723C82.3225 46.8129 81.835 46.8279 81.2116 46.8471C80.0496 46.8828 78.4155 46.933 78.0955 47.8381C77.7242 48.8894 77.6559 49.3717 78.352 50.2664C79.5863 51.3882 81.3246 51.2121 82.5401 50.1678L82.5015 50.8645L84.3642 50.8809C84.3665 50.6124 84.3754 50.3038 84.385 49.9705C84.4328 48.3144 84.4981 46.0465 83.8698 45.0352ZM81.9732 47.9931C81.5839 47.9894 81.17 47.9854 80.8212 48.0026C78.9965 48.2936 79.8073 49.9098 81.2189 49.624C81.3001 49.6075 81.38 49.5894 81.4599 49.5697C82.3423 49.1741 82.3797 48.9042 82.4196 47.9961C82.2784 47.996 82.1278 47.9946 81.9732 47.9931Z" fill="white"/>
</g>
<path id="Vector_3" fill-rule="evenodd" clip-rule="evenodd" d="M57.8284 37.8046C55.3209 38.2344 53.0974 36.7947 53.4128 34.1351C53.776 31.0715 57.4621 30.1387 59.3374 32.6078C59.7812 33.4387 59.8863 33.9466 59.8897 34.8978C59.1174 34.8981 56.2989 34.7834 55.7012 34.9271L54.2968 34.8948C54.5353 35.9686 54.9926 36.7111 56.1298 37.0041C57.1949 37.2943 58.178 36.9993 58.9687 36.2495L59.5178 36.819C58.9527 37.3659 58.58 37.5713 57.8284 37.8046ZM54.3753 33.7721C54.3333 33.9142 54.2948 34.0572 54.2599 34.2011C55.216 34.2158 56.7523 34.2566 57.7115 34.2014C58.1571 34.2063 58.6028 34.2061 59.0484 34.2007L58.8197 33.3985C57.7301 31.3202 55.0159 31.6435 54.3753 33.7721Z" fill="white"/>
<g id="Vector_4">
<path fill-rule="evenodd" clip-rule="evenodd" d="M68.2607 28.4888L67.3667 28.479L67.357 32.5053C66.8208 31.7928 66.2401 31.3544 65.3261 31.2245C64.4362 31.0969 63.5322 31.3287 62.813 31.869C62.1227 32.398 61.6719 33.1813 61.5608 34.0449C61.3817 35.3641 61.8666 36.5909 62.9627 37.3676C64.5765 38.2387 66.1556 38.069 67.4073 36.6411C67.3963 37.0502 67.388 37.4594 67.3815 37.8685L68.2619 37.8871L68.2607 28.4888ZM67.3809 34.0704C67.1147 32.7231 65.8179 31.8399 64.4702 32.0877C63.5809 32.2511 62.8485 32.8815 62.5532 33.7374C62.2578 34.5934 62.4453 35.5425 63.0438 36.2212C63.6423 36.8999 64.5591 37.2031 65.4434 37.0149C66.784 36.7293 67.6471 35.4176 67.3809 34.0704Z" fill="white"/>
</g>
<path id="Vector_5" d="M20.2981 6.83878C21.0323 6.78386 22.0557 6.76132 22.794 6.80163C26.1461 6.98486 30.3768 6.36853 33.5813 7.19992C39.3971 8.70869 39.9001 17.056 34.7746 19.8166C32.0121 21.3046 28.22 20.7721 25.3396 19.9065C23.0564 19.118 20.4022 18.0026 18.7813 16.1424C19.7124 16.0458 22.9594 16.1459 23.4804 15.9159C23.4916 15.7432 23.4709 15.6729 23.3078 15.5713C20.8423 14.035 16.9384 12.4632 15.3056 9.93081C17.0428 9.72576 23.3273 9.98708 24.1476 9.69843L24.2046 9.573C23.7606 8.76118 20.4555 7.96044 20.2981 6.83878Z" fill="#FE622E"/>
<path id="Vector_6" d="M30.8346 8.77436C33.578 8.51483 36.0141 10.524 36.2816 13.2666C36.5491 16.0092 34.5469 18.4512 31.805 18.7264C29.052 19.0028 26.598 16.9908 26.3295 14.237C26.061 11.4832 28.0801 9.03497 30.8346 8.77436Z" fill="#431A83"/>
<path id="Vector_7" d="M31.3862 9.75179C33.0471 9.87837 34.3419 10.5017 35.1193 12.1097C35.3007 12.4849 35.3794 13.322 35.2181 13.71C33.4382 13.9099 34.0767 13.3931 33.4336 12.1393C33.0711 11.4325 32.0432 11.1738 31.3056 10.994C31.31 10.6007 31.3557 10.1484 31.3862 9.75179Z" fill="#FE622E"/>
<g id="Vector_8">
<path fill-rule="evenodd" clip-rule="evenodd" d="M24.3917 43.8935C24.2139 43.9008 24.0362 43.9123 23.8589 43.9277C21.8747 44.3997 20.6929 46.0149 21.1799 48.0567C21.3744 48.9053 21.9002 49.6404 22.6399 50.0974C23.9887 50.9192 25.3962 50.685 26.6353 49.7989L26.6316 49.8441C26.5835 50.4485 26.5357 51.0474 26.0254 51.4511C24.9127 52.3312 23.2415 51.6826 22.1922 51.1056C22.0091 51.5085 21.8341 51.8239 21.617 52.2103C21.596 52.2654 21.5788 52.3047 21.5657 52.3349C21.5471 52.3774 21.5364 52.402 21.5337 52.4274C21.5299 52.462 21.541 52.4982 21.567 52.5837L21.5721 52.6007C22.5972 53.3942 24.4618 53.565 25.693 53.3934C28.6044 52.9876 28.5902 50.7197 28.5765 48.5311C28.5755 48.3846 28.5746 48.2384 28.5746 48.0932L28.5694 44.0246C27.9455 44.0223 27.3216 44.0283 26.6978 44.0424L26.6978 44.8209C25.9811 44.15 25.4161 43.8579 24.3917 43.8935ZM26.5821 46.9558C26.4234 46.0054 25.5257 45.364 24.5773 45.5234C23.6295 45.6828 22.9899 46.5815 23.1485 47.5313C23.307 48.481 24.2037 49.1223 25.1516 48.9639C26.1002 48.8054 26.7407 47.9062 26.5821 46.9558Z" fill="white"/>
</g>
<g id="Vector_9">
<path fill-rule="evenodd" clip-rule="evenodd" d="M16.3568 41.9935L14.2455 41.9947C13.9783 42.7374 13.5318 43.7144 13.14 44.5717C13.0101 44.8562 12.8861 45.1275 12.7767 45.3727L10.328 50.8598C11.0371 50.8749 11.7463 50.8843 12.4556 50.8878C12.7346 50.225 12.9734 49.6473 13.208 48.9654C14.2729 48.9408 15.3382 48.9353 16.4033 48.949L17.3202 48.9283C17.3658 49.0381 17.4231 49.1728 17.4862 49.321C17.7064 49.8383 17.9967 50.5204 18.1047 50.8845C18.3208 50.8825 18.542 50.8817 18.7652 50.8809H18.7654C19.281 50.8792 19.8069 50.8773 20.3025 50.8601C19.4789 49.0635 18.669 47.2605 17.873 45.4514C17.7621 45.204 17.6294 44.9164 17.4879 44.6096L17.4878 44.6094C17.0809 43.7274 16.6013 42.6878 16.3568 41.9935ZM16.6351 47.3049C16.4104 46.7339 15.4206 44.2184 15.2629 44.0876C15.1364 44.398 15.0033 44.7161 14.8687 45.0375C14.5409 45.8203 14.2048 46.6229 13.9377 47.3825L15.4985 47.3696L16.6634 47.3768C16.6561 47.3583 16.6466 47.3342 16.6351 47.3049Z" fill="white"/>
</g>
<path id="Vector_10" d="M62.3056 8.77405L66.2997 8.75179C66.596 9.73271 67.0288 10.7604 67.3308 11.7464C67.8244 13.3562 68.2861 14.8711 68.8723 16.4555C69.5481 14.7296 69.9482 12.9662 70.5792 11.2281C70.8755 10.413 71.1625 9.5909 71.4252 8.76533C72.705 8.74816 74.023 8.76778 75.3056 8.7716L75.2906 17.7163L73.1396 17.7036L73.1415 12.4641C73.149 11.6557 73.1387 10.8325 73.1368 10.0226C72.1067 12.532 71.3934 15.1675 70.4427 17.7518C69.4266 17.6811 68.1338 17.7128 67.0905 17.7145C66.1455 15.21 65.4042 12.5993 64.4675 10.0361C64.3983 12.4801 64.4647 15.2462 64.4656 17.7095L62.3088 17.7083L62.3056 8.77405Z" fill="white" fill-opacity="0.6"/>
<path id="Vector_11" d="M110.612 43.9278C110.872 43.9067 111.133 43.8957 111.394 43.8946C113.833 43.9001 114.856 45.7679 114.834 47.9797C113.129 48.0152 111.341 47.9926 109.63 47.9959C109.676 48.1188 109.726 48.2506 109.782 48.3689C109.989 48.803 110.359 49.1372 110.81 49.2983C111.911 49.6908 112.517 49.1462 113.316 48.7692L113.416 48.8315L114.357 49.9223C113.005 51.1696 110.839 51.3756 109.276 50.4269C108.504 49.9688 107.95 49.2168 107.741 48.3426C107.2 46.1317 108.486 44.4391 110.612 43.9278Z" fill="white"/>
<path id="Vector_12" d="M111.035 45.4114C112.177 45.35 112.596 45.8205 112.973 46.8107L111.601 46.8199L109.608 46.8226C109.856 45.98 110.183 45.6262 111.035 45.4114Z" fill="#431A83"/>
<g id="Vector_13">
<path fill-rule="evenodd" clip-rule="evenodd" d="M33.9815 43.8928C33.7636 43.8957 33.5459 43.907 33.3289 43.9266C31.1692 44.4513 29.8951 46.1319 30.46 48.3768C30.677 49.2503 31.2393 49.9977 32.0178 50.4469C33.6096 51.3858 35.6995 51.1564 37.0657 49.9135L36.1961 48.9349L36.0529 48.7917C35.9088 48.803 35.727 48.9119 35.5612 49.0111C35.4846 49.057 35.4114 49.1008 35.3469 49.132C34.0047 49.7817 32.8808 49.375 32.3133 48.0041C33.3306 47.9828 34.3493 47.9859 35.3675 47.989C36.0931 47.9911 36.8187 47.9933 37.5432 47.9867L37.5428 47.9494C37.5368 47.3783 37.532 46.9192 37.383 46.3629C36.9625 44.7927 35.5702 43.8756 33.9815 43.8928ZM35.6609 46.8071C35.3258 45.7957 34.7911 45.3167 33.6686 45.4141C33.0531 45.6255 32.74 45.8055 32.4336 46.4324C32.3725 46.5604 32.3149 46.69 32.2609 46.8213L34.2725 46.8206C34.4017 46.8197 34.5342 46.8197 34.668 46.8196C35.001 46.8195 35.3419 46.8194 35.6609 46.8071Z" fill="white"/>
</g>
<path id="Vector_14" fill-rule="evenodd" clip-rule="evenodd" d="M78.5174 8.79882C78.0366 8.8128 77.6186 8.82495 77.3056 8.8269L77.3148 17.7486L79.332 17.7502C79.3325 17.5473 79.3319 17.3371 79.3312 17.1227C79.3287 16.3076 79.3261 15.4322 79.3867 14.6735L81.6865 14.7016C82.4654 15.704 83.2292 16.7201 83.9779 17.7494L85.6224 17.7518C85.6844 17.7492 85.7434 17.7495 85.7999 17.7498C85.9879 17.7509 86.1475 17.7518 86.2937 17.6439C85.6275 16.7043 84.7552 15.5685 84.0351 14.6589C84.8477 14.381 85.6174 13.9073 86.0161 13.0542C86.3316 12.3786 86.3963 11.4339 86.1751 10.7158C85.9614 10.0245 85.471 9.49853 84.8696 9.18589C83.8278 8.64441 80.589 8.73858 78.5174 8.79882ZM80.0282 10.6181C79.7636 10.6321 79.5414 10.6438 79.385 10.6447C79.383 10.7011 79.381 10.7568 79.379 10.8121C79.3533 11.5286 79.3306 12.1623 79.3774 12.8963C79.554 12.8968 79.7817 12.9013 80.0422 12.9064C81.3134 12.9315 83.3646 12.9719 84.0536 12.6424C85.5012 10.3291 81.8061 10.5243 80.0282 10.6181Z" fill="white" fill-opacity="0.6"/>
<path id="Vector_15" d="M55.5183 44.0277C56.2212 44.0239 56.9242 44.0261 57.6271 44.0339C58.1871 45.596 58.923 47.0994 59.466 48.6688C60.0989 47.2599 60.8319 45.4756 61.3796 44.0308L63.3192 44.0308C62.5083 45.9917 61.6847 47.9473 60.8485 49.8975C60.5466 50.6407 60.2484 51.4735 59.822 52.1495C58.8122 53.7508 56.9585 53.8358 55.4873 52.839C55.7347 52.3738 55.9746 51.9048 56.2071 51.4319C56.3226 51.4943 56.4392 51.5546 56.557 51.6125C57.2424 51.9472 58.6652 51.8668 58.3749 50.7923C58.1921 50.1153 57.7474 49.2089 57.4658 48.5487C56.8246 47.0383 56.1754 45.5312 55.5183 44.0277Z" fill="white"/>
<path id="Vector_16" d="M42.9953 43.9259C45.703 43.7019 46.4909 45.1981 46.4207 47.6454C46.3911 48.6759 46.4127 49.8436 46.4067 50.8804L44.4118 50.8753C44.4084 50.3299 44.435 49.7728 44.4191 49.2289C44.3731 47.6545 44.9051 45.1315 42.4044 45.7146C40.9298 46.4038 41.3694 49.3892 41.3768 50.8776L39.385 50.8734C39.3565 48.6135 39.3781 46.3079 39.3761 44.0442C39.8524 44.0325 40.7041 43.9738 41.1764 44.0787C41.4204 44.133 41.2241 44.3745 41.3528 44.6672C42.1991 44.1728 41.9708 44.1807 42.9953 43.9259Z" fill="white"/>
<path id="Vector_17" d="M102.298 43.9264C105.733 43.6472 105.755 45.8642 105.739 48.471L105.721 50.8795L103.76 50.8762C103.74 50.2578 103.753 49.6011 103.759 48.9792C103.77 47.4861 104.078 45.0179 101.682 45.7421C100.241 46.509 100.69 49.394 100.687 50.8808L98.7248 50.874C98.6294 48.8768 98.71 46.1127 98.7042 44.0416C99.2204 44.0323 100.07 43.9685 100.548 44.0593C100.725 44.2699 100.521 44.4089 100.662 44.6514C101.318 44.2852 101.574 44.1047 102.298 43.9264Z" fill="white"/>
<path id="Vector_18" d="M101.575 8.79731C103.465 8.62738 105.044 8.93815 106.782 9.64732L106.781 11.5355C106.187 11.2813 105.573 11.0746 104.946 10.9176C103.977 10.6795 100.562 10.1482 100.292 11.4838C100.825 12.8525 105.19 11.9502 106.528 13.2764C106.878 13.5489 107.284 13.9585 107.303 14.4625C107.397 17.0336 105.224 17.5738 103.377 17.7464C101.331 17.7973 100.186 17.4952 98.3915 16.5624C98.3993 15.9281 98.3898 15.2937 98.3649 14.6598C100.4 15.5624 102.013 16.2106 104.307 15.7927C104.704 15.7202 104.954 15.6238 105.196 15.2673C105.343 15.0509 105.31 14.9881 105.27 14.7758C104.316 13.5545 98.8263 14.731 98.358 12.064C97.974 9.88123 99.7664 9.1067 101.575 8.79731Z" fill="white" fill-opacity="0.6"/>
<path id="Vector_19" d="M45.4179 8.80945C47.3139 8.62778 49.0992 8.86624 50.8346 9.65577C50.8005 10.2932 50.8113 10.8765 50.8218 11.515C49.716 11.0242 44.6258 9.732 44.2699 11.4722C44.6891 12.9973 51.119 11.5712 51.298 14.5226C51.4374 16.8203 49.6226 17.5046 47.7034 17.7435C45.4664 17.7969 44.3797 17.613 42.4096 16.6062C42.3678 15.968 42.3909 15.2956 42.4016 14.6536C44.1477 15.4938 45.7467 16.0676 47.7167 15.8914C48.3729 15.8327 49.3741 15.7013 49.244 14.8227C48.5721 13.6931 44.4112 14.3498 43.2616 13.3008C42.8533 12.9284 42.3909 12.6649 42.3275 12.036C42.1068 9.84712 43.5826 9.17021 45.4179 8.80945Z" fill="white" fill-opacity="0.6"/>
<path id="Vector_20" d="M52.3233 8.77303C55.2748 8.72786 58.3446 8.76874 61.3056 8.76902L61.2885 10.6034L54.508 10.5991C54.4925 11.1391 54.5044 11.718 54.5058 12.2613C56.7041 12.2872 58.9558 12.2649 61.1585 12.2663C61.164 12.8713 61.1728 13.4761 61.1849 14.081L57.1865 14.0854L54.507 14.0946L54.4981 15.8989L61.2994 15.9149C61.2744 16.4859 61.291 17.1668 61.2888 17.7468L52.3382 17.7518C52.2722 14.8267 52.3275 11.712 52.3233 8.77303Z" fill="white" fill-opacity="0.6"/>
<path id="Vector_21" d="M51.2527 43.93C53.0527 43.7903 54.0325 44.0701 55.082 45.6185L53.5011 46.4994C52.9641 45.7395 52.2193 45.2634 51.2848 45.6697C50.8349 45.8693 50.4856 46.2439 50.3171 46.7071C49.6161 48.5906 51.5923 50.2321 53.129 48.8401C53.2839 48.6998 53.3394 48.5501 53.534 48.4582L53.7108 48.5362C54.1759 48.7764 54.6338 49.0303 55.084 49.2975C54.5342 50.079 53.9302 50.7013 52.9486 50.9096C50.8977 51.3446 48.734 50.4202 48.2454 48.2428C48.0346 47.3234 48.1964 46.3578 48.6955 45.5579C49.3185 44.5768 50.1644 44.1772 51.2527 43.93Z" fill="white"/>
<g id="Vector_22">
<path fill-rule="evenodd" clip-rule="evenodd" d="M23.7492 31.2144L23.719 31.2162C20.5947 31.6008 19.7229 35.3746 21.9866 37.2122C23.3294 38.3021 25.645 38.0326 26.8475 36.8406L26.3094 36.2533C25.9766 36.5476 25.8713 36.6202 25.4846 36.837C23.6909 37.5504 22.0807 36.8843 21.6383 34.9318C22.6447 34.8921 23.6541 34.8968 24.6621 34.9016C25.5225 34.9056 26.382 34.9097 27.2377 34.8861C27.1095 32.7274 26.186 31.0697 23.7492 31.2144ZM26.3788 34.1949C25.977 32.6108 25.2774 31.9365 23.5926 32.0428C22.3267 32.3603 21.9252 32.9369 21.6357 34.1838C22.4341 34.2194 23.2444 34.2172 24.0478 34.215C24.193 34.2146 24.338 34.2142 24.4827 34.2141C24.6501 34.2132 24.8265 34.2137 25.0066 34.2142C25.4689 34.2156 25.9558 34.2171 26.3788 34.1949Z" fill="white"/>
</g>
<path id="Vector_23" d="M116.406 8.76734L118.294 8.75179C118.267 11.1413 118.322 13.539 118.301 15.9293C118.295 16.5396 118.308 17.143 118.256 17.7518C117.749 17.6993 116.944 17.7153 116.413 17.7099C116.389 16.5628 116.407 15.3442 116.406 14.1913C114.73 14.1865 113.011 14.1609 111.339 14.2109L111.329 17.7342C110.699 17.7016 109.947 17.7172 109.307 17.713L109.306 8.76325L111.335 8.7627L111.338 12.1304C113.029 12.145 114.72 12.1443 116.412 12.1281L116.406 8.76734Z" fill="white" fill-opacity="0.6"/>
<path id="Vector_24" d="M92.9917 42.4835C93.6543 42.4739 94.3375 42.4816 95.0013 42.4808L94.9994 44.1718L96.6894 44.1687L96.6881 45.7345L95.0097 45.734C94.9942 46.5758 94.8718 48.0794 95.0832 48.8731C95.2843 49.6282 96.1177 49.3935 96.6894 49.1773C96.7712 49.5166 96.9639 50.0148 97.087 50.3578C97.1212 50.4568 97.1135 50.4894 97.118 50.5945C96.8756 50.868 96.3284 50.9328 95.9752 50.971C92.3871 51.3598 92.9743 48.0858 92.9994 45.7378L91.9327 45.7329L91.914 44.1745L92.9968 44.16L92.9917 42.4835Z" fill="white"/>
<path id="Vector_25" d="M87.369 8.75988L89.6001 8.75179C89.5982 8.78288 89.5954 8.81414 89.5935 8.84531C89.5342 10.0397 89.2631 14.2939 90.324 15.0941C92.669 16.8625 95.3744 15.54 95.0685 12.6169C94.981 11.7816 95.061 9.76676 95.0629 8.75979C95.7943 8.75197 96.5408 8.76094 97.2741 8.7621L97.2647 10.3428C97.2779 12.2515 97.614 14.9499 96.1059 16.4127C94.3154 18.1976 90.5998 18.1729 88.7632 16.4897C86.8673 14.7517 87.3615 11.1325 87.369 8.75988Z" fill="white" fill-opacity="0.6"/>
<path id="Vector_26" d="M15.5105 28.8961C15.5658 28.8919 15.6213 28.8885 15.6769 28.886C17.0905 28.8226 18.0529 29.3046 19.0668 30.2362C18.8665 30.4563 18.6693 30.6793 18.4756 30.9054C16.8575 29.2731 14.1591 29.3746 12.8066 31.2581C12.2122 32.0937 11.9742 33.132 12.1451 34.1437C12.3067 35.103 12.8431 35.9584 13.6356 36.5206C14.628 37.2208 15.7147 37.2666 16.8708 37.0634C17.4657 36.8713 17.986 36.5301 18.437 36.1024L19.0523 36.7225C18.2498 37.5453 17.4895 37.8764 16.3268 38.0121C12.0421 38.5119 9.60938 33.797 12.2243 30.4823C13.0115 29.4843 14.2376 28.9977 15.5105 28.8961Z" fill="white"/>
<path id="Vector_27" d="M88.5167 44.8676C89.3153 44.1171 89.7755 44.006 90.8351 43.85C90.8467 44.4804 90.8512 45.1109 90.8499 45.7415C90.2047 45.7222 89.6337 45.7019 89.1251 46.192C88.6301 46.6685 88.5882 47.3778 88.5889 48.0198C88.5902 48.9683 88.6121 49.9266 88.6024 50.8748C87.9469 50.8753 87.2592 50.8855 86.6057 50.8739C86.6044 49.1708 86.6392 47.3355 86.5992 45.6447C86.5953 45.1129 86.5999 44.5811 86.6134 44.0495C87.2096 44.0443 87.8051 44.0313 88.4007 44.0104C88.5444 44.1575 88.5277 44.2436 88.5264 44.4903C88.5251 44.6161 88.5212 44.7419 88.5167 44.8676Z" fill="white"/>
<path id="Vector_28" d="M120.223 43.924C120.406 43.906 120.522 43.8748 120.685 43.9565C120.901 44.2725 120.794 45.2678 120.793 45.7266C117.893 45.7026 118.642 47.7567 118.533 49.8662C118.516 50.1949 118.534 50.5447 118.535 50.8762C117.853 50.8824 117.217 50.8864 116.535 50.8605L116.53 44.0376C117.175 44.0267 117.821 44.0262 118.466 44.0362C118.457 44.3006 118.472 44.5929 118.48 44.8594C119.067 44.2517 119.438 44.1211 120.223 43.924Z" fill="white"/>
<path id="Vector_29" d="M46.6013 28.504C47.2642 28.4378 47.6631 28.5573 48.2571 28.7897C48.2191 29.0216 48.1173 29.3405 48.0506 29.5734C46.3071 28.7829 45.8159 29.508 45.8322 31.1995L47.8769 31.1964C47.8874 31.4559 47.8819 31.7325 47.8813 31.9935L45.8767 31.9812C45.8585 33.3302 45.8529 34.6793 45.8596 36.0284L45.8442 37.9051L44.9593 37.8744C45.0032 35.9552 44.9688 33.9059 44.9704 31.9765C44.6202 31.9937 44.1218 32.0802 43.8595 31.9031C43.718 31.7283 43.7603 31.4402 43.7663 31.2038L44.9637 31.1965C44.9475 29.824 45.0083 28.7694 46.6013 28.504Z" fill="white"/>
<path id="Vector_30" d="M35.5379 29.7368L36.3483 29.7384L36.3527 31.2031L38.3479 31.2043L38.3473 31.9874L36.353 31.9782C36.345 33.3116 36.2843 34.7006 36.3659 36.0302C36.4853 37.9776 38.2314 36.416 38.7279 37.174C38.731 37.3434 38.7591 37.4363 38.6293 37.5681C38.3843 37.8169 37.9288 37.8792 37.5994 37.8897C37.0043 37.9086 36.3191 37.7909 35.8789 37.3588C35.1911 36.6839 35.4381 33.0275 35.4275 31.9787L34.2406 31.9884L34.2295 31.1978L35.4364 31.1961C35.4307 30.8821 35.3617 29.9319 35.5379 29.7368Z" fill="white"/>
<path id="Vector_31" d="M29.5273 31.1964C29.8405 31.1862 30.1134 31.2184 30.4233 31.2483C30.4296 31.6661 30.402 31.9937 30.3676 32.4099C30.8234 31.8175 32.0594 30.9013 32.8353 31.256C32.9153 31.4429 32.8875 31.8618 32.8859 32.0834C31.2094 32.1663 30.6145 32.6986 30.436 34.3741C30.4054 35.4975 30.431 36.7578 30.4298 37.8916L29.5174 37.8793C29.5046 35.6516 29.5079 33.424 29.5273 31.1964Z" fill="white"/>
<path id="Vector_32" d="M40.8133 31.2005L41.7141 31.2029C41.8176 33.2281 41.7028 35.7745 41.7363 37.8726C41.5927 37.8984 40.9953 37.8843 40.8165 37.8834C40.8033 35.6557 40.8022 33.4281 40.8133 31.2005Z" fill="white"/>
<path id="Vector_33" d="M50.0781 31.2041L50.9792 31.2101L50.9781 37.901C50.686 37.8925 50.3758 37.8978 50.0821 37.8976L50.0781 31.2041Z" fill="white"/>
<path id="Vector_34" d="M41.1039 28.5086C41.4443 28.3724 41.8304 28.5378 41.9673 28.8784C42.1043 29.2189 41.9404 29.6064 41.6009 29.7446C41.26 29.8834 40.8714 29.7184 40.7339 29.3763C40.5964 29.0344 40.7622 28.6454 41.1039 28.5086Z" fill="white"/>
<path id="Vector_35" d="M50.2678 28.5087C50.4955 28.4221 50.7522 28.4672 50.9369 28.6262C51.1216 28.7852 51.2047 29.0328 51.1535 29.2713C51.1024 29.5099 50.925 29.7013 50.6915 29.7703C50.3488 29.8714 49.9876 29.6831 49.8737 29.3438C49.7598 29.0046 49.9338 28.6358 50.2678 28.5087Z" fill="white"/>
</g>
</svg>
