<svg preserveAspectRatio="none" width="100%" height="100%" overflow="visible" style="display: block;" viewBox="0 0 356 61.9951" fill="none" xmlns="http://www.w3.org/2000/svg">
<g id="Group 427320779">
<path id="Vector" d="M144.979 27.0445C151.163 26.4406 156.656 30.9909 157.214 37.1792C157.771 43.3688 153.18 48.827 146.986 49.3373C140.858 49.8435 135.47 45.3108 134.918 39.1877C134.367 33.0632 138.859 27.6416 144.979 27.0445ZM146.522 45.6392C155.386 44.6513 154.628 30.5268 145.839 30.7168C145.108 30.8063 144.458 30.881 143.752 31.1239C138.575 32.9071 137.761 40.9302 141.868 44.1953C143.256 45.2986 144.76 45.6501 146.522 45.6392Z" fill="white" fill-opacity="0.6"/>
<path id="Vector_2" d="M120.936 27.0457C127.088 26.45 132.558 30.9527 133.155 37.103C133.752 43.2547 129.25 48.7251 123.099 49.3222C116.946 49.9207 111.474 45.4179 110.877 39.2649C110.28 33.1132 114.784 27.6428 120.936 27.0457ZM122.507 45.6404C131.92 44.3919 129.842 30.1249 121.878 30.7261C120.005 30.912 117.99 31.5064 116.895 33.1091C113.265 38.4194 115.595 45.6309 122.507 45.6404Z" fill="white" fill-opacity="0.6"/>
<path id="Vector_3" d="M224.185 19.1065C227.429 19.2219 234.262 18.8337 237.039 19.5693C238.506 19.9533 239.855 20.697 240.962 21.7325C242.683 23.3542 243.594 25.5594 243.641 27.9126C243.703 30.2834 242.784 32.5769 241.101 34.2488C238.354 37.024 235.376 36.9684 231.817 37.0064C230.655 37.0173 229.492 37.0173 228.33 37.0064C228.363 40.9609 228.307 44.9209 228.378 48.8768C226.959 48.8049 225.538 48.7981 224.119 48.8578C223.933 41.2663 224.214 33.5744 224.085 25.9733C224.047 23.7477 224.031 21.3172 224.185 19.1065ZM228.342 33.0519C231.735 32.999 235.687 33.6897 238.053 31.4519C239.951 29.0322 240.041 26.3357 237.508 24.2512C235.394 22.5114 231.054 23.3447 228.312 23.1248C228.35 26.2678 228.421 29.9157 228.342 33.0519Z" fill="white" fill-opacity="0.6"/>
<path id="Vector_4" d="M254.462 26.9195C256.931 26.6698 259.933 27.2737 261.849 28.928C262.981 29.8888 263.809 31.1576 264.233 32.5799C265.164 35.6781 264.409 45.0243 264.696 48.7305L264.711 48.9096C263.286 48.8078 262.08 48.82 260.655 48.8485C260.576 47.9678 260.603 47.4127 260.644 46.5225C256.287 50.9235 248.861 50.5245 246.376 44.4801C246.004 43.1488 245.934 41.1295 246.439 39.8321C248.632 34.1975 255.97 34.3074 260.684 35.94C260.606 30.6392 255.29 29.2754 251.332 32.0438C250.75 32.4509 250.316 33.082 249.89 33.6533C249.274 33.1919 246.907 31.5851 246.983 31.1305C247.431 28.4503 252.744 27.0986 254.462 26.9195ZM256.145 45.5318C259.052 44.5819 260.086 42.5639 260.834 39.8117C258.899 38.76 257.385 38.3827 255.165 38.4682C253.61 38.6121 252.239 38.7912 251.161 40.0927C250.563 40.816 250.279 41.751 250.377 42.686C250.638 45.0854 253.11 45.9566 255.212 45.6865C255.525 45.6445 255.835 45.5929 256.145 45.5318Z" fill="white" fill-opacity="0.6"/>
<path id="Vector_5" d="M328.77 26.9153C336.32 25.9816 340.717 32.1224 340.079 39.1969C338.37 39.2783 336.124 39.201 334.352 39.1982L323.694 39.2037C324.294 41.4388 324.664 43.3346 326.902 44.6442C330.628 46.825 334.095 45.3662 336.23 41.8378C336.519 41.8785 339.075 43.1229 339.79 43.3876C338.092 46.901 335.789 48.744 331.88 49.3153C321.239 50.8678 316.203 38.6663 321.956 30.7355C323.621 28.4407 325.988 27.2871 328.77 26.9153ZM323.979 35.5545C326.146 35.6033 328.314 35.6196 330.481 35.6074C332.271 35.5966 334.084 35.602 335.873 35.5694C334.789 32.3368 333.21 30.5224 329.524 30.7206C326.271 31.0911 325.171 32.672 323.979 35.5545Z" fill="white" fill-opacity="0.6"/>
<path id="Vector_6" d="M201.025 26.9071C208.302 26.1702 213.295 32.0992 212.322 39.1221C210.314 39.2524 207.997 39.1981 205.964 39.1981L195.931 39.2117C196.411 41.3708 196.955 43.131 198.882 44.484C200.276 45.4543 201.996 45.8383 203.67 45.552C205.941 45.1544 207.158 43.7837 208.389 42.0059C208.88 41.7929 211.252 43.1133 212.073 43.4349C211.848 43.9574 211.569 44.4555 211.24 44.9196C205.742 52.7689 193.317 49.9598 191.993 40.3774C191.091 33.8526 194.125 27.8719 201.025 26.9071ZM196.197 35.5951L203.011 35.6073C204.697 35.5978 206.46 35.6127 208.139 35.5422C206.996 32.4534 205.501 30.4653 201.849 30.7259C198.551 31.0747 197.461 32.6909 196.197 35.5951Z" fill="white" fill-opacity="0.6"/>
<path id="Vector_7" d="M308.107 26.9193C308.232 26.9057 308.357 26.8976 308.483 26.8935C310.402 26.8365 312.537 27.4214 313.95 28.7595C316.893 31.5524 316.455 35.4458 316.478 39.1127C316.498 42.3873 316.367 45.7027 316.478 48.9651C315.136 48.8525 313.634 48.8945 312.291 48.9827C312.276 46.0596 312.708 34.7266 311.696 32.7914C311.208 31.8604 310.385 31.2403 309.387 30.939C307.824 30.4694 306.32 30.7137 304.904 31.4696C301.244 34.4701 302.258 38.5536 302.13 42.7781C302.071 44.7527 302.117 46.9661 302.219 48.9379C300.781 48.8497 299.39 48.8864 297.954 48.9447C297.802 41.9259 297.937 34.561 297.896 27.5042C299.263 27.5517 300.684 27.5504 302.054 27.5666C302.049 28.5505 302.03 28.978 301.866 29.9442C304.026 27.9493 305.185 27.2423 308.107 26.9193Z" fill="white" fill-opacity="0.6"/>
<path id="Vector_8" d="M285.667 21.685C287.095 21.7122 288.437 21.7475 289.863 21.6728C289.779 23.5252 289.833 25.7101 289.835 27.587L294.946 27.511C294.814 28.6645 294.853 30.2618 294.932 31.418C293.369 31.3352 291.421 31.4045 289.787 31.3732C289.894 33.9788 289.372 42.713 290.253 44.5423C290.471 44.9956 290.897 45.3132 291.371 45.4665C292.613 45.8655 293.913 45.21 294.996 44.6726C294.955 45.5792 294.961 46.5115 294.955 47.4207C294.963 47.5849 294.97 47.7505 294.974 47.916C295.019 49.5527 293.309 49.5147 292.048 49.474C287.46 49.3261 285.538 46.8684 285.569 42.4131C285.595 38.7435 285.493 35.0631 285.656 31.3746C284.463 31.3746 283.271 31.3977 282.08 31.4411C282.031 30.1071 281.981 28.9291 282.043 27.5965C283.075 27.5164 284.563 27.5408 285.633 27.5286C285.542 25.7617 285.541 23.437 285.667 21.685Z" fill="white" fill-opacity="0.6"/>
<path id="Vector_9" d="M352.611 26.9018C353.908 26.8136 354.552 26.9534 355.822 27.2546C356.093 28.628 355.986 30.4465 355.939 31.8619C352.128 30.1656 348.858 31.2648 347.819 35.617C347.543 36.7678 347.573 38.1683 347.585 39.3625C347.617 42.5272 347.555 45.715 347.665 48.8784C346.962 48.8268 346.167 48.8282 345.456 48.8132C344.764 48.8051 344.028 48.8539 343.335 48.8892L343.297 27.4609L347.448 27.4772C347.448 28.2182 347.387 29.0378 347.346 29.7829C349.2 28.001 349.996 27.3225 352.611 26.9018Z" fill="white" fill-opacity="0.6"/>
<path id="Vector_10" d="M184.487 19.1435C185.625 19.2642 187.481 19.2398 188.618 19.1624C188.495 21.8766 188.564 24.9436 188.564 27.6958L188.554 41.3358C188.555 42.6264 188.693 47.9773 188.529 48.9395C187.241 48.8337 185.616 48.8825 184.331 48.9327C184.035 39.7806 184.49 30.3231 184.313 21.1438C184.301 20.5548 184.319 19.7012 184.487 19.1435Z" fill="white" fill-opacity="0.6"/>
<path id="Vector_11" d="M277.257 27.3291C278.148 27.2409 279.207 27.2871 280.115 27.3006C280.13 28.7676 280.12 30.2346 280.084 31.7016C272.19 30.2604 272.15 36.1406 272.357 41.9707C272.443 44.3646 272.291 46.8684 272.39 49.2908C271.216 49.1673 270.085 49.1754 268.907 49.1646C268.719 49.1836 268.511 49.1768 268.318 49.1768C268.26 49.1008 268.202 49.0234 268.145 48.9474C268.065 42.6831 268.122 33.8051 268.105 27.8068C269.475 27.8611 270.845 27.8706 272.215 27.8394C272.197 28.5885 272.171 29.339 272.139 30.0881C274.012 28.3116 274.753 27.7661 277.257 27.3291Z" fill="white" fill-opacity="0.6"/>
<path id="Vector_12" d="M28.4951 0H33.7179C34.1776 0.20127 35.3849 0.269174 35.9452 0.346017C36.675 0.452241 37.4008 0.585741 38.1211 0.74624C43.2063 1.94466 47.8824 4.50782 51.6624 8.1687L42.8191 17.1917C35.8809 10.3685 24.7061 11.1954 18.2062 18.1605C16.1783 20.3334 14.9751 22.5343 13.9687 25.3146C13.5298 25.1029 12.025 23.8501 11.5597 23.481L6.50651 19.4779C5.72404 18.8586 4.42162 17.7692 3.61637 17.2696C7.26601 9.76654 13.9364 3.8124 21.8439 1.39605C23.1058 1.00751 24.3888 0.693556 25.6864 0.455761C26.2363 0.355605 28.1216 0.184241 28.4951 0Z" fill="#F14933"/>
<path id="Vector_13" d="M13.9423 37.1971C15.04 39.9564 16.1766 42.0153 18.2418 44.1755C23.4137 49.5855 31.2729 51.1166 38.2573 48.52C39.4387 48.0807 40.5466 47.4201 41.6497 46.7975C42.5215 47.6175 44.1138 48.7679 45.1122 49.5356C47.3066 51.2095 49.49 52.8972 51.6624 54.5989C50.0226 56.1979 47.0314 58.167 44.9423 59.1081C37.1439 62.6145 28.264 62.9398 20.2254 60.0132C13.4298 57.4776 6.63278 51.7276 3.61637 45.1255C4.19645 44.6148 5.04544 43.9971 5.67059 43.5153L9.37718 40.6605L12.2229 38.4707C12.6892 38.1122 13.4655 37.4867 13.9423 37.1971Z" fill="#00AF57"/>
<path id="Vector_14" d="M31.0263 25.3149C33.8582 25.4283 36.8711 25.3227 39.7197 25.3561C46.5384 25.436 53.4653 25.2572 60.2757 25.3538C60.3346 26.1445 60.4907 26.9555 60.6017 27.7469C60.7938 29.0312 60.9103 30.3256 60.9519 31.6235C61.1385 38.7856 58.6395 46.9932 53.9168 52.4403C53.5978 52.808 52.0296 54.4739 51.6495 54.7625C49.4598 53.0297 47.259 51.311 45.0472 49.6065C44.0408 48.8247 42.4358 47.6532 41.557 46.8181C45.034 44.1168 46.4226 41.8305 47.3867 37.4836C46.1049 37.5225 44.6678 37.4859 43.3722 37.4853H35.4347C34.0642 37.4859 32.412 37.4495 31.0519 37.5209C30.8993 34.0045 31.1268 30.3589 31.0249 26.8315C31.011 26.3539 31.0075 25.789 31.0263 25.3149Z" fill="#0081C6"/>
<path id="Vector_15" d="M3.39139 44.9464C2.77338 43.8974 2.07681 42.1023 1.68287 40.9568C-1.03676 33.0908 -0.441746 24.4796 3.33487 17.0487C4.16048 17.5446 5.49581 18.6261 6.29807 19.2409L11.479 23.2149C11.956 23.5812 13.4989 24.8249 13.9488 25.0351C12.7948 28.7609 12.6289 32.1936 13.6718 35.9711C13.7519 36.2611 13.8564 36.615 13.9157 36.9054C13.4298 37.1991 12.6385 37.8335 12.1633 38.1971L9.26289 40.418L5.48509 43.3133C4.84792 43.8019 3.98262 44.4284 3.39139 44.9464Z" fill="#FCAB19"/>
<path id="Vector_16" d="M176.014 46.6272C173.966 48.557 171.774 49.5395 168.918 49.4459C166.312 49.3631 163.851 48.2272 162.097 46.2974C157.938 41.7634 158.294 33.2898 162.941 29.1887C164.828 27.51 167.316 26.67 169.834 26.86C172.499 27.0459 174.125 28.0813 176.087 29.7546C175.936 28.4165 175.693 27.2807 177.63 27.3892C178.532 27.4394 179.254 27.4571 180.158 27.3906C180.005 29.1548 180.07 31.6437 180.07 33.4717L180.08 43.7597C180.081 46.0342 180.209 49.2884 179.606 51.4299C179.117 53.1629 178.126 54.7113 176.759 55.8825C174.97 57.4119 173.624 57.4038 171.895 58.2207H167.317C164.292 57.0903 160.847 55.4686 160.085 51.9293C160.938 51.5168 162.857 50.4447 163.719 50.5247C165.111 51.8859 165.162 53.2565 167.342 53.9446C169.777 54.7113 172.428 54.6285 174.314 52.7056C176.001 50.9861 176.017 48.8623 176.014 46.6272ZM169.897 45.6637C176.667 45.1941 177.878 35.6851 173.507 32.0617C172.345 31.1036 170.861 30.6231 169.357 30.7209C168.161 30.8661 167.398 31.0072 166.369 31.7061C161.912 34.7337 162.261 43.6416 167.759 45.3706C168.336 45.551 169.289 45.718 169.897 45.6637Z" fill="white" fill-opacity="0.6"/>
<path id="Vector_17" d="M78.5268 31.5336C78.5397 31.5038 78.5525 31.4739 78.5653 31.4441C79.885 26.2044 82.5894 21.7993 87.8502 19.7135C94.0299 17.2626 100.518 18.5328 105.122 23.2812C104.102 24.1281 102.976 25.2503 102.087 26.2397C99.7506 23.8241 97.8917 22.6 94.3714 22.5172C91.2149 22.4439 88.3502 23.4088 86.0693 25.6521C81.5988 30.0883 81.5813 37.9282 86.1157 42.3401C90.2431 46.3543 97.4868 46.6325 101.634 42.507C103.299 40.8242 103.811 38.8809 104.36 36.6661C102 36.5969 95.8298 36.4788 93.5669 36.6892C93.5549 35.3932 93.5682 33.9886 93.5172 32.7021L108.273 32.6994C108.704 37.0529 108.205 40.7699 105.4 44.3146C100.398 50.6332 90.0695 51.0987 84.0798 45.9987C81.826 44.0798 80.109 41.7144 79.2595 38.8592C79.0944 38.3353 78.6779 36.8493 78.5268 36.4775V31.5336Z" fill="white" fill-opacity="0.6"/>
</g>
</svg>
