<svg preserveAspectRatio="none" width="100%" height="100%" overflow="visible" style="display: block;" viewBox="0 0 496.005 87" fill="none" xmlns="http://www.w3.org/2000/svg">
<g id="Group">
<path id="Vector" d="M38.4352 15.784C24.1692 15.784 15.4436 26.5098 15.4436 43.2588C15.4436 62.2981 26.5244 71.3327 39.8462 71.3327C51.2849 71.3327 58.5943 64.5833 59.2998 56.8742H56.3533C48.8053 56.8742 38.7879 55.8032 29.7096 53.5128L31.9506 38.4499C38.3159 40.014 46.2166 41.8113 56.3533 41.8113H74.2713V85.6745H59.2998V78.9251C54.8177 84.2271 48.0997 87 39.0214 87C16.7405 87 0 70.3677 0 43.4973C0 16.627 15.9157 0 38.7879 0C55.5284 0 68.3782 9.27844 72.741 22.772L57.8836 28.4345C55.4091 20.842 48.0997 15.784 38.43 15.784H38.4352Z" fill="var(--fill-0, #7E73F4)"/>
<path id="Vector_2" d="M135.583 54.4613C135.583 73.3787 124.616 86.3951 107.289 86.3951C89.9627 86.3951 78.9961 73.384 78.9961 54.4613C78.9961 35.5386 90.0769 22.5276 107.289 22.5276C124.502 22.5276 135.583 35.422 135.583 54.4613ZM120.725 54.4613C120.725 43.6188 116.243 37.4738 107.284 37.4738C98.3252 37.4738 93.8431 43.6188 93.8431 54.4613C93.8431 65.3038 98.4393 71.4488 107.284 71.4488C116.129 71.4488 120.725 65.1819 120.725 54.4613Z" fill="var(--fill-0, #7E73F4)"/>
<path id="Vector_3" d="M195.123 54.4613C195.123 73.3787 184.156 86.3951 166.83 86.3951C149.503 86.3951 138.536 73.384 138.536 54.4613C138.536 35.5386 149.617 22.5276 166.83 22.5276C184.042 22.5276 195.123 35.422 195.123 54.4613ZM180.266 54.4613C180.266 43.6188 175.784 37.4738 166.824 37.4738C157.865 37.4738 153.383 43.6188 153.383 54.4613C153.383 65.3038 157.98 71.4488 166.824 71.4488C175.669 71.4488 180.266 65.1819 180.266 54.4613Z" fill="var(--fill-0, #7E73F4)"/>
<path id="Vector_4" d="M256.189 1.32519V85.6742H241.69V79.0467C238.032 83.5057 232.611 86.3953 225.302 86.3953C208.562 86.3953 198.067 73.2623 198.067 54.3449C198.067 35.4274 208.562 22.5331 225.302 22.5331C232.492 22.5331 237.799 25.0621 241.456 29.3991V1.32519H256.194H256.189ZM241.451 54.3449C241.451 43.3804 235.911 37.3574 227.185 37.3574C217.873 37.3574 212.919 43.6243 212.919 54.3449C212.919 65.0655 217.873 71.4543 227.185 71.4543C235.911 71.4543 241.451 65.1874 241.451 54.3449Z" fill="var(--fill-0, #7E73F4)"/>
<path id="Vector_5" d="M314.672 45.5489V85.6742H299.934V46.5139C299.934 40.8514 296.634 37.474 289.678 37.474C280.008 37.474 277.414 43.7409 277.414 51.45V85.6689H262.676V1.32519H277.414V28.678C280.833 24.7016 285.668 22.5331 292.977 22.5331C308.068 22.5331 314.672 31.9335 314.672 45.5489Z" fill="var(--fill-0, #7E73F4)"/>
<path id="Vector_6" d="M375.388 54.4613C375.388 73.3787 364.421 86.3951 347.095 86.3951C329.768 86.3951 318.801 73.384 318.801 54.4613C318.801 35.5386 329.882 22.5276 347.095 22.5276C364.307 22.5276 375.388 35.422 375.388 54.4613ZM360.531 54.4613C360.531 43.6188 356.048 37.4738 347.089 37.4738C338.13 37.4738 333.648 43.6188 333.648 54.4613C333.648 65.3038 338.244 71.4488 347.089 71.4488C355.934 71.4488 360.531 65.1819 360.531 54.4613Z" fill="var(--fill-0, #7E73F4)"/>
<path id="Vector_7" d="M434.924 54.4613C434.924 73.3787 423.958 86.3951 406.631 86.3951C389.304 86.3951 378.338 73.384 378.338 54.4613C378.338 35.5386 389.418 22.5276 406.631 22.5276C423.844 22.5276 434.924 35.422 434.924 54.4613ZM420.067 54.4613C420.067 43.6188 415.585 37.4738 406.626 37.4738C397.667 37.4738 393.185 43.6188 393.185 54.4613C393.185 65.3038 397.781 71.4488 406.626 71.4488C415.471 71.4488 420.067 65.1819 420.067 54.4613Z" fill="var(--fill-0, #7E73F4)"/>
<path id="Vector_8" d="M495.999 1.32519V85.6742H481.5V79.0467C477.843 83.5057 472.422 86.3953 465.112 86.3953C448.372 86.3953 437.877 73.2623 437.877 54.3449C437.877 35.4274 448.372 22.5331 465.112 22.5331C472.302 22.5331 477.609 25.0621 481.266 29.3991V1.32519H496.004H495.999ZM481.261 54.3449C481.261 43.3804 475.721 37.3574 466.995 37.3574C457.683 37.3574 452.729 43.6243 452.729 54.3449C452.729 65.0655 457.683 71.4543 466.995 71.4543C475.721 71.4543 481.261 65.1874 481.261 54.3449Z" fill="var(--fill-0, #7E73F4)"/>
</g>
</svg>
