<svg preserveAspectRatio="none" width="100%" height="100%" overflow="visible" style="display: block;" viewBox="0 0 975.308 455.568" fill="none" xmlns="http://www.w3.org/2000/svg">
<g id="Group">
<path id="Vector" opacity="0.73" d="M347.601 8.57844C417.002 6.34928 490.755 11.9801 563.745 28.6722C639.198 45.9527 712.825 75.1176 774.171 116.953C835.956 159.13 884.062 214.277 908.086 275.343C930.902 333.465 931.581 396.664 912.121 455.564H917.468C936.967 396.326 936.115 332.763 912.94 274.38C888.546 213.048 839.888 157.742 777.549 115.518C715.654 73.6359 641.491 44.5304 565.577 27.3555C492.164 10.769 418.068 5.27928 348.394 7.65111C314.97 8.79393 282.627 11.7394 251.643 16.1205C221.625 20.3678 192.919 25.957 165.657 32.5836C165.569 32.7664 165.48 32.9477 165.392 33.1305C192.594 26.5619 221.23 21.0321 251.165 16.8472C282.06 12.5315 314.297 9.65439 347.601 8.57844Z" fill="var(--fill-0, #205C49)"/>
<path id="Vector_2" opacity="0.32" d="M164.601 31.9119C195.919 24.1455 229.167 17.7255 264.139 13.1141C300.403 8.33621 338.458 5.51557 377.841 5.22132C418.481 4.92261 460.408 7.31822 502.751 13.0368C546.128 18.9025 589.752 28.2397 632.18 41.5865C718.765 68.8492 799.535 113.268 856.556 172.843C913.601 232.522 944.664 307.348 941.642 381.42C940.598 406.476 935.784 431.334 927.741 455.565H947.662C955.786 430.783 960.549 405.366 961.389 379.766C963.796 304.271 930.904 228.209 871.639 167.962C812.372 107.793 729.115 63.4041 640.365 36.4653C596.913 23.2895 552.35 14.1885 508.13 8.5933C464.998 3.14225 422.376 1.0394 381.13 1.63533C341.193 2.21937 302.667 5.32832 265.999 10.3841C230.667 15.26 197.12 21.9326 165.553 29.9353C135.209 37.6319 106.709 46.5501 80.1032 56.3331C54.5501 65.7328 30.73 75.9335 8.61919 86.6691C8.57909 86.9619 8.539 87.2546 8.4989 87.5459C30.5369 76.9544 54.262 66.9143 79.6934 57.69C106.157 48.0971 134.48 39.384 164.601 31.9119Z" fill="var(--fill-0, #205C49)"/>
<path id="Vector_3" opacity="0.58" d="M237.255 455.565H238.839C250.277 442.144 260.203 427.283 267.983 411.199C282.65 380.84 289.31 346.645 284.941 312.362C284.513 312.56 284.086 312.757 283.66 312.953C287.877 347.159 281.113 381.239 266.391 411.468C258.595 427.461 248.673 442.232 237.255 455.565Z" fill="var(--fill-0, #205C49)"/>
<path id="Vector_4" opacity="0.13" d="M123.129 118.248C165.596 120.97 208.518 130.723 246.847 148.02C325.175 183.428 379.509 252.601 385.975 325.104C389.158 361.157 381.655 397.107 366.125 429.615C361.843 438.57 356.957 447.222 351.582 455.565H358.731C364.152 447.024 369.064 438.17 373.35 429.01C388.786 395.975 395.979 359.512 392.28 323.065C384.785 249.856 328.673 180.576 249.067 145.604C210.128 128.525 166.723 119.075 123.897 116.648C82.1154 114.294 40.956 118.482 3.07552 127.258C3.03988 127.521 3.00276 127.784 2.96712 128.048C40.7154 119.512 81.6714 115.602 123.129 118.248Z" fill="var(--fill-0, #205C49)"/>
<path id="Vector_5" opacity="0.66" d="M283.03 108.576C332.731 122.254 379.679 145.217 416.896 176.255C454.61 207.74 481.911 247.405 494.824 289.886C507.732 332.448 506.261 377.321 492.614 419.023C488.503 431.561 483.322 443.764 477.229 455.567H483.344C489.469 443.596 494.656 431.221 498.749 418.51C512.294 376.364 513.437 331.062 500.021 288.204C486.605 245.442 458.641 205.626 420.272 174.143C382.415 143.112 334.853 120.291 284.651 106.809C235.672 93.6717 184.503 89.2668 135.886 91.6907C89.0491 94.0373 44.7057 102.606 4.73283 115.128C4.70907 115.305 4.68383 115.483 4.66007 115.66C44.5409 103.305 88.7417 94.9334 135.353 92.8008C183.706 90.6029 234.518 95.244 283.03 108.576Z" fill="var(--fill-0, #205C49)"/>
<path id="Vector_6" opacity="0.79" d="M378.362 59.8478C433.246 69.506 487.654 86.8445 536.212 112.545C585.491 138.653 628.286 173.407 658.514 214.225C688.882 255.274 706.27 302.329 708.72 349.806C710.548 385.639 703.977 421.549 690.487 455.565H694.32C707.834 421.361 714.362 385.254 712.415 349.246C709.807 301.558 692.146 254.329 661.453 213.179C630.9 172.262 587.735 137.478 538.11 111.394C489.216 85.718 434.503 68.4553 379.359 58.8907C325.866 49.6263 272.335 47.5532 221.672 50.836C221.533 51.0545 221.393 51.2729 221.252 51.4914C271.764 48.3126 325.107 50.4912 378.362 59.8478Z" fill="var(--fill-0, #205C49)"/>
<path id="Vector_7" opacity="0.42" d="M286.022 105.315C336.65 118.631 384.729 141.331 423.13 172.355C462.055 203.836 490.588 243.776 504.432 286.777C518.28 329.885 517.417 375.55 503.961 418.073C499.885 430.931 494.692 443.453 488.54 455.566H497.968C504.165 443.193 509.367 430.407 513.412 417.281C526.706 374.073 527.055 327.749 512.416 284.194C497.786 240.765 468.221 200.602 428.286 169.13C388.899 138.121 339.88 115.645 288.486 102.631C238.392 89.9638 186.385 86.1222 137.142 89.0766C89.7738 91.9329 45.0963 100.963 4.90362 113.88C4.86649 114.147 4.83085 114.413 4.79372 114.681C44.8453 102.018 89.309 93.2838 136.336 90.7559C185.176 88.1419 236.645 92.3461 286.022 105.315Z" fill="var(--fill-0, #205C49)"/>
<path id="Vector_8" opacity="0.1" d="M363.17 243.363C394.867 296.056 398.216 357.895 377.985 412.188C372.323 427.356 364.955 441.869 356.226 455.565H360.016C368.775 441.717 376.146 427.047 381.781 411.722C401.864 357 398.054 294.781 365.745 241.965C333.749 189.764 274.409 149.273 207.484 130.159C207.199 130.539 206.913 130.921 206.627 131.301C273.092 150.64 331.767 191.266 363.17 243.363Z" fill="var(--fill-0, #205C49)"/>
<path id="Vector_9" opacity="0.28" d="M116.775 131.475C156.317 136.595 195.305 148.759 228.758 167.739C296.921 206.476 337.521 274.38 336.19 341.212C335.508 374.087 325.734 405.993 309.51 434.355C305.308 441.694 300.681 448.763 295.709 455.565H301.256C306.271 448.61 310.928 441.383 315.144 433.884C331.303 405.109 340.863 372.799 341.175 339.599C341.751 272.191 299.805 204.127 230.617 165.714C196.672 146.897 157.279 134.977 117.436 130.101C78.3702 125.333 38.9185 127.188 2.16074 133.957C2.12956 134.188 2.09837 134.418 2.06718 134.648C38.7106 128.084 77.9885 126.467 116.775 131.475Z" fill="var(--fill-0, #205C49)"/>
<path id="Vector_10" opacity="0.44" d="M366.806 49.7928C424.43 57.1119 482.474 72.236 535.472 96.3645C589.399 120.937 637.551 154.877 672.917 196.032C708.463 237.44 730.671 286.052 736.445 335.828C741.096 376.138 735.083 417.012 720.235 455.567H725.53C740.41 416.731 746.344 375.563 741.491 334.998C735.469 284.937 712.847 236.098 676.826 194.57C640.987 153.293 592.312 119.337 537.908 94.816C484.449 70.744 425.995 55.7372 368.031 48.5533C312.055 41.6325 256.93 41.9506 205.337 47.4462C205.174 47.7196 205.012 47.9931 204.848 48.265C256.253 42.9106 311.139 42.7382 366.806 49.7928Z" fill="var(--fill-0, #205C49)"/>
<path id="Vector_11" opacity="0.32" d="M905.463 198.301C965.019 274.221 981.95 369.244 954.881 455.565H962.9C990.033 368.547 972.498 272.764 911.951 196.484C845.576 113.018 734.504 54.3224 617.794 24.7444C616.796 25.4072 615.8 26.07 614.805 26.7313C730.436 56.51 840.176 115.235 905.463 198.301Z" fill="var(--fill-0, #205C49)"/>
<path id="Vector_12" opacity="0.23" d="M115.762 133.587C154.847 139.08 193.217 151.612 225.915 170.838C292.521 210.062 331.087 277.704 328.624 343.659C327.387 376.042 317.291 407.335 300.972 435.07C296.795 442.163 292.216 448.995 287.313 455.565H290.048C294.974 448.919 299.569 442.01 303.755 434.837C320.045 406.896 330.036 375.404 331.092 342.861C333.187 276.619 293.96 208.891 226.845 169.824C193.901 150.677 155.328 138.265 116.093 132.895C77.592 127.638 38.4938 129.008 1.96917 135.363L1.92165 135.712C38.3898 129.46 77.4004 128.209 115.762 133.587Z" fill="var(--fill-0, #205C49)"/>
<path id="Vector_13" opacity="0.37" d="M297.683 242.8C328.912 292.947 331.889 352.215 312.152 403.457C304.942 422.144 294.95 439.638 282.945 455.565H285.287C297.317 439.509 307.307 421.881 314.482 403.062C334.087 351.545 330.778 292.051 299.141 241.855C267.811 192.251 209.085 154.696 143.957 139.442C143.828 139.667 143.699 139.891 143.569 140.116C208.436 155.541 266.748 193.229 297.683 242.8Z" fill="var(--fill-0, #205C49)"/>
<path id="Vector_14" opacity="0.85" d="M198.096 201.165C249.953 244.613 270.391 308.985 257.962 366.523C251.967 394.175 239.185 419.773 222.069 441.679C218.295 446.503 214.317 451.129 210.174 455.566H213.729C217.914 451.031 221.929 446.302 225.729 441.373C242.813 419.195 255.482 393.333 261.271 365.455C273.257 307.514 252.007 242.955 199.453 199.689C148.219 157.597 70.5069 139.404 0.521254 145.975C0.496008 146.157 0.470764 146.338 0.447003 146.519C70.2485 140.261 147.533 158.888 198.096 201.165Z" fill="var(--fill-0, #205C49)"/>
<path id="Vector_15" opacity="0.61" d="M161.132 39.1329C191.542 32.221 223.704 26.709 257.371 23.0487C292.182 19.2666 328.539 17.4728 365.937 18.198C404.411 18.95 443.872 22.371 483.416 29.014C523.815 35.807 564.142 45.9497 602.984 59.8508C682.041 88.1731 754.216 132.565 803.612 189.975C853.102 247.572 878.06 318.042 873 387.17C871.286 410.334 866.313 433.248 858.552 455.566H875.046C882.876 432.792 887.813 409.414 889.374 385.798C893.962 315.492 867.584 243.974 816.315 185.864C765.127 127.924 690.91 83.5067 610.056 55.4266C570.356 41.6518 529.237 31.6994 488.122 25.1263C447.902 18.7033 407.846 15.526 368.846 15.0282C330.966 14.5481 294.196 16.5916 259.032 20.6145C225.045 24.5066 192.617 30.24 161.985 37.36C132.463 44.2228 104.629 52.3712 78.5588 61.4468C53.4645 70.1867 30.0008 79.7869 8.16625 89.9772C8.13061 90.2417 8.09349 90.5078 8.05785 90.7723C29.8256 80.7113 53.2031 71.2552 78.189 62.6729C104.128 53.7666 131.806 45.8026 161.132 39.1329Z" fill="var(--fill-0, #205C49)"/>
<path id="Vector_16" opacity="0.17" d="M282.384 235.806C316.565 285.353 321.782 345.438 303.017 397.55C295.443 418.542 284.297 438.063 270.674 455.565H272.782C286.429 437.932 297.57 418.275 305.099 397.15C323.726 344.789 318.184 284.508 283.621 234.938C249.477 186.069 187.637 150.774 121.19 138.561C121.095 138.751 120.998 138.94 120.903 139.129C187.132 151.508 248.608 186.947 282.384 235.806Z" fill="var(--fill-0, #205C49)"/>
<path id="Vector_17" opacity="0.46" d="M297.708 56.4922C353.673 60.3843 410.95 71.8154 464.324 92.3134C518.829 113.268 568.743 143.755 606.827 182.122C645.208 220.828 671.101 267.449 680.646 316.096C689.77 362.76 683.953 410.95 665.791 455.565H672.946C691.164 410.484 696.809 361.802 687.279 314.741C677.319 265.717 650.789 218.822 611.719 180.001C572.95 141.519 522.318 111.064 467.174 90.2269C413.192 69.8508 355.4 58.6143 299.016 54.9288C244.744 51.3963 192.101 54.7831 143.442 62.9255C143.293 63.2465 143.143 63.566 142.995 63.887C191.441 55.9363 243.807 52.7576 297.708 56.4922Z" fill="var(--fill-0, #205C49)"/>
<path id="Vector_18" opacity="0.21" d="M126.78 110.648C170.967 111.945 216.197 120.236 257.456 136.454C341.959 169.726 404.998 239.306 416.55 315.211C422.29 353.154 416.33 391.601 401.276 426.671C396.998 436.625 391.996 446.262 386.404 455.565H394.542C400.183 446.038 405.207 436.17 409.48 425.984C424.418 390.317 430.003 351.289 423.65 312.913C417.248 274.39 398.675 237.026 369.744 205.748C341.131 174.846 302.613 150.114 259.868 133.825C217.937 117.864 172.182 109.909 127.602 108.937C84.2598 108.005 42.1203 113.539 3.59381 123.47C3.5552 123.749 3.51807 124.028 3.47946 124.306C41.8619 114.633 83.7846 109.399 126.78 110.648Z" fill="var(--fill-0, #205C49)"/>
<path id="Vector_19" opacity="0.19" d="M430.576 375.214C426.323 403.453 416.171 430.634 401.628 455.565H404.083C418.647 430.485 428.776 403.15 432.955 374.768C442.761 307.81 416.214 236.685 358.904 186.577C302.848 137.653 220.89 110.801 142.101 107.348C142.009 107.527 141.915 107.705 141.823 107.883C220.386 111.505 301.976 138.531 357.603 187.475C414.467 237.594 440.569 308.532 430.576 375.214Z" fill="var(--fill-0, #205C49)"/>
<path id="Vector_20" opacity="0.6" d="M194.389 211.201C241.363 256.016 256.47 319.037 241.284 373.966C234.015 400.184 220.562 424.14 203.279 444.401C199.979 448.268 196.539 451.985 192.992 455.565H198.137C201.752 451.85 205.252 447.993 208.604 443.981C225.847 423.322 239.148 398.983 246.138 372.429C260.713 316.897 244.471 253.567 196.47 208.985C149.591 165.533 74.8595 144.079 5.87632 148.022C5.83177 148.309 5.78721 148.597 5.74266 148.884C74.4393 145.415 148.495 167.505 194.389 211.201Z" fill="var(--fill-0, #205C49)"/>
<path id="Vector_21" opacity="0.26" d="M275.707 116.559C323.168 131.098 367.389 154.674 401.778 185.711C436.604 217.175 460.994 256.145 471.718 297.361C482.418 338.593 479.538 381.564 465.447 421.297C461.265 433.068 456.122 444.507 450.168 455.565H455.951C461.934 444.348 467.086 432.746 471.255 420.811C485.254 380.656 487.837 337.278 476.67 295.759C465.484 254.27 440.477 215.148 405.035 183.675C370.043 152.635 325.236 129.187 277.293 114.831C230.431 100.818 180.874 95.3421 133.458 96.7494C87.6472 98.1211 43.9513 105.795 4.40167 117.556C4.37791 117.732 4.35415 117.909 4.3289 118.084C43.7865 106.488 87.3413 99.0068 132.931 97.8447C180.088 96.6558 229.298 102.361 275.707 116.559Z" fill="var(--fill-0, #205C49)"/>
<path id="Vector_22" opacity="0.78" d="M267.685 125.304C312.735 140.749 354.034 164.938 385.441 195.93C417.223 227.322 438.587 265.496 447.054 305.34C455.482 345.122 451.177 386.067 436.638 423.709C432.4 434.664 427.311 445.294 421.515 455.565H430.64C436.488 445.045 441.595 434.158 445.817 422.94C460.216 384.631 464.074 343.041 454.931 302.791C445.752 262.506 423.43 224.072 390.682 192.651C358.326 161.639 316.093 137.641 270.27 122.484C225.409 107.665 177.385 101.18 131.114 101.624C86.2914 102.067 43.2192 108.884 4.07942 119.91C4.03932 120.203 3.99922 120.495 3.95913 120.787C42.9474 110.031 85.7895 103.532 130.246 103.431C176.098 103.34 223.557 110.193 267.685 125.304Z" fill="var(--fill-0, #205C49)"/>
<path id="Vector_23" opacity="0.94" d="M646.622 236.946C687.186 304.441 691.418 384.429 662.663 455.094C662.599 455.251 662.528 455.407 662.464 455.565H668.222C668.296 455.384 668.376 455.204 668.45 455.021C697.239 383.796 692.562 303.212 651.248 235.423C610.186 168.182 535.04 115.549 450.366 86.1683C449.643 86.7211 448.923 87.274 448.202 87.8253C532.106 117.365 606.304 169.998 646.622 236.946Z" fill="var(--fill-0, #205C49)"/>
<path id="Vector_24" opacity="0.97" d="M295.393 75.3182C346.345 82.5036 397.228 97.0377 442.96 119.615C489.466 142.596 530.258 173.944 559.652 211.241C589.25 248.84 607.022 292.32 611.089 336.532C614.787 376.994 607.117 417.766 590.402 455.565H594.002C610.745 417.541 618.348 376.532 614.483 335.871C610.234 291.463 592.174 247.827 562.248 210.152C532.529 172.777 491.38 141.425 444.549 118.488C398.504 95.9588 347.343 81.5153 296.164 74.434C246.514 67.5785 197.119 67.5726 150.707 72.5971C150.613 72.7859 150.519 72.9746 150.426 73.1633C196.715 68.2428 245.951 68.3588 295.393 75.3182Z" fill="var(--fill-0, #205C49)"/>
<path id="Vector_25" opacity="0.38" d="M246.89 265.823C268.453 314.23 263.637 367.608 240.632 411.558C232.164 427.712 221.433 442.474 209.182 455.565H210.684C222.958 442.385 233.695 427.53 242.145 411.279C265.064 367.144 269.679 313.613 247.852 265.166C226.025 216.841 177.182 176.727 118.441 158.239C118.358 158.396 118.275 158.554 118.192 158.711C176.759 177.323 225.32 217.523 246.89 265.823Z" fill="var(--fill-0, #205C49)"/>
<path id="Vector_26" opacity="0.98" d="M312.738 76.1906C371.935 86.0316 430.548 106.005 480.315 136.583C530.889 167.69 571.593 209.802 594.835 257.524C618.168 305.512 623.653 358.659 612.222 409.005C608.6 424.91 603.348 440.471 596.687 455.564H609.215C615.93 440.126 621.184 424.211 624.738 407.956C635.912 356.707 629.628 302.704 605.142 254.188C580.753 205.947 538.601 163.635 486.669 132.605C435.585 102.114 375.783 82.4738 315.627 73.037C257.511 63.9391 199.52 64.1887 145.839 70.9624C94.7873 77.4166 47.7768 89.6785 6.0664 105.335C6.0263 105.63 5.98621 105.925 5.94612 106.22C47.4976 90.8525 94.2631 78.9309 144.928 72.8602C198.139 66.4981 255.49 66.6913 312.738 76.1906Z" fill="var(--fill-0, #205C49)"/>
<path id="Vector_27" opacity="0.39" d="M375.051 285.481C391.151 336.788 383.42 391.19 358.82 437.604C355.562 443.745 352.019 449.731 348.237 455.565H350.66C354.457 449.679 358.011 443.639 361.277 437.443C385.845 390.768 393.388 336.11 376.969 284.662C360.505 233.222 319.617 186.961 265.11 157.528C264.822 157.815 264.534 158.102 264.246 158.387C318.42 187.913 358.898 234.167 375.051 285.481Z" fill="var(--fill-0, #205C49)"/>
<path id="Vector_28" opacity="0.55" d="M338.331 48.2918C406.256 54.3715 475.728 71.117 537.793 100.63C601.101 130.766 655.629 174.37 690.019 226.729C724.552 279.381 738.04 340.436 729.202 399.212C726.305 418.385 721.109 437.241 713.943 455.567H720.463C727.656 437.06 732.846 418.023 735.696 398.668C744.376 339.424 730.411 277.938 695.229 225.044C660.191 172.443 604.88 128.78 540.863 98.7111C478.117 69.2727 408.059 52.713 339.665 46.8413C274.231 41.2432 210.891 45.2631 153.279 55.489C99.0613 65.122 50.0489 80.1778 7.04653 98.185C7.02871 98.3143 7.01089 98.4436 6.99307 98.5714C49.9257 80.6935 98.8281 65.7893 152.87 56.3302C210.266 46.2989 273.307 42.4915 338.331 48.2918Z" fill="var(--fill-0, #205C49)"/>
<path id="Vector_29" opacity="0.75" d="M342.85 43.3653C412.371 48.7361 483.842 64.8471 548.232 94.0997C613.966 123.997 671.177 167.794 707.794 220.978C744.555 274.448 759.695 336.979 751.398 397.353C748.662 417.145 743.491 436.626 736.232 455.567H752.482C759.809 436.177 764.96 416.241 767.573 395.999C775.466 334.46 759.095 270.858 720.691 216.805C682.432 163.03 623.255 119.109 555.751 89.3976C489.671 60.3456 416.754 44.6999 346.082 39.8447C311.927 37.5056 278.359 37.6512 245.95 39.8195C214.454 41.9297 184.108 45.9437 155.223 51.4394C100.178 61.9224 50.64 77.7138 7.30047 96.3378C7.25889 96.6469 7.21583 96.956 7.17425 97.2651C50.3444 78.9517 99.6182 63.5289 154.247 53.4724C212.379 42.7843 276.432 38.2546 342.85 43.3653Z" fill="var(--fill-0, #205C49)"/>
<path id="Vector_30" opacity="0.47" d="M478.169 455.565H481.715C499.227 421.329 508.828 383.817 507.996 345.949C506.879 346.189 505.765 346.426 504.655 346.664C505.314 384.313 495.649 421.572 478.169 455.565Z" fill="var(--fill-0, #205C49)"/>
<path id="Vector_31" opacity="0.22" d="M418.225 202.895C468.399 257.474 486.941 329.18 472.086 395.159C467.349 416.136 459.511 436.409 449.203 455.565H453.709C464.048 436.213 471.872 415.737 476.547 394.563C491.173 328.083 471.958 255.968 421.013 201.318C370.947 147.705 292.972 113.054 213.815 101.682C213.545 102.064 213.274 102.444 213.006 102.825C291.67 114.467 368.91 149.343 418.225 202.895Z" fill="var(--fill-0, #205C49)"/>
<path id="Vector_32" opacity="0.81" d="M578.654 278.103C600.32 336.177 595.767 399.383 570.429 455.566H574.569C599.948 398.999 604.291 335.383 582.192 277.046C558.675 215.132 505.544 160.994 438.279 125.834C437.654 126.274 437.029 126.712 436.405 127.151C503.103 162.379 555.59 216.438 578.654 278.103Z" fill="var(--fill-0, #205C49)"/>
<path id="Vector_33" opacity="0.94" d="M293.296 376.856C286.469 404.217 273.365 429.604 256.18 451.622C255.144 452.949 254.091 454.265 253.026 455.566H258.185C259.293 454.193 260.386 452.808 261.463 451.407C278.646 429.022 291.639 403.267 298.232 375.58C311.843 318.247 295.1 254.227 247.699 207.71C201.292 162.257 127.758 136.901 57.1266 135.931C57.0197 136.278 56.9143 136.626 56.8088 136.974C127.053 138.384 199.829 164.253 245.282 209.841C291.688 256.475 307.408 320.122 293.296 376.856Z" fill="var(--fill-0, #205C49)"/>
<path id="Vector_34" opacity="0.54" d="M163.26 34.7043C194.226 27.2707 227.051 21.2044 261.516 16.9646C297.213 12.5776 334.607 10.1582 373.215 10.2652C413.007 10.3796 453.969 13.1824 495.211 19.268C537.416 25.5023 579.741 35.1635 620.752 48.7361C704.356 76.4328 781.709 120.865 835.675 179.6C889.696 238.474 918.293 311.586 914.445 383.698C913.128 408.005 908.246 432.093 900.315 455.565H909.957C917.927 431.826 922.786 407.467 924.008 382.897C927.568 310.096 898.112 236.378 843.032 177.219C787.996 118.185 709.444 73.7548 624.792 46.2083C583.283 32.7144 540.499 23.1661 497.881 17.0612C456.25 11.1033 414.948 8.44469 374.856 8.4759C335.975 8.51157 298.347 11.0721 262.449 15.5973C227.804 19.968 194.829 26.1606 163.738 33.7116C133.814 40.9831 105.653 49.5089 79.3206 58.9309C54.0006 67.9947 30.3617 77.8892 8.39198 88.3484C8.37119 88.4956 8.35188 88.6442 8.33109 88.7913C30.2637 78.4049 53.8551 68.5906 79.1142 59.616C105.373 50.2876 133.446 41.8644 163.26 34.7043Z" fill="var(--fill-0, #205C49)"/>
<path id="Vector_35" opacity="0.69" d="M704.874 240.953C743.074 307.759 747.057 385.685 720.317 455.565H724.376C751.154 385.311 746.91 306.981 708.229 239.953C667.439 169.417 590.609 113.41 503.115 81.1393C502.565 81.5242 502.016 81.9091 501.466 82.294C588.413 114.657 664.585 170.639 704.874 240.953Z" fill="var(--fill-0, #205C49)"/>
<path id="Vector_36" opacity="0.48" d="M232.728 107.015C276.099 115.638 318.352 131.165 354.824 153.433C429.087 198.833 474.914 273.527 474.868 348.578C474.814 385.774 464.524 422.395 446.6 455.563H449.233C467.181 422.209 477.422 385.392 477.345 348.027C477.125 272.69 430.737 197.857 355.989 152.525C319.281 130.294 276.819 114.841 233.278 106.304C190.731 97.9754 147.307 96.155 106.005 99.4229C105.944 99.5715 105.884 99.7216 105.823 99.8702C147.036 96.69 190.339 98.6026 232.728 107.015Z" fill="var(--fill-0, #205C49)"/>
<path id="Vector_37" opacity="0.9" d="M267.253 125.776C312.175 141.269 353.318 165.489 384.567 196.478C416.188 227.866 437.393 265.995 445.742 305.766C454.052 345.471 449.672 386.308 435.11 423.838C430.87 434.751 425.784 445.338 419.995 455.565H428.947C434.785 445.091 439.889 434.251 444.115 423.083C458.541 384.897 462.482 343.426 453.471 303.264C444.424 263.06 422.282 224.674 389.712 193.257C357.533 162.25 315.472 138.215 269.792 123.005C225.069 108.132 177.149 101.579 130.956 101.957C86.2008 102.336 43.1702 109.095 4.05863 120.072C4.01853 120.359 3.97992 120.648 3.9413 120.934C42.9044 110.224 85.7078 103.779 130.102 103.734C175.881 103.703 223.246 110.618 267.253 125.776Z" fill="var(--fill-0, #205C49)"/>
<path id="Vector_38" opacity="0.42" d="M200.034 208.306C248.253 252.929 264.834 316.354 250.507 372.138C243.629 398.842 230.4 423.368 213.187 444.238C209.955 448.152 206.586 451.925 203.105 455.565H207.334C210.867 451.817 214.283 447.934 217.554 443.903C234.736 422.712 247.84 397.87 254.489 370.892C268.315 314.616 250.803 250.939 201.743 206.505C153.843 163.207 78.486 142.184 9.08995 146.32C9.05134 146.556 9.01273 146.791 8.97411 147.028C78.1296 143.275 152.937 164.809 200.034 208.306Z" fill="var(--fill-0, #205C49)"/>
<path id="Vector_39" opacity="0.26" d="M684.176 455.565H690.649C706.288 416.1 712.526 374.04 707.347 332.638C705.294 332.998 703.248 333.356 701.207 333.713C706.116 374.786 699.77 416.465 684.176 455.565Z" fill="var(--fill-0, #205C49)"/>
<path id="Vector_40" opacity="0.9" d="M202.873 199.117C255.6 242.452 277.124 307.095 265.346 365.257C259.651 393.267 247.046 419.295 229.986 441.659C226.304 446.482 222.418 451.113 218.37 455.565H221.843C225.93 451.019 229.849 446.29 233.556 441.368C250.585 418.739 263.08 392.454 268.574 364.224C279.923 305.668 257.609 240.846 204.202 197.686C152.147 155.702 73.9551 137.797 3.6042 144.46C3.57896 144.638 3.55222 144.815 3.52698 144.993C73.6938 138.632 151.47 156.955 202.873 199.117Z" fill="var(--fill-0, #205C49)"/>
<path id="Vector_41" opacity="0.45" d="M269.593 123.224C315.214 138.457 357.2 162.507 389.305 193.513C421.8 224.928 443.867 263.293 452.858 303.463C461.813 343.59 457.836 385.01 443.4 423.144C439.173 434.291 434.071 445.112 428.236 455.565H433.778C439.642 444.957 444.757 433.982 448.973 422.676C463.323 384.138 467.027 342.325 457.635 301.916C448.211 261.48 425.558 222.959 392.476 191.529C359.795 160.513 317.241 136.58 271.154 121.523C226.043 106.803 177.826 100.444 131.411 101.009C86.4636 101.567 43.3128 108.493 4.121 119.613C4.09724 119.789 4.07348 119.965 4.04972 120.141C43.1479 109.184 86.1607 102.45 130.887 102.098C177.048 101.747 224.925 108.328 269.593 123.224Z" fill="var(--fill-0, #205C49)"/>
<path id="Vector_42" opacity="0.67" d="M496.929 251.329C528.069 310.238 529.093 377.925 504.724 437.622C502.241 443.695 499.502 449.676 496.549 455.563H499.655C502.619 449.625 505.368 443.596 507.855 437.472C532.196 377.454 530.903 309.445 499.338 250.381C468.004 191.871 407.638 144.238 337.001 117.259C336.647 117.582 336.294 117.904 335.942 118.225C406.167 145.316 466.012 192.965 496.929 251.329Z" fill="var(--fill-0, #205C49)"/>
<path id="Vector_43" opacity="0.29" d="M444.975 380.071C440.557 406.503 431.057 431.98 417.688 455.565H420.67C434.063 431.815 443.542 406.167 447.883 379.571C458.798 312.395 433.768 240.722 377.646 189.293C322.691 139.019 241.293 110.135 162.005 104.667C161.876 104.893 161.746 105.119 161.619 105.345C240.619 111.012 321.558 140.092 375.997 190.37C431.582 241.798 456.097 313.23 444.975 380.071Z" fill="var(--fill-0, #205C49)"/>
<path id="Vector_44" opacity="0.73" d="M190.054 209.93C237.812 254.406 253.587 317.629 238.623 372.78C231.46 399.1 218.034 423.15 200.732 443.464C197.145 447.671 193.394 451.7 189.515 455.564H194.536C198.482 451.558 202.294 447.385 205.929 443.028C223.189 422.325 236.46 397.898 243.344 371.252C257.697 315.515 240.795 252.002 192.035 207.771C144.443 164.687 69.0901 144.122 0.111381 148.973C0.0742548 149.243 0.0371276 149.514 1.54682e-06 149.783C68.7114 145.394 143.424 166.592 190.054 209.93Z" fill="var(--fill-0, #205C49)"/>
<path id="Vector_45" opacity="0.66" d="M304.276 87.6544C360.023 99.0559 414.337 120.316 459.361 151.256C505.06 182.693 540.573 224.093 559.735 269.979C578.95 316.08 581.589 366.192 569.184 413.333C565.374 427.776 560.2 441.887 553.845 455.565H563.75C570.151 441.618 575.326 427.232 579.094 412.514C591.313 364.66 588.086 313.864 567.995 267.322C547.966 221.008 511.331 179.414 464.566 148.016C418.501 117.121 363.228 96.1119 306.701 85.027C251.872 74.2943 196.274 72.7309 144.324 77.8253C94.6789 82.7072 48.5119 93.5691 7.30344 108.042C7.2678 108.296 7.23216 108.551 7.19652 108.805C48.2698 94.5737 94.2289 83.9986 143.544 79.4347C195.095 74.6792 250.16 76.6067 304.276 87.6544Z" fill="var(--fill-0, #205C49)"/>
<path id="Vector_46" opacity="0.85" d="M313.515 220.782C354.468 271.041 365.606 334.844 349.297 391.734C342.745 414.531 332.155 436.03 318.655 455.567H320.707C334.228 435.908 344.809 414.282 351.314 391.364C367.486 334.237 356.02 270.251 314.697 219.976C274.032 170.593 205.907 137.326 135.412 127.28C135.32 127.454 135.227 127.629 135.134 127.803C205.423 138.001 273.206 171.406 313.515 220.782Z" fill="var(--fill-0, #205C49)"/>
<path id="Vector_47" opacity="0.25" d="M165.141 30.7869C196.602 22.8867 230.02 16.3226 265.196 11.5611C301.689 6.62569 340.012 3.64158 379.711 3.18237C420.695 2.71425 463.017 4.9449 505.807 10.5119C549.662 16.2245 593.82 25.428 636.828 38.6781C724.639 65.7581 806.818 110.163 865.107 170.076C923.407 230.077 955.502 305.606 952.827 380.484C951.899 405.847 947.113 431.022 939.025 455.565H956.075C964.232 430.549 968.974 404.896 969.724 379.069C971.868 302.974 938.194 226.392 877.986 165.91C817.764 105.494 733.454 61.1229 643.793 34.3238C599.908 21.2208 554.952 12.2209 510.377 6.73864C466.912 1.40053 424.001 -0.578974 382.501 0.143276C342.332 0.847693 303.608 4.0785 266.772 9.25016C231.289 14.2361 197.618 21.0142 165.945 29.1165C135.512 36.9037 106.939 45.9081 80.2725 55.7699C54.6689 65.2424 30.8087 75.5099 8.6682 86.3065C8.63404 86.5532 8.59989 86.8014 8.56721 87.0481C30.6468 76.3748 54.4253 66.2425 79.9265 56.9187C106.472 47.2158 134.894 38.3869 165.141 30.7869Z" fill="var(--fill-0, #205C49)"/>
<path id="Vector_48" opacity="0.94" d="M242.556 374.046C233.915 405.276 216.533 433.14 194.471 455.566H195.957C218.046 432.995 235.407 404.976 243.961 373.604C253.893 337.082 251.281 297.019 233.496 260.682C233.193 260.905 232.892 261.127 232.589 261.35C250.169 297.667 252.604 337.644 242.556 374.046Z" fill="var(--fill-0, #205C49)"/>
<path id="Vector_49" opacity="0.76" d="M324.375 328.369C326.461 373.243 310.958 416.758 284.861 452.547C284.117 453.566 283.34 454.557 282.58 455.565H284.485C285.257 454.537 286.047 453.523 286.805 452.48C312.901 416.492 328.31 372.777 326.029 327.759C323.671 281.943 302.246 236.222 264.529 201.297C264.231 201.551 263.932 201.807 263.634 202.061C301.079 237.019 322.217 282.678 324.375 328.369Z" fill="var(--fill-0, #205C49)"/>
<path id="Vector_50" opacity="0.65" d="M298.638 100.218C343.177 111.548 385.974 129.771 422.447 154.541C496.537 204.925 540.048 283.548 536.88 361.401C535.532 393.899 526.765 425.843 512.231 455.565H516.067C530.631 425.623 539.353 393.452 540.573 360.747C543.431 282.473 499.172 203.593 424.385 153.253C387.574 128.506 344.46 110.364 299.655 99.1361C255.845 88.1731 210.619 83.7504 167.07 84.6123C166.934 84.859 166.799 85.1043 166.662 85.3509C210.052 84.6079 255.078 89.1509 298.638 100.218Z" fill="var(--fill-0, #205C49)"/>
<path id="Vector_51" opacity="0.58" d="M280.086 385.337C271.997 411.338 258.219 435.089 240.896 455.566H243.476C260.836 434.89 274.593 410.93 282.589 384.729C293.51 348.865 293.133 309.595 278.815 272.904C278.218 273.259 277.621 273.613 277.026 273.967C291.031 310.58 291.157 349.681 280.086 385.337Z" fill="var(--fill-0, #205C49)"/>
<path id="Vector_52" opacity="0.51" d="M120.248 124.245C161.378 128.069 202.502 138.936 238.586 157.026C312.217 194.003 360.105 262.683 362.881 332.576C364.225 367.171 355.632 401.242 339.767 431.821C335.507 440.025 330.729 447.94 325.533 455.565H331.154C336.389 447.785 341.193 439.711 345.46 431.344C361.253 400.347 369.615 365.869 367.881 330.958C364.318 260.497 315.044 191.697 240.393 155.055C203.822 137.134 162.303 126.509 120.882 122.926C80.369 119.435 40.0071 122.532 2.65229 130.37C2.62259 130.588 2.59289 130.808 2.5617 131.027C39.8066 123.385 80.0022 120.518 120.248 124.245Z" fill="var(--fill-0, #205C49)"/>
<path id="Vector_53" opacity="0.72" d="M304.504 79.5105C354.313 87.9739 403.598 103.73 447.334 127.212C536.476 175.139 597.402 257.765 602.283 343.96C604.407 382.031 596.519 420.129 580.671 455.565H588.344C604.251 419.669 612.017 381.091 609.573 342.604C603.971 255.583 541.415 172.551 450.874 124.78C406.465 101.382 356.578 85.8087 306.266 77.5607C257.374 69.558 208.35 68.3989 162.026 72.3683C161.803 72.7948 161.58 73.2198 161.357 73.6463C207.404 69.8998 256.072 71.2953 304.504 79.5105Z" fill="var(--fill-0, #205C49)"/>
<path id="Vector_54" opacity="0.1" d="M115.204 134.748C154.038 140.444 192.068 153.177 224.357 172.537C290.112 212.024 327.58 279.517 324.504 344.992C322.969 377.106 312.702 408.064 296.33 435.458C292.166 442.419 287.616 449.12 282.751 455.564H285.681C290.571 449.038 295.139 442.254 299.312 435.208C315.65 407.595 325.808 376.421 327.15 344.135C329.834 278.351 291.659 210.761 225.358 171.443C192.806 152.168 154.557 139.564 115.562 133.999C77.2846 128.551 38.326 129.731 1.89343 135.92C1.87561 136.047 1.85928 136.171 1.84146 136.298C38.2131 130.22 77.0767 129.167 115.204 134.748Z" fill="var(--fill-0, #205C49)"/>
<path id="Vector_55" opacity="0.95" d="M290.329 32.75C323.665 31.8628 357.996 33.0948 392.699 36.8918C464.318 44.743 537.195 63.6626 601.932 95.7939C667.831 128.537 724.096 175.148 758.75 230.584C793.478 286.223 805.695 350.347 794.36 411.591C791.592 426.486 787.477 441.174 782.172 455.565H787.407C792.728 441.067 796.843 426.269 799.595 411.264C810.845 349.653 798.282 285.176 763.061 229.33C727.913 173.682 671.03 127.002 604.562 94.2929C539.277 62.2018 465.914 43.4114 393.902 35.7133C359.019 31.9921 324.531 30.8389 291.058 31.8064C258.493 32.7515 226.956 35.6985 196.799 40.2296C139.276 48.8818 87.0369 63.2213 40.9783 80.7172C40.953 80.8347 40.9263 80.9535 40.9011 81.0709C86.8899 63.679 139.025 49.4614 196.394 40.9459C226.459 36.4891 257.888 33.6179 290.329 32.75Z" fill="var(--fill-0, #205C49)"/>
<path id="Vector_56" opacity="0.32" d="M345.403 25.6643C409.827 26.9483 477.064 36.1176 541.763 55.6347C608.18 75.6927 671.123 106.726 721.38 148.203C771.955 189.987 808.831 242.37 824.959 298.501C839.753 350.121 836.969 404.629 818.957 455.563H827.769C845.843 404.089 848.399 349.012 833.1 296.949C816.427 240.364 778.718 187.673 727.265 145.772C676.138 104.178 612.308 73.2079 545.112 53.2985C479.684 33.936 411.841 24.9955 346.924 23.9493C285.044 22.967 226.261 29.0912 172.593 39.821C172.415 40.1702 172.238 40.5209 172.06 40.8701C225.487 30.35 283.951 24.4546 345.403 25.6643Z" fill="var(--fill-0, #205C49)"/>
<path id="Vector_57" opacity="0.29" d="M796.761 174.391C869.997 250.205 897.261 352.207 869.735 444.516C868.628 448.218 867.414 451.897 866.151 455.565H871.542C872.812 451.859 874.034 448.142 875.146 444.401C902.671 351.561 874.811 249.018 800.765 173.011C763.719 135.033 716.564 103.342 664.548 79.1137C613.201 55.2156 557.537 38.6142 501.549 28.4611C501.01 28.8921 500.471 29.3231 499.932 29.754C555.589 40.0023 610.877 56.6764 661.817 80.5998C713.413 104.852 760.125 136.515 796.761 174.391Z" fill="var(--fill-0, #205C49)"/>
<path id="Vector_58" opacity="0.38" d="M500.727 392.845C496.356 414.587 488.692 435.624 478.426 455.565H481.127C491.411 435.508 499.066 414.355 503.398 392.496C512.503 346.395 506.391 297.889 484.079 254.249C483.38 254.527 482.681 254.806 481.981 255.083C504.018 298.621 509.924 346.947 500.727 392.845Z" fill="var(--fill-0, #205C49)"/>
<path id="Vector_59" opacity="0.61" d="M218.955 178.426C281.785 218.801 315.52 285.744 310.375 349.565C307.836 380.747 296.995 410.564 280.452 436.789C276.344 443.294 271.897 449.554 267.165 455.566H273.619C278.407 449.375 282.899 442.933 287.031 436.24C303.504 409.53 314.11 379.238 316.235 347.67C320.527 283.161 285.251 215.982 221.206 175.973C189.744 156.348 152.398 143.211 114.072 137.105C76.4188 131.117 37.8537 131.762 1.6781 137.491C1.63949 137.776 1.5994 138.063 1.56079 138.349C74.218 127.313 157.885 139.263 218.955 178.426Z" fill="var(--fill-0, #205C49)"/>
<path id="Vector_60" opacity="0.23" d="M285.256 106.151C335.645 119.56 383.434 142.327 421.529 173.357C460.142 204.839 488.356 244.71 501.959 287.576C515.564 330.544 514.544 376.005 501.037 418.317C496.952 431.093 491.761 443.532 485.625 455.565H491.246C497.409 443.376 502.605 430.78 506.674 417.845C520.084 375.125 520.802 329.269 506.726 286.034C492.657 242.91 463.828 202.905 424.614 171.427C385.93 140.405 337.58 117.77 286.732 104.541C237.148 91.6595 185.525 87.5593 136.568 90.2715C89.4426 92.8944 44.9181 101.713 4.82491 114.45L4.75957 114.932C44.7681 102.348 89.1634 93.7073 136.085 91.279C184.8 88.772 236.1 93.0876 285.256 106.151Z" fill="var(--fill-0, #205C49)"/>
<path id="Vector_61" opacity="0.24" d="M210.53 187.61C268.868 229.294 297.019 295.279 288.805 356.544C284.793 386.287 273.117 414.366 256.324 438.809C252.33 444.618 248.06 450.206 243.554 455.565H246.072C250.602 450.136 254.893 444.477 258.901 438.594C275.668 413.958 287.256 385.695 291.114 355.796C299.006 294.257 270.264 228.162 211.442 186.615C154.205 146.27 72.7923 131.917 1.16724 141.242C1.15091 141.361 1.13458 141.478 1.11824 141.597C72.6186 132.481 153.755 147.126 210.53 187.61Z" fill="var(--fill-0, #205C49)"/>
<path id="Vector_62" opacity="0.33" d="M278.74 284.915C293.388 332.925 284.613 383.251 260.456 424.731C254.057 435.708 246.63 445.993 238.462 455.565H242.062C250.271 445.841 257.717 435.397 264.113 424.26C288.146 382.356 296.553 331.646 281.355 283.46C266.041 235.066 226.122 191.666 172.985 166.436C172.673 166.866 172.363 167.295 172.051 167.723C224.709 193.179 263.968 236.659 278.74 284.915Z" fill="var(--fill-0, #205C49)"/>
<path id="Vector_63" opacity="0.61" d="M194.027 25.9511C226.049 19.2517 259.877 14.0102 295.253 10.6917C331.852 7.26323 370.036 5.90047 409.272 7.15475C449.649 8.45064 491.009 12.5196 532.407 19.9323C574.692 27.5115 616.836 38.5593 657.354 53.508C739.725 83.9243 814.562 130.949 865.046 191.331C915.505 251.767 939.811 325.411 932.475 397.075C930.434 416.85 926.071 436.414 919.68 455.567H936.818C943.269 436.026 947.616 416.069 949.556 395.905C956.504 323.031 930.813 248.276 878.56 187.276C826.26 126.302 749.309 79.2029 665.059 48.9947C623.639 34.1574 580.659 23.285 537.612 15.9169C495.495 8.71516 453.496 4.88694 412.555 3.83923C372.799 2.82868 334.167 4.43962 297.181 8.11032C261.455 11.6621 227.333 17.1266 195.062 24.0399C163.989 30.6992 134.656 38.6945 107.15 47.6587C80.7002 56.2826 55.9356 65.8041 32.8595 75.9454C32.8001 76.2455 32.7422 76.5472 32.6828 76.8474C55.6787 66.8414 80.3408 57.4685 106.663 49.0081C134.019 40.2178 163.172 32.4097 194.027 25.9511Z" fill="var(--fill-0, #205C49)"/>
<path id="Vector_64" opacity="0.79" d="M293.835 372.985C287.518 400.854 274.662 426.801 257.526 449.329C255.916 451.443 254.262 453.516 252.582 455.565H255.072C256.773 453.476 258.446 451.362 260.074 449.206C277.204 426.498 290.004 400.374 296.201 372.346C308.981 314.352 290.439 249.923 241.166 204.102C192.984 159.38 117.982 135.751 47.0506 136.524C47.0075 136.683 46.963 136.84 46.9199 136.999C117.676 136.437 192.328 160.324 240.048 205.124C288.838 251.018 306.871 315.278 293.835 372.985Z" fill="var(--fill-0, #205C49)"/>
<path id="Vector_65" opacity="0.63" d="M316.605 71.9759C377.087 81.276 437.292 100.801 488.826 131.26C541.219 162.262 583.868 204.64 608.649 253.056C633.531 301.75 640.091 356.045 629.006 407.601C625.475 423.975 620.222 440.01 613.488 455.565H618.287C625.043 439.876 630.295 423.707 633.8 407.2C644.785 355.297 637.913 300.677 612.586 251.782C587.363 203.168 544.157 160.718 491.242 129.749C439.203 99.3248 378.546 79.9296 317.7 70.7841C258.962 61.9744 200.513 62.5436 146.494 69.6115C95.166 76.3407 47.9817 88.8448 6.15847 104.705C6.14362 104.816 6.12877 104.926 6.11392 105.037C47.8778 89.2847 94.97 76.9098 146.152 70.3249C199.989 63.4145 258.195 63.0132 316.605 71.9759Z" fill="var(--fill-0, #205C49)"/>
<path id="Vector_66" opacity="0.43" d="M636.258 157.505C713.186 222.312 751.593 315.123 737.134 403.133C734.195 420.937 729.273 438.475 722.662 455.566H730.525C737.166 438.273 742.083 420.53 744.976 402.523C759.179 313.679 719.597 220.162 641.353 155.207C602.504 122.997 555.434 97.4553 505.136 79.2163C455.782 61.3369 403.672 50.4808 352.323 45.5588C351.764 46.1503 351.205 46.7418 350.648 47.3318C401.573 52.4366 453.18 63.459 501.959 81.4454C551.656 99.787 598.064 125.367 636.258 157.505Z" fill="var(--fill-0, #205C49)"/>
<path id="Vector_67" opacity="0.12" d="M218.313 107.082C261.837 114.803 304.502 129.463 341.584 151.018C417.144 195.001 464.976 269.128 466.306 344.245C466.938 381.613 457.118 418.516 439.472 451.946C438.83 453.16 438.159 454.36 437.497 455.565H444.868C445.554 454.3 446.251 453.039 446.915 451.764C464.573 417.837 474.207 380.424 473.182 342.631C471.06 266.723 421.611 192.241 344.693 148.487C306.958 127.051 263.718 112.615 219.731 105.143C176.788 97.861 133.284 97.118 92.1454 101.382C91.9984 101.777 91.8514 102.172 91.7044 102.566C132.61 98.5461 175.798 99.5537 218.313 107.082Z" fill="var(--fill-0, #205C49)"/>
<path id="Vector_68" opacity="0.62" d="M353.56 80.5181C402.972 91.9225 450.999 110.597 492.672 136.586C577.316 189.444 630.616 274.56 629.7 360.484C629.327 392.969 621.888 425.168 608.732 455.565H613.188C626.372 424.945 633.767 392.515 634.015 359.819C634.594 273.411 580.427 187.998 494.978 135.176C452.913 109.206 404.523 90.6147 354.799 79.3188C306.326 68.3201 256.872 64.1991 209.498 65.4608C209.321 65.7402 209.145 66.0181 208.968 66.2975C256.158 65.1621 305.377 69.4109 353.56 80.5181Z" fill="var(--fill-0, #205C49)"/>
<path id="Vector_69" opacity="0.38" d="M123.015 118.485C165.428 121.252 208.277 131.05 246.516 148.381C324.654 183.853 378.723 253.01 385.037 325.407C388.144 361.402 380.596 397.275 365.052 429.704C360.769 438.628 355.888 447.25 350.521 455.565H357.003C362.413 447.072 367.318 438.267 371.604 429.155C387.062 396.248 394.331 359.908 390.758 323.557C383.512 250.519 327.831 181.263 248.532 146.185C209.742 129.054 166.454 119.531 123.714 117.033C82.01 114.609 40.8996 118.73 3.05176 127.45C3.01909 127.689 2.98643 127.928 2.95375 128.167C40.6783 119.665 81.6046 115.797 123.015 118.485Z" fill="var(--fill-0, #205C49)"/>
<path id="Vector_70" opacity="0.99" d="M302.405 87.4553C358.222 98.6947 412.668 119.8 457.867 150.625C503.75 181.951 539.488 223.287 558.853 269.167C578.274 315.264 581.091 365.428 568.806 412.64C564.974 427.324 559.73 441.667 553.269 455.563H562.141C568.644 441.423 573.887 426.831 577.679 411.897C589.795 364.044 586.446 313.268 566.236 266.777C546.09 220.516 509.347 179.01 462.506 147.722C416.375 116.938 361.072 96.0599 304.557 85.1072C249.746 74.5023 194.202 73.0623 142.332 78.2681C92.7691 83.257 46.7016 94.2111 5.60158 108.76C5.5704 108.985 5.54069 109.21 5.50951 109.435C46.4893 95.1028 92.3711 84.4058 141.643 79.7037C193.162 74.801 248.231 76.5665 302.405 87.4553Z" fill="var(--fill-0, #205C49)"/>
<path id="Vector_71" opacity="0.53" d="M207.42 191C264.122 233.145 290.286 298.748 280.983 359.075C276.454 388.292 264.489 415.739 247.61 439.539C243.664 445.098 239.462 450.441 235.042 455.565H241.049C245.53 450.276 249.78 444.759 253.76 439.023C270.578 414.768 282.339 386.875 286.505 357.287C295.041 296.297 267.477 230.424 209.618 188.603C153.304 147.98 72.4448 133.045 1.06923 141.952C1.03062 142.239 0.990529 142.526 0.951918 142.813C72.0276 134.409 152.214 150.049 207.42 191Z" fill="var(--fill-0, #205C49)"/>
<path id="Vector_72" opacity="0.85" d="M124.485 115.425C167.587 117.623 211.362 126.84 250.767 143.746C331.359 178.38 388.853 247.735 397.149 321.488C401.251 358.238 394.3 395.1 378.938 428.542C374.653 437.861 369.721 446.873 364.265 455.565H372.34C377.848 446.65 382.805 437.409 387.091 427.858C402.341 393.822 408.936 356.38 404.242 319.192C394.765 244.65 335.253 175.2 253.23 141.061C213.144 124.406 168.835 115.529 125.333 113.661C82.9471 111.856 41.4089 116.564 3.27749 125.787C3.2374 126.076 3.19878 126.366 3.15869 126.654C41.1416 117.696 82.4555 113.296 124.485 115.425Z" fill="var(--fill-0, #205C49)"/>
<path id="Vector_73" opacity="0.27" d="M298.032 92.2212C352.444 104.031 405.161 125.586 448.493 156.488C492.462 187.878 526.2 228.86 544.019 273.967C561.881 319.265 563.652 368.201 551.034 414.131C547.128 428.314 541.898 442.159 535.52 455.566H546.527C552.957 441.856 558.196 427.703 562.056 413.208C574.47 366.483 572.053 316.784 553.226 270.988C534.451 225.402 499.475 184.197 454.319 152.846C409.83 121.99 356.039 100.711 300.754 89.2564C247.067 78.1507 192.362 76.1371 141.115 80.8079C92.0667 85.2885 46.3259 95.7879 5.43972 109.955C5.40111 110.242 5.36101 110.53 5.32239 110.817C46.0556 96.9263 91.5633 86.7509 140.24 82.6299C191.042 78.341 245.148 80.7633 298.032 92.2212Z" fill="var(--fill-0, #205C49)"/>
<path id="Vector_74" opacity="0.2" d="M495.115 367.333C492.537 398.038 483.208 427.88 468.779 455.566H473.289C487.753 427.62 497.036 397.506 499.47 366.553C503.309 317.276 489.194 266.755 458.012 223.806C456.964 224.308 455.917 224.811 454.872 225.311C485.521 268.146 499.19 318.394 495.115 367.333Z" fill="var(--fill-0, #205C49)"/>
<path id="Vector_75" opacity="0.57" d="M127.825 108.472C172.511 109.355 218.41 117.218 260.526 133.109C303.463 149.33 342.212 174.017 371.057 204.928C400.222 236.216 419.026 273.65 425.595 312.283C432.119 350.778 426.636 389.964 411.731 425.795C407.46 436.046 402.432 445.977 396.777 455.565H400.89C406.569 445.864 411.609 435.816 415.876 425.447C430.722 389.314 436.012 349.836 429.174 311.125C422.291 272.289 403.066 234.729 373.466 203.419C344.196 172.492 305.022 147.885 261.73 131.792C219.278 116.032 173.117 108.338 128.235 107.619C84.6267 106.934 42.3178 112.698 3.68142 122.826L3.62499 123.242C42.1901 113.242 84.389 107.626 127.825 108.472Z" fill="var(--fill-0, #205C49)"/>
<path id="Vector_76" opacity="0.73" d="M253.031 72.713C304.958 76.4729 357.895 87.534 406.787 107.136C456.674 127.158 501.93 156.158 536.069 192.235C570.515 228.671 593.278 272.183 601.383 317.343C609.462 362.511 603.006 408.932 584.758 451.584C584.186 452.92 583.571 454.239 582.976 455.568H589.148C589.755 454.199 590.385 452.839 590.97 451.463C609.231 408.402 615.503 361.557 607.048 316.056C598.567 270.574 575.245 226.83 540.196 190.3C505.461 154.134 459.584 125.173 409.147 105.266C359.732 85.7789 306.352 74.9021 254.072 71.3354C203.584 67.9055 154.375 71.2061 108.843 79.1866C108.735 79.46 108.628 79.7334 108.52 80.0069C153.879 72.2018 202.858 69.0944 253.031 72.713Z" fill="var(--fill-0, #205C49)"/>
<path id="Vector_77" opacity="0.97" d="M292.224 98.5536C344.793 111.102 395.247 133.227 436.159 164.204C477.651 195.653 508.819 236.144 524.667 280.228C540.539 324.466 540.995 371.802 527.958 416.061C523.963 429.595 518.749 442.792 512.482 455.563H516.523C522.811 442.68 528.026 429.369 532.006 415.722C544.972 371.169 544.287 323.552 528.069 279.126C511.878 234.863 480.261 194.281 438.336 162.841C397.001 131.877 346.147 109.849 293.253 97.4301C241.769 85.3599 188.715 82.2242 138.693 85.8443C90.6708 89.3322 45.5774 98.937 5.11301 112.34L5.06846 112.672C45.4735 99.3724 90.4777 89.8925 138.36 86.5413C188.213 83.0653 241.042 86.3541 292.224 98.5536Z" fill="var(--fill-0, #205C49)"/>
<path id="Vector_78" opacity="0.99" d="M291.735 99.0856C344.15 111.697 394.417 133.868 435.128 164.849C476.415 196.301 507.371 236.75 523.059 280.748C538.768 324.897 539.118 372.099 526.045 416.222C522.043 429.702 516.831 442.844 510.573 455.565H518.996C525.294 442.614 530.512 429.234 534.483 415.516C547.405 370.784 546.58 322.995 530.15 278.453C513.748 234.079 481.856 193.445 439.665 162.01C398.069 131.052 346.973 109.087 293.88 96.7464C242.213 84.7565 189.019 81.7144 138.896 85.4208C90.7866 88.9919 45.6383 98.671 5.13974 112.14L5.04618 112.829C45.4245 99.5805 90.3857 90.1585 138.201 86.8712C187.975 83.4636 240.697 86.8252 291.735 99.0856Z" fill="var(--fill-0, #205C49)"/>
<path id="Vector_79" opacity="0.4" d="M322.504 371.054C316.855 400.132 304.293 427.458 287.091 451.429C286.092 452.82 285.076 454.199 284.049 455.565H286.281C287.325 454.17 288.354 452.764 289.367 451.343C306.566 427.216 319.081 399.732 324.626 370.515C335.991 310.399 314.727 244.675 263.022 198.486C212.484 153.421 135.758 129.915 63.2613 130.393C63.2153 130.538 63.1693 130.683 63.1232 130.827C135.455 130.53 211.867 154.252 261.996 199.377C313.273 245.622 334.089 311.194 322.504 371.054Z" fill="var(--fill-0, #205C49)"/>
<path id="Vector_80" opacity="0.42" d="M329.607 378.143C323.205 406.176 310.475 432.438 293.499 455.566H297.279C314.299 432.162 326.989 405.608 333.245 377.306C346.272 318.181 328.411 252.96 280.155 205.23C232.884 158.558 158.808 131.6 86.7072 128.54C86.6018 128.812 86.4978 129.084 86.3924 129.355C158.176 132.715 231.683 160.004 278.269 206.738C325.811 254.521 342.965 319.454 329.607 378.143Z" fill="var(--fill-0, #205C49)"/>
<path id="Vector_81" opacity="0.31" d="M334.996 51.9268C401.753 58.5222 469.765 75.7209 530.147 105.412C591.701 135.712 644.295 179.16 677.095 230.91C710.036 282.956 722.353 342.937 713.134 400.557C710.124 419.283 704.913 437.686 697.814 455.567H705.456C712.586 437.475 717.791 418.858 720.748 399.919C729.787 341.753 716.918 281.262 683.225 228.927C649.674 176.888 596.163 133.364 533.779 103.141C472.6 73.5334 403.895 56.5501 336.583 50.1985C272.098 44.1337 209.447 47.6632 152.339 57.4433C98.5237 66.672 49.7653 81.3726 6.92476 99.0826C6.90397 99.2372 6.88317 99.3917 6.8609 99.5463C49.6168 81.9894 98.2445 67.4715 151.852 58.4523C208.702 48.9026 270.998 45.6242 334.996 51.9268Z" fill="var(--fill-0, #205C49)"/>
<path id="Vector_82" opacity="0.48" d="M398.054 27.9558C461.829 33.4128 527.07 47.0167 588.072 70.6518C650.318 94.7922 707.412 129.42 750.808 173.017C794.37 216.824 823.47 269.651 833.081 324.584C840.693 368.266 836.058 413.101 821.083 455.566H832.718C847.765 412.5 852.213 367.039 844.135 322.826C833.948 267.272 803.88 213.968 759.239 169.927C714.762 126.093 656.506 91.4604 593.208 67.4522C531.201 43.9568 465.089 30.6145 400.59 25.4488C338.717 20.5089 278.823 23.0442 223.362 30.6784C223.027 31.2238 222.693 31.7692 222.357 32.3131C277.428 24.9628 336.824 22.7307 398.054 27.9558Z" fill="var(--fill-0, #205C49)"/>
<path id="Vector_83" opacity="0.19" d="M164.105 32.9447C195.292 25.3017 228.383 19.0124 263.167 14.5392C299.221 9.90702 337.03 7.23648 376.126 7.09085C416.451 6.94669 458.018 9.49389 499.952 15.3507C542.892 21.3545 586.032 30.8136 627.931 44.2451C713.401 71.6728 792.894 116.1 848.769 175.363C904.679 234.744 934.812 308.932 931.48 382.271C930.332 407.048 925.492 431.618 917.492 455.565H938.471C946.557 431.037 951.345 405.877 952.279 380.53C954.972 305.692 922.927 230.198 864.689 170.212C806.46 110.316 724.35 65.9111 636.601 38.8223C593.621 25.5677 549.49 16.3567 505.659 10.6367C462.889 5.0623 420.588 2.82422 379.62 3.28343C339.938 3.73372 301.627 6.7104 265.146 11.6383C229.98 16.3924 196.569 22.9491 165.116 30.8434C134.876 38.4359 106.457 47.2604 79.9161 56.9573C54.4179 66.2752 30.6424 76.4031 8.56573 87.0733C8.52266 87.3854 8.48108 87.6975 8.43801 88.0081C30.436 77.4924 54.112 67.5354 79.4795 58.4048C105.867 48.907 134.096 40.3025 164.105 32.9447Z" fill="var(--fill-0, #205C49)"/>
<path id="Vector_84" opacity="0.24" d="M744.39 273.519C767.933 332.328 766.631 396.544 744.691 455.565H750.227C772.209 396.119 773.291 331.451 749.281 272.336C720.045 200.545 654.705 138.867 574.229 99.1227C573.316 99.6622 572.405 100.202 571.495 100.738C651.216 140.535 715.715 202.081 744.39 273.519Z" fill="var(--fill-0, #205C49)"/>
<path id="Vector_85" opacity="0.1" d="M178.085 127.207C217.332 135.87 255.035 151.291 286.698 172.838C351.091 216.717 386.43 286.304 382.075 353.662C379.904 386.835 369.038 418.904 351.968 447.565C350.357 450.268 348.678 452.929 346.964 455.565H351.798C353.538 452.862 355.24 450.133 356.872 447.362C373.932 418.362 384.671 385.954 386.583 352.491C390.409 284.606 354.018 214.764 288.719 171.052C256.617 149.593 218.527 134.332 178.973 125.852C140.181 117.548 100.071 115.653 61.8372 118.891C61.7555 119.158 61.6753 119.426 61.5936 119.693C99.679 116.632 139.581 118.723 178.085 127.207Z" fill="var(--fill-0, #205C49)"/>
<path id="Vector_86" opacity="0.32" d="M328.624 208.321C375.37 258.596 391.76 325.073 377.673 385.511C371.856 410.392 361.314 434.022 347.338 455.565H349.907C363.907 433.869 374.433 410.077 380.183 385.043C394.089 324.31 377.268 257.615 330.054 207.335C283.717 158.078 210.313 127.228 136.7 119.772C136.593 119.977 136.486 120.182 136.379 120.388C209.742 128.029 282.736 159.059 328.624 208.321Z" fill="var(--fill-0, #205C49)"/>
<path id="Vector_87" opacity="0.33" d="M137.439 118.282C179.591 122.253 221.803 133.236 259.095 151.529C335.239 188.934 386.151 258.678 390.538 330.619C392.685 366.342 384.478 401.76 368.555 433.733C364.819 441.227 360.668 448.507 356.164 455.565H358.901C363.421 448.441 367.582 441.092 371.323 433.529C387.217 401.358 395.318 365.743 392.985 329.867C388.227 257.648 336.65 187.838 260.01 150.584C222.479 132.369 180.075 121.495 137.776 117.637C96.458 113.881 55.3208 116.681 17.1671 124.217C17.1478 124.329 17.127 124.44 17.1077 124.552C55.2035 117.108 96.253 114.415 137.439 118.282Z" fill="var(--fill-0, #205C49)"/>
<path id="Vector_88" opacity="0.54" d="M320.091 74.8218C379.675 84.92 438.627 105.186 488.644 136.09C539.464 167.521 580.319 209.985 603.573 258.059C626.914 306.395 632.267 359.895 620.583 410.545C617.029 425.908 611.959 440.954 605.577 455.565H610.146C616.548 440.832 621.618 425.663 625.151 410.178C636.746 359.2 631.109 305.388 607.353 256.857C583.686 208.59 542.306 166.05 490.992 134.642C440.493 103.767 381.107 83.6196 321.169 73.6657C263.225 64.0624 205.23 63.8172 151.422 70.151C100.223 76.1935 52.967 88.0973 10.9656 103.459C10.9492 103.571 10.9329 103.681 10.9151 103.792C52.8571 88.5357 100.019 76.7553 151.076 70.8539C204.707 64.6687 262.466 65.0759 320.091 74.8218Z" fill="var(--fill-0, #205C49)"/>
<path id="Vector_89" opacity="0.65" d="M331.086 56.189C396.487 63.3773 462.805 81.0977 521.243 110.982C580.776 141.459 631.157 184.708 662.149 235.745C693.277 287.082 704.274 345.82 694.626 402.107C691.491 420.316 686.265 438.197 679.245 455.566H690.938C698.007 437.874 703.224 419.666 706.282 401.13C715.661 344.006 703.836 284.484 671.569 232.697C639.44 181.211 587.667 137.833 526.862 107.467C467.2 77.7034 399.814 60.3115 333.557 53.4961C270 46.9781 208.025 50.0291 151.411 59.3707C97.9906 68.1997 49.4816 82.5511 6.80298 99.9668C6.77031 100.209 6.73616 100.451 6.70348 100.695C49.2514 83.52 97.5554 69.454 150.652 60.952C206.862 51.9655 268.286 49.3053 331.086 56.189Z" fill="var(--fill-0, #205C49)"/>
<path id="Vector_90" opacity="0.61" d="M202.29 196.592C256.314 239.468 279.285 304.41 268.237 363.199C262.887 391.552 250.463 417.975 233.449 440.725C229.592 445.877 225.508 450.823 221.237 455.565H226.635C230.966 450.673 235.099 445.572 238.991 440.261C255.952 417.1 268.199 390.276 273.23 361.583C283.599 302.189 259.384 236.985 204.309 194.391C150.662 152.985 71.435 136.35 0.784104 144.04C0.746978 144.308 0.711341 144.575 0.674215 144.841C71.0489 137.616 149.649 154.899 202.29 196.592Z" fill="var(--fill-0, #205C49)"/>
<path id="Vector_91" opacity="0.46" d="M122.382 119.803C164.501 122.814 206.954 132.859 244.695 150.367C321.791 186.191 374.416 255.251 379.899 327.07C382.59 362.742 374.795 398.197 359.174 430.197C354.894 438.953 350.035 447.412 344.707 455.565H351.903C357.281 447.213 362.166 438.55 366.451 429.588C381.977 397.057 389.466 361.084 386.26 325.013C379.749 252.479 325.336 183.301 246.949 147.912C208.592 130.624 165.649 120.885 123.166 118.175C81.6937 115.543 40.7273 119.465 2.97455 128.013C2.93742 128.282 2.90029 128.551 2.86465 128.82C40.4793 120.514 81.2378 116.876 122.382 119.803Z" fill="var(--fill-0, #205C49)"/>
<path id="Vector_92" opacity="0.34" d="M217.661 217.172C261.053 263.504 273.288 325.645 257.19 379.712C249.474 405.562 235.915 429.207 218.707 449.368C216.905 451.477 215.059 453.539 213.184 455.568H215.25C217.147 453.501 219.014 451.399 220.835 449.251C238.038 428.938 251.548 405.143 259.167 379.16C275.051 324.847 262.398 262.559 218.6 216.285C175.681 171.03 104.557 145.069 35.9232 144.246C35.8905 144.381 35.8564 144.517 35.8222 144.654C104.314 145.66 175.133 171.85 217.661 217.172Z" fill="var(--fill-0, #205C49)"/>
<path id="Vector_93" opacity="0.56" d="M247.309 194.371C301.297 239.221 324.887 305.107 314.639 365.703C309.637 395.15 297.432 422.9 280.388 447.215C278.4 450.049 276.346 452.832 274.235 455.565H276.303C278.428 452.796 280.495 449.977 282.497 447.106C299.535 422.643 311.687 394.746 316.583 365.169C326.607 304.34 302.579 238.33 248.194 193.549C195.121 149.931 116.494 129.371 43.9395 132.75C43.9068 132.872 43.8756 132.996 43.8429 133.118C116.263 129.906 194.615 150.68 247.309 194.371Z" fill="var(--fill-0, #205C49)"/>
<path id="Vector_94" opacity="0.1" d="M203.622 195.14C258.338 237.83 282.127 302.946 271.527 362.133C266.385 390.71 254.077 417.397 237.099 440.419C233.219 445.676 229.102 450.723 224.791 455.565H229.329C233.689 450.598 237.844 445.419 241.755 440.029C258.69 416.663 270.847 389.638 275.718 360.778C285.745 301.084 260.907 235.748 205.309 193.299C151.163 152.039 71.6251 135.723 0.839054 143.644C0.807868 143.867 0.778167 144.089 0.746981 144.312C71.3028 136.779 150.318 153.636 203.622 195.14Z" fill="var(--fill-0, #205C49)"/>
<path id="Vector_95" opacity="0.58" d="M157.622 46.4386C187.124 40.3738 218.202 35.7594 250.574 33.0294C283.948 30.2177 318.634 29.4182 354.085 31.1198C427.646 34.6656 504.2 49.1166 574.573 77.6232C646.592 106.83 710.816 151.001 753.341 206.242C796.001 261.732 815.615 328.043 808.787 392.548C806.506 413.935 801.415 435.034 793.917 455.568H807.627C815.18 434.657 820.25 413.171 822.415 391.407C828.878 325.921 808.16 258.721 764.071 202.77C720.109 147.057 654.206 102.823 580.693 73.7949C508.906 45.4786 431.164 31.4244 356.661 28.3095C320.789 26.8175 285.742 27.831 252.056 30.8508C219.403 33.7829 188.09 38.5919 158.39 44.8396C129.69 50.8806 102.521 58.2621 76.995 66.6289C52.3641 74.7059 29.2613 83.7014 7.70738 93.3418C7.67471 93.5825 7.64203 93.8233 7.60936 94.064C29.1039 84.5395 52.1295 75.6734 76.6609 67.7376C102.07 59.5238 129.098 52.3058 157.622 46.4386Z" fill="var(--fill-0, #205C49)"/>
<path id="Vector_96" opacity="0.19" d="M417.584 271.159C439.565 325.285 435.317 384.678 411.109 436.156C407.995 442.77 404.564 449.24 400.865 455.565H404.947C408.669 449.158 412.113 442.605 415.234 435.905C439.391 383.992 443.302 324.172 420.771 269.825C398.305 215.768 349.576 169.182 288.669 141.116C288.199 141.574 287.73 142.03 287.261 142.486C347.617 170.709 395.657 217.303 417.584 271.159Z" fill="var(--fill-0, #205C49)"/>
<path id="Vector_97" opacity="0.59" d="M158.288 45.055C187.96 38.8312 219.243 34.0489 251.857 31.1436C285.501 28.152 320.499 27.1667 356.314 28.687C430.689 31.8613 508.271 45.969 579.868 74.3091C653.177 103.361 718.851 147.588 762.618 203.237C806.513 259.125 827.081 326.205 820.568 391.558C818.386 413.272 813.315 434.704 805.769 455.564H821.309C828.918 434.273 833.963 412.405 836.011 390.264C842.105 323.799 820.269 255.716 774.742 199.313C729.336 143.137 661.754 98.8478 586.752 70.0024C513.556 41.8852 434.633 28.2293 359.199 25.5424C322.912 24.2569 287.507 25.483 253.515 28.7108C220.584 31.8405 189.039 36.8413 159.145 43.2717C130.272 49.4851 102.964 57.0257 77.3232 65.5411C52.5943 73.7563 29.4157 82.8781 7.8039 92.6359C7.76678 92.9049 7.73113 93.1724 7.69401 93.4413C29.2405 83.8158 52.3329 74.8382 76.9505 66.7805C102.461 58.433 129.612 51.0738 158.288 45.055Z" fill="var(--fill-0, #205C49)"/>
<path id="Vector_98" opacity="0.46" d="M200.963 198.038C254.3 241.098 276.463 305.862 264.975 364.254C259.418 392.384 246.878 418.546 229.831 441.028C226 446.076 221.947 450.919 217.716 455.565H220.226C224.485 450.85 228.561 445.933 232.411 440.811C249.434 418.137 261.892 391.79 267.302 363.5C278.475 304.826 255.738 239.935 201.909 197.005C149.458 155.258 70.9761 137.852 0.653424 144.992C0.635604 145.118 0.619268 145.243 0.601448 145.369C70.7964 138.45 148.982 156.158 200.963 198.038Z" fill="var(--fill-0, #205C49)"/>
<path id="Vector_99" opacity="0.69" d="M158.249 45.1338C187.913 38.9189 219.183 34.1455 251.785 31.2506C285.412 28.2694 320.394 27.293 356.188 28.8252C430.517 32.0204 508.041 46.1473 579.568 74.4964C652.804 103.557 718.395 147.781 762.091 203.408C805.916 259.273 826.429 326.311 819.898 391.615C817.712 413.309 812.638 434.724 805.095 455.565H819.279C826.881 434.331 831.928 412.52 833.994 390.435C840.144 324.115 818.474 256.162 773.161 199.826C727.969 143.718 660.636 99.4363 585.855 70.5626C512.867 42.4157 434.12 28.7019 358.823 25.9511C322.597 24.6359 287.246 25.8307 253.299 29.0258C220.41 32.1274 188.897 37.0984 159.033 43.502C130.186 49.6902 102.899 57.207 77.2757 65.7001C52.5616 73.8945 29.3935 82.9984 7.79054 92.7384C7.75638 92.9836 7.72371 93.2288 7.68956 93.474C29.2331 83.8544 52.321 74.8828 76.9341 66.831C102.438 58.4939 129.582 51.1436 158.249 45.1338Z" fill="var(--fill-0, #205C49)"/>
<path id="Vector_100" opacity="0.6" d="M239.573 190.654C295.587 234.533 321.351 300.703 312.169 361.985C307.68 391.793 295.754 419.959 278.811 444.645C276.249 448.374 273.567 452.009 270.796 455.565H275.435C278.244 451.917 280.958 448.188 283.547 444.363C300.466 419.338 312.261 390.837 316.498 360.742C325.152 298.944 298.369 232.516 241.466 188.821C186.005 146.316 105.719 128.071 32.9071 133.569C32.8477 133.826 32.7897 134.082 32.7303 134.339C105.255 129.221 184.962 147.956 239.573 190.654Z" fill="var(--fill-0, #205C49)"/>
<path id="Vector_101" opacity="0.9" d="M296.581 75.4252C347.499 82.7057 398.318 97.3335 443.956 119.989C490.363 143.048 531.029 174.455 560.29 211.782C589.755 249.407 607.391 292.882 611.352 337.065C614.938 377.354 607.261 417.932 590.624 455.566H594.847C611.515 417.669 619.117 376.816 615.336 336.293C611.165 291.88 593.191 248.224 563.344 210.507C533.701 173.091 492.617 141.676 445.828 118.67C399.821 96.0688 348.676 81.5465 297.491 74.3879C247.833 67.4567 198.409 67.3779 151.954 72.34C151.843 72.563 151.733 72.7844 151.621 73.0073C197.929 68.1656 247.168 68.3736 296.581 75.4252Z" fill="var(--fill-0, #205C49)"/>
<path id="Vector_102" opacity="0.77" d="M390.467 226.441C429.694 280.347 438.912 346.584 420.632 405.902C415.289 423.205 407.781 439.837 398.547 455.565H402.029C411.289 439.695 418.794 422.917 424.104 405.467C442.234 345.759 432.557 279.184 392.752 225.188C353.48 172.013 286.279 133.491 214.015 117.307C213.773 117.634 213.531 117.959 213.289 118.286C285.146 134.676 351.755 173.344 390.467 226.441Z" fill="var(--fill-0, #205C49)"/>
<path id="Vector_103" opacity="0.86" d="M301.697 455.565H304.159C328.441 421.569 343.538 381.146 343.765 339.079C343.975 293.961 326.396 248.203 292.513 211.595C292.078 211.922 291.643 212.25 291.208 212.577C324.749 249.196 341.988 294.849 341.554 339.794C341.119 381.653 325.946 421.814 301.697 455.565Z" fill="var(--fill-0, #205C49)"/>
<path id="Vector_104" opacity="0.41" d="M213.104 90.1912C260.924 94.385 309.272 105.703 353.191 124.98C397.934 144.638 437.758 172.635 467.053 206.701C496.619 241.116 515.207 281.535 520.894 322.998C526.544 364.376 519.49 406.378 502.393 444.844C500.785 448.457 499.066 452.024 497.292 455.566H507.46C509.267 451.906 511.015 448.221 512.646 444.488C529.725 405.327 536.449 362.618 530.163 320.683C523.841 278.685 504.329 237.884 473.763 203.318C443.481 169.111 402.622 141.193 356.973 121.746C312.184 102.685 263.107 91.6966 214.71 87.8476C167.785 84.1294 121.687 87.0199 78.9345 94.5871C78.7845 95.0404 78.636 95.4922 78.4875 95.9439C120.97 88.6828 166.696 86.1356 213.104 90.1912Z" fill="var(--fill-0, #205C49)"/>
<path id="Vector_105" opacity="0.21" d="M380.443 255.989C407.383 309.14 407.028 369.452 385.033 421.998C380.159 433.626 374.293 444.835 367.608 455.566H373.879C380.606 444.635 386.488 433.218 391.347 421.382C413.166 368.142 412.863 307.184 384.975 253.764C357.273 200.813 302.646 157.615 238.305 134.644C237.735 135.313 237.164 135.98 236.596 136.646C300.13 159.937 353.661 203.271 380.443 255.989Z" fill="var(--fill-0, #205C49)"/>
<path id="Vector_106" opacity="0.27" d="M246.917 189.603C303.314 233.729 329.558 300.195 320.652 361.967C316.29 392.056 304.42 420.548 287.452 445.587C285.149 448.985 282.745 452.306 280.269 455.565H285.306C287.821 452.212 290.258 448.797 292.592 445.303C309.538 419.901 321.27 391.045 325.362 360.647C333.705 298.312 306.367 231.562 249.008 187.627C193.096 144.883 112.486 126.366 39.1962 131.496C39.1264 131.78 39.0566 132.064 38.9853 132.348C111.954 127.625 191.928 146.662 246.917 189.603Z" fill="var(--fill-0, #205C49)"/>
<path id="Vector_107" opacity="0.72" d="M330.288 369.316C324.66 400.69 311.026 430.023 292.245 455.565H296.798C315.632 429.658 329.201 399.943 334.61 368.22C341.526 327.487 334.432 284.369 312.01 246.347C311.026 246.951 310.044 247.553 309.064 248.153C330.906 286.086 337.504 328.935 330.288 369.316Z" fill="var(--fill-0, #205C49)"/>
<path id="Vector_108" opacity="0.96" d="M444.251 455.565H446.87C447.726 453.982 448.581 452.4 449.404 450.799C466.979 416.566 476.391 378.844 474.998 340.815C474.185 341.008 473.372 341.201 472.561 341.394C473.812 379.274 464.331 416.815 446.759 450.87C445.945 452.446 445.099 454.006 444.251 455.565Z" fill="var(--fill-0, #205C49)"/>
<path id="Vector_109" opacity="0.62" d="M316.382 95.403C369.749 108.93 420.769 132.071 461.985 164.057C503.756 196.508 534.938 237.981 550.52 282.971C566.121 328.11 566.03 376.294 552.235 421.288C548.642 432.985 544.133 444.422 538.855 455.565H548.833C554.154 444.187 558.678 432.509 562.251 420.572C575.901 374.865 575.468 325.987 559.043 280.373C542.645 234.924 510.378 193.21 467.543 160.756C425.287 128.774 373.279 105.849 319.094 92.621C266.371 79.7676 211.984 75.9424 160.575 78.9636C111.271 81.8749 64.8711 90.9774 23.1073 103.964C23.0538 104.259 22.9989 104.553 22.9454 104.847C64.5459 92.1202 110.704 83.3194 159.638 80.7381C210.607 78.0631 264.415 82.2509 316.382 95.403Z" fill="var(--fill-0, #205C49)"/>
<path id="Vector_110" opacity="0.36" d="M402.304 314.156C409.854 363.474 397.164 413.254 371.014 455.567H374.737C400.933 412.871 413.461 362.682 405.528 313.072C397.414 262.593 367.504 214.228 321.773 178.988C321.184 179.449 320.595 179.908 320.007 180.367C365.22 215.661 394.573 263.918 402.304 314.156Z" fill="var(--fill-0, #205C49)"/>
<path id="Vector_111" opacity="0.73" d="M384.999 204.133C434.154 257.006 452.271 326.761 438.012 390.814C432.955 413.456 424.186 435.226 412.548 455.567H420.714C432.415 434.823 441.15 412.637 446.056 389.592C459.842 324.622 440.441 254.146 389.856 201.184C340.192 149.278 263.132 116.454 185.561 106.904C185.127 107.58 184.695 108.256 184.263 108.931C260.977 119.004 336.719 152.291 384.999 204.133Z" fill="var(--fill-0, #205C49)"/>
<path id="Vector_112" opacity="0.31" d="M714.854 455.565C715.096 454.944 715.354 454.329 715.59 453.706C713.022 453.74 710.467 453.774 707.918 453.808C707.693 454.397 707.446 454.978 707.216 455.565H714.854Z" fill="var(--fill-0, #205C49)"/>
<path id="Vector_113" opacity="0.4" d="M256.014 247.203C285.268 296.107 286.212 353.373 265.557 401.805C257.132 421.526 245.421 439.61 231.526 455.565H236.26C250.219 439.304 261.924 420.897 270.257 400.86C290.596 351.855 288.934 294.139 258.815 245.175C228.959 196.745 171.24 160.235 107.458 146.819C107.248 147.261 107.039 147.702 106.83 148.144C170.119 161.953 226.993 198.799 256.014 247.203Z" fill="var(--fill-0, #205C49)"/>
<path id="Vector_114" opacity="0.38" d="M190.994 455.565C194.091 452.465 197.105 449.258 200.019 445.934C198.979 446.011 197.943 446.087 196.909 446.164C194.028 449.408 191.049 452.538 187.992 455.565H190.994Z" fill="var(--fill-0, #205C49)"/>
<path id="Vector_115" opacity="0.97" d="M247.754 116.121C288.729 127.054 327.758 144.656 360.499 168.288C427.005 216.355 463.518 289.892 458.56 361.414C456.254 394.321 445.97 426.348 429.745 455.565H434.797C451.067 426.017 461.28 393.645 463.384 360.427C467.892 288.348 430.374 214.481 362.939 166.497C329.746 142.911 290.301 125.433 248.979 114.653C208.491 104.103 166.346 99.9015 125.688 100.925C125.538 101.248 125.39 101.57 125.24 101.891C165.703 101.038 207.593 105.418 247.754 116.121Z" fill="var(--fill-0, #205C49)"/>
<path id="Vector_116" opacity="0.13" d="M299.517 178.487C360.892 224.076 392.595 293.58 386.243 359.999C383.094 392.662 371.619 424.079 354.248 452.123C353.531 453.279 352.791 454.421 352.056 455.565H357.344C358.105 454.369 358.869 453.174 359.609 451.966C376.986 423.559 388.34 391.775 391.23 358.794C397.048 291.79 364.244 221.966 301.878 176.518C271.184 154.18 234.273 137.704 195.473 127.873C157.391 118.239 117.583 114.907 79.2998 116.787C79.1869 117.105 79.0756 117.424 78.9642 117.742C155.889 114.351 239.698 134.136 299.517 178.487Z" fill="var(--fill-0, #205C49)"/>
<path id="Vector_117" opacity="0.34" d="M279.534 32.383C312.94 30.9429 347.438 31.5968 382.419 34.8038C454.726 41.4453 528.79 59.133 595.241 90.3071C662.98 122.12 721.57 168.144 758.451 223.629C795.42 279.327 809.659 344.165 799.51 406.388C796.777 423.059 792.351 439.494 786.446 455.566H803.344C809.308 439.114 813.731 422.294 816.386 405.236C826.211 341.82 810.783 275.853 772.17 219.516C733.636 163.378 673.026 117.176 603.443 85.5055C535.224 54.4918 459.627 37.2455 386.083 31.1079C350.54 28.1505 315.557 27.7552 281.725 29.4524C248.859 31.1049 217.147 34.7251 186.913 39.8849C157.646 44.8827 129.797 51.316 103.513 58.8313C78.1177 66.0954 54.1907 74.3656 31.7755 83.364C31.7057 83.7177 31.6359 84.0714 31.5676 84.4251C76.9787 66.4387 128.631 51.4854 185.719 42.0873C215.674 37.1623 247.056 33.7873 279.534 32.383Z" fill="var(--fill-0, #205C49)"/>
<path id="Vector_118" opacity="0.13" d="M268.297 364.226C261.58 398.681 244.441 430.032 221.513 455.565H226.172C249.172 429.57 266.219 397.727 272.617 362.842C279.784 323.619 272.847 281.636 250.155 245.028C249.251 245.702 248.348 246.377 247.448 247.049C269.495 283.629 275.844 325.364 268.297 364.226Z" fill="var(--fill-0, #205C49)"/>
<path id="Vector_119" opacity="0.97" d="M540.998 135.133C627.353 191.257 680.531 279.996 677.41 368.74C676.343 398.333 669.563 427.625 658.094 455.565H664.067C675.57 427.368 682.309 397.81 683.247 367.969C685.981 278.574 631.69 189.407 544.267 133.291C501.148 105.65 451.294 85.4996 399.836 72.7888C349.65 60.4066 298.266 55.0595 248.844 55.2587C248.568 55.6466 248.292 56.0329 248.016 56.4193C297.172 56.3807 348.226 61.8897 398.012 74.3998C449.041 87.2413 498.401 107.484 540.998 135.133Z" fill="var(--fill-0, #205C49)"/>
<path id="Vector_120" opacity="0.81" d="M320.148 68.1135C381.818 76.9098 443.496 96.0108 496.677 126.35C550.77 157.242 595.244 199.851 621.477 248.906C647.822 298.248 655.404 353.607 644.65 406.291C641.206 423.104 635.956 439.577 629.153 455.566H642.865C649.727 439.2 654.974 422.341 658.337 405.146C668.796 351.475 660.3 295.187 632.662 245.288C605.144 195.681 559.064 152.881 503.483 122.094C448.862 91.8705 385.903 73.1425 323.202 64.7876C262.801 56.7582 203.132 58.1819 148.212 66.036C96.152 73.4918 48.5059 86.6394 6.38272 103.043C6.34113 103.349 6.29956 103.657 6.25649 103.963C48.2134 87.8595 95.6041 75.0685 147.258 68.0155C201.679 60.5983 260.671 59.6487 320.148 68.1135Z" fill="var(--fill-0, #205C49)"/>
<path id="Vector_121" opacity="0.41" d="M199.431 105.775C243.529 111.978 287.244 125.174 325.747 145.571C404.31 187.251 456.499 260.803 460.547 336.701C462.531 374.517 453.66 412.117 436.562 446.253C434.987 449.393 433.325 452.492 431.619 455.567H438.5C440.233 452.407 441.921 449.225 443.515 445.997C460.602 411.387 469.272 373.306 466.886 335.099C462.032 258.475 408.277 184.651 328.451 143.235C289.343 122.975 245.111 110.004 200.601 104.045C157.204 98.2474 113.687 99.0053 72.8666 104.648C72.7582 104.985 72.6483 105.324 72.5399 105.662C113.163 100.245 156.411 99.7365 199.431 105.775Z" fill="var(--fill-0, #205C49)"/>
<path id="Vector_122" opacity="0.61" d="M442.188 164.761C511.241 217.725 548.434 296.377 541.525 372.622C538.909 401.251 530.634 429.262 517.869 455.566H523.179C535.982 428.993 544.216 400.704 546.699 371.814C553.241 294.985 515.087 215.93 445.082 162.976C410.556 136.894 369.321 116.952 325.775 103.761C283.113 90.851 238.436 84.3642 194.925 83.2615C194.694 83.633 194.46 84.0045 194.229 84.3761C237.498 85.6393 281.877 92.2851 324.176 105.323C367.337 118.638 408.127 138.67 442.188 164.761Z" fill="var(--fill-0, #205C49)"/>
<path id="Vector_123" opacity="0.33" d="M259.176 229.846C296.061 278.431 303.252 339.002 285.289 391.509C277.237 414.996 264.596 436.629 248.938 455.565H252.713C268.419 436.363 281.04 414.449 288.982 390.695C306.651 337.739 298.819 276.838 261.225 228.257C224.184 180.486 159.159 148.062 91.7237 139.56C91.5945 139.872 91.4653 140.183 91.3361 140.495C158.421 149.313 222.816 182.049 259.176 229.846Z" fill="var(--fill-0, #205C49)"/>
<path id="Vector_124" opacity="0.43" d="M322.464 313.679C328.598 360.264 315.181 406.575 289.555 444.871C287.108 448.524 284.534 452.074 281.892 455.565H286.627C289.304 451.985 291.909 448.341 294.382 444.596C319.969 405.789 333.088 358.972 326.399 312.062C319.59 264.579 291.729 218.692 248.112 186.007C247.466 186.623 246.82 187.24 246.176 187.855C289.119 220.681 316.209 266.481 322.464 313.679Z" fill="var(--fill-0, #205C49)"/>
<path id="Vector_125" opacity="0.79" d="M718.798 118.909C818.755 185.525 878.799 289.776 869.335 392.01C867.326 413.505 862.543 434.795 855.34 455.565H871.205C878.467 434.382 883.222 412.673 885.108 390.768C893.954 286.848 831.199 181.303 728.48 114.525C677.478 81.4098 618.4 56.9811 557.353 40.9043C497.838 25.2481 436.996 17.5367 378.341 15.9867C377.36 17.03 376.381 18.0702 375.404 19.109C433.269 21.0217 493.162 29.0749 551.563 44.9837C611.423 61.3057 669.166 85.8741 718.798 118.909Z" fill="var(--fill-0, #205C49)"/>
<path id="Vector_126" opacity="0.49" d="M452.824 239.624C487.658 296.564 492.391 363.802 470.766 423.542C466.789 434.51 461.991 445.202 456.472 455.566H465.736C471.302 444.963 476.118 434.025 480.08 422.811C501.496 362.077 495.782 293.897 459.56 236.578C423.707 179.952 359.115 136.161 286.656 113.938C285.78 114.868 284.907 115.795 284.035 116.721C355.313 139.37 418.326 183.347 452.824 239.624Z" fill="var(--fill-0, #205C49)"/>
<path id="Vector_127" opacity="0.6" d="M201.906 90.3755C249.821 93.7326 298.516 104.198 343.035 122.734C388.417 141.649 429.134 169.044 459.392 202.751C489.945 236.821 509.563 277.156 516.101 318.728C522.604 360.234 516.207 402.546 499.536 441.358C497.473 446.155 495.256 450.891 492.899 455.566H501.405C503.792 450.775 506.034 445.92 508.115 441.003C524.755 401.604 530.854 358.699 523.795 316.732C516.703 274.717 496.291 234.075 464.888 199.896C433.794 166.087 392.209 138.775 346.073 120.05C300.834 101.709 251.543 91.5287 203.158 88.4658C156.277 85.5114 110.429 89.1301 68.058 97.3468C67.9496 97.708 67.8397 98.0676 67.7313 98.4287C109.89 90.4661 155.444 87.1328 201.906 90.3755Z" fill="var(--fill-0, #205C49)"/>
<path id="Vector_128" opacity="0.4" d="M602.329 266.694C628.826 327.605 626.344 395.372 600.134 455.565H604.066C630.316 395.001 632.576 326.834 605.638 265.682C577.481 201.919 518.161 147.714 445.762 113.846C445.195 114.251 444.629 114.657 444.063 115.063C515.929 149.01 574.624 203.161 602.329 266.694Z" fill="var(--fill-0, #205C49)"/>
<path id="Vector_129" opacity="0.73" d="M225.183 214.472C269.712 260.794 283.23 323.426 267.857 378.379C260.466 404.728 247.081 428.947 229.896 449.717C228.253 451.703 226.566 453.646 224.858 455.566H229.791C231.548 453.562 233.281 451.53 234.968 449.454C252.139 428.326 265.411 403.749 272.571 377.082C287.439 321.549 272.927 258.565 227.431 212.379C182.877 167.237 110.584 141.903 41.1951 141.423C41.1104 141.747 41.0258 142.073 40.9411 142.397C109.982 143.314 181.555 169.177 225.183 214.472Z" fill="var(--fill-0, #205C49)"/>
<path id="Vector_130" opacity="0.27" d="M267.115 274.148C285.568 322.588 279.043 374.755 255.595 417.87C248.189 431.469 239.205 444.07 229.114 455.565H234.276C244.432 443.81 253.44 430.939 260.817 417.064C284.031 373.333 289.949 320.623 270.648 271.986C251.296 223.354 206.027 181.559 149.323 159.781C148.957 160.361 148.59 160.939 148.227 161.516C204.285 183.666 248.592 225.662 267.115 274.148Z" fill="var(--fill-0, #205C49)"/>
<path id="Vector_131" opacity="0.93" d="M242.467 259.189C266.712 307.698 263.671 362.34 241.284 407.544C232.491 425.275 220.964 441.407 207.646 455.565H210.358C223.716 441.234 235.247 424.92 244 407.006C266.215 361.469 268.868 306.559 244.132 257.994C219.479 209.709 167.205 171.045 106.553 154.91C106.423 155.18 106.292 155.451 106.161 155.721C166.518 172.086 218.289 210.932 242.467 259.189Z" fill="var(--fill-0, #205C49)"/>
<path id="Vector_132" opacity="0.77" d="M297.493 221.641C338.017 271.269 348.736 334.355 332.345 390.343C325.463 413.79 314.235 435.782 299.946 455.565H305.628C319.976 435.425 331.173 413.058 337.91 389.252C353.896 332.604 342.241 269.021 300.68 219.371C259.798 170.627 191.449 138.313 121.269 129.433C121.037 129.906 120.804 130.379 120.572 130.851C190.198 140.166 257.612 172.892 297.493 221.641Z" fill="var(--fill-0, #205C49)"/>
<path id="Vector_133" opacity="0.17" d="M443.979 217.94C487.814 274.389 500.17 344.992 481.938 408.913C477.336 425.005 470.947 440.613 463.07 455.565H473.265C481.201 440.263 487.591 424.296 492.121 407.846C509.984 342.808 496.312 271.217 450.823 214.482C405.982 158.653 332.344 119.424 254.625 103.048C253.853 103.984 253.082 104.919 252.315 105.85C328.823 122.774 400.748 162.372 443.979 217.94Z" fill="var(--fill-0, #205C49)"/>
<path id="Vector_134" opacity="0.55" d="M511.918 270.127C536.344 328.985 532.153 394.091 505.37 450.887C504.629 452.455 503.869 454.012 503.097 455.565H512.04C512.836 453.941 513.62 452.312 514.382 450.673C541.179 392.983 544.757 326.951 519.232 267.572C493.815 208.582 439.908 158.102 373.396 126.858C372.204 127.824 371.014 128.787 369.829 129.747C435.126 161.226 487.583 211.63 511.918 270.127Z" fill="var(--fill-0, #205C49)"/>
<path id="Vector_135" opacity="0.89" d="M262.465 455.565H264.39C272.101 445.834 279.063 435.455 285.051 424.468C300.703 395.709 309.44 363.26 308.449 330.067C307.894 330.278 307.339 330.491 306.783 330.702C307.624 363.786 298.791 396.094 283.1 424.703C277.11 435.609 270.159 445.91 262.465 455.565Z" fill="var(--fill-0, #205C49)"/>
<path id="Vector_136" opacity="0.97" d="M365.151 252.672C393.131 305.272 393.645 365.462 372.245 417.902C366.883 431.023 360.24 443.611 352.563 455.565H356.618C364.326 443.464 370.976 430.726 376.322 417.452C397.588 364.559 396.619 303.953 368.008 251.195C339.603 198.927 284.259 156.803 219.777 135.253C219.437 135.678 219.097 136.105 218.757 136.53C282.728 158.304 337.359 200.541 365.151 252.672Z" fill="var(--fill-0, #205C49)"/>
<path id="Vector_137" opacity="0.28" d="M440.084 46.1815C498.85 57.1728 557.025 76.1861 608.909 104.028C661.49 132.27 707.063 169.605 738.947 213.345C770.915 257.251 788.773 307.525 790.312 358.046C791.295 391.01 785.427 423.978 773.805 455.565H779.977C791.632 423.722 797.45 390.49 796.326 357.282C794.571 306.425 776.302 255.861 743.828 211.782C711.436 167.864 665.278 130.466 612.141 102.245C559.714 74.4265 501.039 55.5158 441.845 44.6582C384.461 34.1485 327.048 31.1733 272.626 33.7903C272.363 34.1485 272.1 34.5066 271.837 34.8648C326.001 32.4053 383.094 35.538 440.084 46.1815Z" fill="var(--fill-0, #205C49)"/>
<path id="Vector_138" opacity="0.54" d="M311.125 272.613C330.664 322.368 325.269 376.349 302.214 421.943C296.214 433.792 289.101 445.025 281.116 455.565H287.745C295.791 444.764 302.929 433.257 308.908 421.13C331.738 374.774 336.431 320.097 315.872 270.048C295.311 220.122 249.166 177.261 191.499 153.62C190.932 154.37 190.366 155.119 189.802 155.867C246.614 179.902 291.563 222.928 311.125 272.613Z" fill="var(--fill-0, #205C49)"/>
<path id="Vector_139" opacity="0.29" d="M209.593 226.543C248.696 273.485 256.7 334.032 238.468 385.584C229.79 410.071 215.768 432.199 198.506 450.841C197.012 452.453 195.472 454.008 193.935 455.565H198.27C199.86 453.93 201.451 452.293 202.992 450.598C220.242 431.636 234.17 409.189 242.654 384.419C260.453 332.341 251.6 271.461 211.635 224.623C172.385 178.719 104.226 150.505 36.9182 147.725C36.8424 148.028 36.7652 148.329 36.6895 148.633C103.681 151.82 171.17 180.513 209.593 226.543Z" fill="var(--fill-0, #205C49)"/>
<path id="Vector_140" opacity="0.19" d="M309.933 19.0793C376.344 16.0075 447.103 20.5208 517.318 35.7342C589.957 51.4958 661.107 78.7987 720.776 118.432C780.997 158.472 828.395 211.171 852.983 269.911C877.547 328.708 878.925 393.205 858.913 453.006C858.626 453.86 858.321 454.71 858.027 455.563H872.304C872.616 454.653 872.938 453.746 873.239 452.834C893.307 392.101 891.367 326.621 865.755 267.145C840.109 207.713 791.207 154.62 729.489 114.491C668.342 74.7713 595.777 47.6661 521.926 32.2106C450.609 17.3093 378.965 13.1913 311.856 16.6555C279.669 18.3229 248.578 21.7261 218.842 26.5054C190.029 31.1406 162.519 37.0612 136.435 43.9702C136.238 44.4338 136.039 44.899 135.841 45.3612C161.778 38.6038 189.113 32.8437 217.719 28.3794C247.228 23.7784 278.055 20.5595 309.933 19.0793Z" fill="var(--fill-0, #205C49)"/>
<path id="Vector_141" opacity="0.72" d="M402.02 368.491C397.957 399.329 386.64 428.909 370.131 455.565H377.554C394.136 428.4 405.36 398.287 409.129 366.966C417.105 300.271 387.889 229.972 328.459 182.134C270.438 135.516 187.473 112.217 109.549 112.238C109.333 112.736 109.116 113.233 108.901 113.731C186.21 114.248 268.119 138.144 324.819 184.895C382.874 232.847 410.65 302.626 402.02 368.491Z" fill="var(--fill-0, #205C49)"/>
<path id="Vector_142" opacity="0.35" d="M240.601 276.212C249.406 300.266 252.021 325.446 249.111 349.769C246.256 373.546 238.201 396.231 226.358 416.596C218.033 430.901 207.896 443.951 196.541 455.566H200.294C211.705 443.74 221.861 430.463 230.158 415.929C241.909 395.328 249.808 372.424 252.442 348.467C255.124 323.977 252.221 298.673 243.096 274.561C224.868 226.508 180.315 185.023 124.193 164.188C123.959 164.605 123.728 165.021 123.495 165.439C179.164 186.576 223.003 228.245 240.601 276.212Z" fill="var(--fill-0, #205C49)"/>
<path id="Vector_143" opacity="0.77" d="M183.851 31.579C215.165 25.049 248.22 19.9739 282.754 16.8085C318.448 13.5421 355.651 12.3249 393.829 13.6922C433.085 15.1025 473.245 19.2472 513.375 26.6704C554.34 34.254 595.104 45.2378 634.216 60.0128C713.709 90.0679 785.607 136.28 833.909 195.219C882.242 254.274 905.304 325.878 898.198 395.578C896.112 415.878 891.553 435.947 884.852 455.566H903.839C910.607 435.492 915.147 414.961 917.107 394.206C923.76 323.161 899.161 250.327 848.842 190.645C798.53 131.053 724.294 84.7595 642.724 54.9392C602.616 40.2906 560.924 29.5044 519.118 22.1585C478.191 14.9732 437.321 11.1004 397.441 9.97093C358.685 8.87864 320.985 10.3752 284.861 13.9166C249.94 17.3435 216.559 22.6727 184.971 29.4434C154.529 35.9719 125.777 43.8335 98.8058 52.6654C72.8488 61.1689 48.5371 70.5716 25.8769 80.5999C25.8175 80.9327 25.7581 81.2656 25.6972 81.5985C48.2698 71.7248 72.4686 62.4901 98.2861 54.1694C125.099 45.5306 153.651 37.8816 183.851 31.579Z" fill="var(--fill-0, #205C49)"/>
<path id="Vector_144" opacity="0.94" d="M219.85 243.842C250.821 291.913 252.246 349.323 231.307 397.112C221.628 419.166 207.613 438.915 191.012 455.565H195.285C211.959 438.585 225.964 418.484 235.522 396.086C256.106 347.768 253.95 289.975 222.151 241.916C190.697 194.484 130.315 160.483 65.9537 151.117C65.829 151.478 65.7028 151.838 65.578 152.198C129.557 161.964 189.192 196.363 219.85 243.842Z" fill="var(--fill-0, #205C49)"/>
<path id="Vector_145" opacity="0.69" d="M815.254 455.565H824.13C842.101 404.529 844.813 349.937 829.93 298.25C827.182 298.771 824.445 299.29 821.72 299.807C836.1 351.05 833.162 405.07 815.254 455.565Z" fill="var(--fill-0, #205C49)"/>
<path id="Vector_146" opacity="0.25" d="M145.81 119.555C187.488 124.476 228.905 136.387 265.144 155.393C339.078 194.225 386.83 264.132 389.372 335.249C390.603 370.506 381.809 405.277 365.615 436.598C362.254 443.091 358.571 449.41 354.631 455.565H361.105C365.083 449.267 368.794 442.801 372.17 436.159C388.309 404.369 396.866 369.136 395.214 333.511C391.823 261.726 342.527 191.626 267.407 153.127C230.599 134.292 188.713 122.633 146.676 117.974C105.591 113.433 64.4449 115.445 26.113 122.267C26.0566 122.548 26.0001 122.829 25.9422 123.11C64.1256 116.512 105.052 114.757 145.81 119.555Z" fill="var(--fill-0, #205C49)"/>
<path id="Vector_147" opacity="0.88" d="M265.576 312.949C270.844 357.887 256.629 401.967 230.935 437.317C226.285 443.707 221.28 449.791 215.994 455.565H217.915C223.226 449.729 228.25 443.581 232.91 437.125C258.565 401.554 272.63 357.262 267.11 312.198C261.448 266.298 234.524 221.55 191.481 190.697C191.26 190.955 191.037 191.213 190.818 191.471C233.584 222.415 260.169 267.151 265.576 312.949Z" fill="var(--fill-0, #205C49)"/>
<path id="Vector_148" opacity="0.53" d="M466.84 5.80536C537.326 11.674 609.675 26.1993 677.757 51.6816C747.216 77.7064 811.283 115.153 860.073 162.74C908.889 210.403 941.545 268.278 951.693 328.436C958.799 370.747 954.828 414.083 941.415 455.565H949.235C962.689 413.735 966.562 370.038 959.204 327.413C948.703 266.838 915.413 208.634 865.88 160.805C816.367 113.045 751.518 75.5812 681.345 49.6293C612.583 24.2257 539.639 9.85947 468.657 4.17212C400.749 -1.25367 335.262 1.23111 274.702 9.04062C274.448 9.40323 274.195 9.76584 273.943 10.1285C334.23 2.49876 399.371 0.204206 466.84 5.80536Z" fill="var(--fill-0, #205C49)"/>
<path id="Vector_149" opacity="0.52" d="M405.417 455.565C415.193 438.704 422.979 420.824 428.286 402.233C426.47 402.471 424.66 402.707 422.857 402.943C417.487 421.297 409.695 438.937 399.959 455.565H405.417Z" fill="var(--fill-0, #205C49)"/>
<path id="Vector_150" opacity="0.18" d="M226.277 17.938C259.302 12.0634 294.059 7.74325 330.253 5.44275C367.645 3.07092 406.483 2.86286 446.186 5.35804C486.969 7.92604 528.524 13.3459 569.845 22.1541C611.967 31.1391 653.664 43.6224 693.405 59.9637C773.969 93.1203 845.67 142.648 892.193 204.442C938.639 266.22 958.372 340.045 947.511 410.953C945.191 426.014 941.541 440.91 936.707 455.566H952.991C957.87 440.624 961.524 425.436 963.797 410.084C974.409 338.043 953.507 263.133 905.454 200.762C857.297 138.347 783.621 88.6724 701.265 55.6525C660.657 39.384 618.146 27.0434 575.277 18.2367C533.246 9.6098 491.053 4.40396 449.701 2.06185C409.471 -0.211905 370.172 0.227985 332.381 2.82868C295.823 5.34912 260.759 9.88325 227.47 15.9644C195.384 21.8286 164.984 29.121 136.383 37.4684C108.863 45.5038 83.0109 54.5141 58.8478 64.2125C58.7646 64.5394 58.6815 64.8664 58.5983 65.1933C82.6679 55.6302 108.405 46.7685 135.785 38.8936C164.219 30.717 194.425 23.6075 226.277 17.938Z" fill="var(--fill-0, #205C49)"/>
<path id="Vector_151" opacity="0.38" d="M398.93 69.6056C451.229 81.8289 502.12 101.56 546.402 128.974C636.229 184.656 693.297 274.411 691.816 365.055C691.286 395.857 684.591 426.427 672.814 455.565H680.161C691.981 426.103 698.619 395.202 698.981 364.09C699.965 272.648 641.494 182.384 550.348 126.73C505.422 99.3352 453.927 79.7216 401.109 67.6603C349.665 55.9274 297.316 51.316 247.169 52.233C246.842 52.6966 246.517 53.1588 246.192 53.621C296.018 52.9032 347.971 57.7108 398.93 69.6056Z" fill="var(--fill-0, #205C49)"/>
<path id="Vector_152" opacity="0.94" d="M210.515 88.7883C258.723 92.5006 307.634 103.342 352.285 122.248C397.794 141.538 438.547 169.294 468.763 203.332C499.266 237.729 518.758 278.358 525.113 320.188C531.432 361.952 524.793 404.492 507.846 443.501C506.076 447.568 504.177 451.585 502.196 455.567H513.149C515.166 451.451 517.095 447.299 518.887 443.094C535.809 403.334 542.078 360.032 535.058 317.673C528.006 275.271 507.502 234.238 475.915 199.691C444.631 165.51 402.763 137.851 356.281 118.794C310.699 100.127 261.014 89.6473 212.193 86.3065C164.898 83.0846 118.607 86.4611 75.7788 94.4638C75.6258 94.9379 75.4743 95.4119 75.3214 95.886C117.868 88.2117 163.769 85.2009 210.515 88.7883Z" fill="var(--fill-0, #205C49)"/>
<path id="Vector_153" opacity="0.4" d="M169.99 120.802C210.907 127.763 250.914 141.623 285.289 162.132C355.308 203.969 397.553 274.413 396.869 344.459C396.502 379.108 386.647 412.989 369.877 443.443C367.609 447.555 365.208 451.593 362.707 455.566H370.869C373.413 451.459 375.851 447.286 378.147 443.034C394.885 412.006 404.49 377.546 404.38 342.42C404.099 271.504 359.997 200.713 288.464 159.214C253.36 138.878 212.726 125.31 171.319 118.661C130.798 112.168 89.6342 112.18 50.8449 117.172C50.735 117.579 50.6251 117.986 50.5137 118.393C89.0788 113.69 129.923 114 169.99 120.802Z" fill="var(--fill-0, #205C49)"/>
<path id="Vector_154" opacity="0.89" d="M420.084 233.015C457.012 288.391 463.944 355.003 444.052 414.418C439.282 428.634 433.09 442.389 425.714 455.565H431.668C439.081 442.19 445.277 428.231 450.015 413.811C469.715 353.741 462.074 286.536 424.207 230.959C386.785 176.137 321.091 134.974 248.868 115.729C248.381 116.31 247.895 116.889 247.41 117.469C318.903 137.027 383.578 178.374 420.084 233.015Z" fill="var(--fill-0, #205C49)"/>
<path id="Vector_155" opacity="0.25" d="M496.851 392.246C492.467 414.177 484.734 435.44 474.321 455.565H477.997C488.434 435.28 496.154 413.854 500.483 391.763C513.973 322.677 491.283 248.437 436.378 193.376C382.47 139.408 300.751 105.834 219.036 95.7552C218.823 96.0569 218.607 96.3571 218.393 96.6588C299.711 106.956 380.841 140.716 434.134 194.643C488.407 249.654 510.531 323.567 496.851 392.246Z" fill="var(--fill-0, #205C49)"/>
<path id="Vector_156" opacity="0.29" d="M684.798 146.243C768.924 213.286 812.831 311.319 798.237 404.67C795.529 421.908 791.014 438.926 784.916 455.565H790.978C797.098 438.787 801.607 421.625 804.287 404.245C818.698 310.255 773.874 211.681 688.73 144.526C646.405 111.185 595.596 85.0983 541.708 66.6884C488.888 48.6603 433.53 38.0109 379.234 33.4545C378.8 33.8958 378.368 34.3372 377.936 34.7786C431.905 39.4717 486.879 50.246 539.258 68.3543C592.682 86.8415 642.98 112.958 684.798 146.243Z" fill="var(--fill-0, #205C49)"/>
<path id="Vector_157" opacity="0.63" d="M439.111 74.8218C498.75 92.196 555.33 119.768 600.678 156.827C646.475 194.289 680.155 241.4 695.854 292.09C711.554 342.901 709.185 396.901 691.136 446.932C690.09 449.826 688.99 452.703 687.845 455.565H699.703C700.872 452.611 701.992 449.641 703.053 446.657C721.109 395.835 723.039 341.019 706.514 289.611C689.991 238.33 655.128 190.846 608.119 153.275C561.573 116.112 503.807 88.6843 443.144 71.5643C384.106 54.9243 322.909 47.9455 264.523 48.3512C208.721 48.7525 155.794 55.813 107.649 67.1699C107.483 67.6083 107.317 68.0452 107.152 68.4821C155.018 57.4225 207.561 50.6948 262.833 50.6354C320.606 50.5893 381.026 57.9218 439.111 74.8218Z" fill="var(--fill-0, #205C49)"/>
<path id="Vector_158" opacity="0.91" d="M306.6 78.6516C356.626 87.1016 406.146 102.857 450.125 126.374C539.768 174.373 601.203 257.252 606.242 343.808C608.426 381.913 600.606 420.062 584.807 455.566H594.663C610.535 419.476 618.201 380.714 615.607 342.075C609.644 254.46 546.114 171.061 454.673 123.26C409.829 99.8509 359.535 84.33 308.867 76.1549C259.643 68.2265 210.34 67.1595 163.781 71.221C163.493 71.7679 163.206 72.3133 162.92 72.8572C209.124 69.0825 257.968 70.4497 306.6 78.6516Z" fill="var(--fill-0, #205C49)"/>
<path id="Vector_159" opacity="0.89" d="M301.796 240.129C334.185 290.41 338.101 350.319 318.739 402.337C311.63 421.399 301.643 439.273 289.568 455.565H293.147C305.259 439.075 315.242 420.997 322.294 401.732C341.451 349.295 337.023 289.043 304.009 238.692C271.349 188.985 211.241 151.878 145.245 137.201C145.05 137.54 144.854 137.879 144.66 138.218C210.263 153.156 269.742 190.468 301.796 240.129Z" fill="var(--fill-0, #205C49)"/>
<path id="Vector_160" opacity="0.88" d="M365.721 322.704C370.177 369.886 355.781 416.528 329.452 455.565H334.225C360.616 416.024 374.814 368.844 369.874 321.27C364.833 273.096 339.485 225.967 298.061 190.663C297.297 191.275 296.533 191.887 295.772 192.497C336.527 227.869 361.165 274.846 365.721 322.704Z" fill="var(--fill-0, #205C49)"/>
<path id="Vector_161" opacity="0.15" d="M363.457 95.3213C416.737 111.566 466.804 137.335 506.391 171.477C546.433 206.045 575.263 249.098 588.439 295.047C601.615 341.097 599.124 389.604 583.283 434.614C580.784 441.704 577.933 448.683 574.817 455.565H585.61C588.76 448.515 591.634 441.367 594.142 434.106C609.913 388.347 611.943 339.09 597.972 292.497C584.003 246.02 554.074 202.644 512.914 168.003C472.229 133.795 421.075 108.192 366.875 92.2198C314.023 76.6631 258.706 70.1406 205.776 70.7172C154.94 71.2849 106.521 78.3053 62.4876 89.5269C62.3792 89.9088 62.2723 90.2908 62.1654 90.6712C105.973 79.7379 154.072 73.0474 204.444 72.823C256.841 72.6046 311.467 79.4897 363.457 95.3213Z" fill="var(--fill-0, #205C49)"/>
<path id="Vector_162" opacity="0.15" d="M401.529 289.846C416.707 341.97 408.16 396.932 382.791 443.957C380.667 447.888 378.428 451.755 376.092 455.566H379.192C381.543 451.707 383.796 447.79 385.93 443.81C411.28 396.461 419.615 341.173 404.055 288.858C388.449 236.548 348.501 189.055 294.429 157.843C294.024 158.211 293.62 158.578 293.217 158.943C346.86 190.248 386.298 237.709 401.529 289.846Z" fill="var(--fill-0, #205C49)"/>
<path id="Vector_163" opacity="0.14" d="M287.277 455.565H290.733C301.725 440.699 311.005 424.532 317.939 407.29C331.421 373.708 335.675 336.636 327.929 300.385C327.002 300.794 326.075 301.203 325.152 301.61C332.568 337.699 328.083 374.523 314.486 407.831C307.512 424.892 298.235 440.876 287.277 455.565Z" fill="var(--fill-0, #205C49)"/>
<path id="Vector_164" d="M474.229 455.565C483.218 438.2 490.211 419.985 494.772 401.202C493.028 401.405 491.292 401.607 489.561 401.809C484.947 420.389 477.948 438.4 468.991 455.565H474.229Z" fill="var(--fill-0, #205C49)"/>
<path id="Vector_165" opacity="0.16" d="M267.171 75.6065C318.225 80.9476 369.756 93.6003 416.694 114.513C464.507 135.836 507.161 165.799 538.626 202.216C570.347 238.967 590.389 282.133 596.404 326.458C602.313 370.207 594.682 414.712 576.281 455.565H586.172C604.657 414.036 612.056 368.816 605.586 324.484C599.013 279.632 578.118 236.071 545.458 199.141C513.063 162.55 469.415 132.618 420.714 111.454C372.924 90.7069 320.664 78.3335 269.016 73.2941C219.033 68.4316 169.883 70.3516 124.112 77.103C123.908 77.5771 123.704 78.0497 123.499 78.5223C168.971 72.0577 217.724 70.4467 267.171 75.6065Z" fill="var(--fill-0, #205C49)"/>
<path id="Vector_166" opacity="0.87" d="M292.937 299.125C302.992 346.284 291.633 394.23 266.702 433.651C261.852 441.312 256.503 448.611 250.778 455.565H254.211C259.97 448.5 265.344 441.087 270.205 433.309C295.06 393.496 306.13 345.18 295.605 297.816C284.937 250.008 251.442 205.243 203.109 176.206C202.737 176.641 202.365 177.075 201.994 177.509C249.848 206.714 282.737 251.488 292.937 299.125Z" fill="var(--fill-0, #205C49)"/>
</g>
</svg>
