<svg preserveAspectRatio="none" width="100%" height="100%" overflow="visible" style="display: block;" viewBox="0 0 75 52" fill="none" xmlns="http://www.w3.org/2000/svg">
<path id="&#226;&#128;&#157;" d="M9.18972 52L1.48221 45.074C3.4585 43.828 5.87945 41.1529 8.74506 37.0486C11.6107 32.871 13.1423 27.4841 13.3399 20.8879C13.3399 20.8879 12.2036 20.7414 9.93083 20.4482C7.75692 20.155 5.5336 19.8252 3.26087 19.4588C1.08696 19.0923 0 18.9091 0 18.9091V0H30.0889C29.8913 6.59619 29.6937 13.0825 29.496 19.4588C29.3972 25.8351 27.9644 31.8083 25.1976 37.3784C22.4308 42.9486 17.0949 47.8224 9.18972 52ZM52.915 52L45.2075 45.074C47.085 43.9013 49.4565 41.2629 52.3221 37.1586C55.2866 33.0543 56.8676 27.6674 57.0652 20.9979L45.0593 18.9091V0H75C74.8024 6.5229 74.5059 13.0092 74.1107 19.4588C73.7154 25.8351 72.0356 31.845 69.0711 37.4884C66.2055 43.0585 60.8202 47.8957 52.915 52Z" fill="var(--fill-0, #063B6D)" fill-opacity="0.1"/>
</svg>
