<svg preserveAspectRatio="none" width="100%" height="100%" overflow="visible" style="display: block;" viewBox="0 0 75 52" fill="none" xmlns="http://www.w3.org/2000/svg">
<path id="&#226;&#128;&#156;" d="M44.9405 52V42.318C45.2381 36.5886 45.5853 31.1492 45.9821 26C46.4782 20.8508 47.9663 16.1004 50.4464 11.749C53.0258 7.32497 57.6389 3.40865 64.2857 0L71.7262 6.85356C69.8413 8.08647 67.4107 10.6248 64.4345 14.4686C61.4583 18.2399 59.871 23.4616 59.6726 30.1339L75 31.5481V52H44.9405ZM0 52V42.318C0 36.6611 0.297619 31.258 0.892857 26.1088C1.5873 20.9596 3.32341 16.1729 6.10119 11.749C8.87897 7.32497 13.5913 3.40865 20.2381 0L27.6786 6.85356C25.7937 8.08647 23.3631 10.5886 20.3869 14.3598C17.4107 18.1311 15.8234 23.3529 15.625 30.0251L30.0595 31.5481V52H0Z" fill="var(--fill-0, #063B6D)" fill-opacity="0.1"/>
</svg>
